<?xml version="1.0" standalone="no"?>
<!DOCTYPE svg PUBLIC "-//W3C//DTD SVG 1.1//EN" "http://www.w3.org/Graphics/SVG/1.1/DTD/svg11.dtd" >
<svg>
<metadata>
Created by FontForge 20090622 at Sat Jul 23 10:48:19 2016
 By ffonts
Created by gluk ( gluksza@wp.pl | www.glukfonts.pl ) with FontForge.
</metadata>
<defs>
<font id="Digitalt" horiz-adv-x="540" >
  <font-face 
    font-family="Digitalt"
    font-weight="500"
    font-stretch="normal"
    units-per-em="1000"
    panose-1="2 0 6 3 0 0 0 0 0 0"
    ascent="800"
    descent="-200"
    x-height="602"
    cap-height="602.25"
    bbox="-240.249 -200.19 951.37 786.21"
    underline-thickness="50"
    underline-position="-100"
    stemh="170"
    stemv="208"
    unicode-range="U+0020-U+2212"
  />
<missing-glyph horiz-adv-x="340" 
d="M30 540h300v-480h-300v480zM89.5195 385.663l59.9639 -85.6631l-59.9639 -85.6631l40.9609 -28.6738l49.5195 70.7422l49.5195 -70.7422l40.96 28.6738l-59.9629 85.6631l59.9629 85.6631l-40.96 28.6738l-49.5195 -70.7422l-49.5195 70.7422z" />
    <glyph glyph-name=".notdef" horiz-adv-x="340" 
d="M30 540h300v-480h-300v480zM89.5195 385.663l59.9639 -85.6631l-59.9639 -85.6631l40.9609 -28.6738l49.5195 70.7422l49.5195 -70.7422l40.96 28.6738l-59.9629 85.6631l59.9629 85.6631l-40.96 28.6738l-49.5195 -70.7422l-49.5195 70.7422z" />
    <glyph glyph-name="space" unicode=" " horiz-adv-x="300" 
 />
    <glyph glyph-name="exclam" unicode="!" horiz-adv-x="256" 
d="M51.1299 86.2803c0 22.2695 0.267578 44.5996 0.867188 68.7197c25.9404 1.23047 50.0508 1.73047 74.0312 1.73047c27.9502 0 55.71 -0.69043 85.9697 -1.73047c5.51953 0 9.88965 -4.48047 10 -10c0.530273 -27 0.860352 -51.7998 0.860352 -76.7197
c0 -22.1201 -0.259766 -44.3301 -0.859375 -68.2803c-18.0996 -0.919922 -36.1299 -1.32031 -54.3203 -1.32031c-34.2197 0 -68.9795 1.40039 -105.68 3.32031c-5.50977 0.290039 -10 4.48047 -10 10c-0.55957 26.1299 -0.869141 50.1602 -0.869141 74.2803zM43.998 400
c0 70.29 1.24023 129.722 4 200.002c31.75 1.5 54.1299 2.25 87.3799 2.25c29.96 0 55.6699 -1.08008 82.6201 -2.25c5.50977 -0.240234 9.7998 -4.48047 10 -10c2.41992 -66.7705 4 -123.23 4 -190c0 -70.29 -2.24023 -129.72 -6 -200
c-23.75 -1.5 -39.1299 -2.25 -70.3799 -2.25c-33.96 0 -63.6699 0.0800781 -97.6201 2.25c-5.50977 0.349609 -9.7998 4.47949 -10 9.99902c-2.41992 66.7695 -4 123.229 -4 189.999z" />
    <glyph glyph-name="quotedbl" unicode="&#x22;" horiz-adv-x="420" 
d="M29.6299 496.92c0 31.6299 0.560547 66.1104 0.560547 100.08c0 5.51953 3.48047 10 9 10c11.7695 0.410156 41.0596 0.610352 70.3496 0.610352c29.3496 0 58.6992 -0.200195 70.459 -0.610352c5.51953 0 10 -4.48047 10 -10
c0 -33.9697 0.570312 -64.4502 0.570312 -96.0801c-5.46973 -45 -36.1396 -150.94 -42.5693 -168.921c-13.3496 -0.629883 -27.54 -0.860352 -41.7002 -0.860352c-19.5596 0 -39.04 0.44043 -56.1104 0.860352c-3.41992 18.9805 -16.0898 118.921 -20.5596 164.921z
M241.631 496.92c0 31.6299 0.55957 66.1104 0.55957 100.08c0 5.51953 3.48047 10 9 10c11.7695 0.410156 41.0596 0.610352 70.3496 0.610352c29.3496 0 58.6992 -0.200195 70.459 -0.610352c5.51953 0 10 -4.48047 10 -10c0 -33.9697 0.570312 -64.4502 0.570312 -96.0801
c-5.46973 -45 -36.1494 -150.94 -42.5693 -168.921c-13.3496 -0.629883 -27.54 -0.860352 -41.7002 -0.860352c-19.5596 0 -39.0391 0.44043 -56.1094 0.860352c-3.41992 18.9805 -16.0898 118.921 -20.5596 164.921z" />
    <glyph glyph-name="numbersign" unicode="#" horiz-adv-x="522" 
d="M27.3398 192.3c0 8.11035 0.540039 27.7197 1.66016 57.7002c11.75 0.55957 44.6504 1.00977 83.1406 1.35938c-0.0898438 13.0898 -0.139648 26.0195 -0.139648 38.6396c0 18.6904 0.0996094 39.1104 0.269531 60.3604
c-30.2197 0.639648 -55.8301 1.25 -67.2705 1.63965c-5.51953 0 -9.84961 4.48047 -10 10c-0.429688 16.2803 -0.660156 27.04 -0.660156 32.3096c0 8.11035 0.540039 27.71 1.66016 57.6904c11.1699 0.530273 41.4697 0.959961 77.5098 1.2998
c0.75 48.5098 1.66992 94.1094 2.49023 126.699c25.2803 0.69043 42.0703 1.04004 57.8008 1.04004c15.4102 0 29.8105 -0.339844 50.2002 -1.04004c5.51953 0 10 -4.48047 10 -10c0.509766 -24 1.35938 -68.1299 2.13965 -115.899
c23.7803 0.0996094 42.6406 0.149414 51.2402 0.149414c4.33984 0 10.54 -0.0195312 18.1396 -0.0498047c0.75 48.1699 1.66992 93.4102 2.47949 125.8c25.2803 0.69043 42.0703 1.04004 57.8008 1.04004c15.4102 0 29.8105 -0.339844 50.2002 -1.04004
c5.51953 0 10 -4.48047 10 -10.001c0.509766 -24.1396 1.35938 -68.6592 2.14941 -116.759c33.46 -0.360352 62.9502 -0.790039 75.8506 -1.24023c5.51953 0 10 -4.48047 10 -10c0 -17.8301 -0.129883 -57.7305 -1 -92
c-8.61035 -0.410156 -42.9502 -0.839844 -83.3906 -1.21973c0.240234 -22.5596 0.390625 -42.8896 0.390625 -58.7793c0 -11.5098 -0.0595703 -24.6396 -0.169922 -38.8594c29.8096 -0.339844 55.3994 -0.729492 67.1689 -1.13965c5.51953 0 10 -4.48047 10 -10
c0 -17.8301 -0.139648 -58.7305 -1 -92c-8.17969 -0.389648 -39.6299 -0.799805 -77.4697 -1.16992c-0.759766 -47.2305 -1.7002 -93.7305 -2.53027 -126.83c-17.5098 -0.830078 -33.79 -1.16992 -49.9697 -1.16992c-18.8701 0 -37.6104 0.469727 -58.0303 1.16992
c-5.51953 0 -10 4.48047 -10 10c-0.660156 30.9902 -1.62012 71.8203 -2.42969 115.91c-18.8301 -0.0996094 -33.6201 -0.15918 -40.9502 -0.15918c-5.96973 0 -15.79 0.0996094 -28.1104 0.259766c-0.759766 -46.9502 -1.68945 -93.1104 -2.50977 -126.011
c-17.5098 -0.830078 -33.79 -1.16992 -49.9697 -1.16992c-18.8604 0 -37.6006 0.469727 -58.0303 1.16992c-5.51953 0 -10 4.48047 -10 10c-0.669922 31.5195 -1.66992 73.2197 -2.49023 118.18c-33.7598 0.700195 -63.04 1.39062 -75.5098 1.82031
c-5.51953 0 -10 4.48047 -10 9.99023c-0.429688 16.2803 -0.660156 27.04 -0.660156 32.3096zM237.62 348.089c0.240234 -22.2803 0.378906 -42.3584 0.378906 -58.0889c0 -11.2402 -0.0595703 -24.0205 -0.15918 -37.8604
c19.6396 0.0800781 35.0195 0.110352 42.54 0.110352c5.36035 0 13.5801 -0.0302734 23.7598 -0.0800781c-0.0898438 12.8096 -0.139648 25.4697 -0.139648 37.8301c0 17.96 0.0898438 37.5195 0.25 57.8691c-14.8398 -0.0800781 -26.4199 -0.120117 -32.6299 -0.120117
c-6.88965 0 -18.9199 0.129883 -34 0.339844z" />
    <glyph glyph-name="dollar" unicode="$" horiz-adv-x="470" 
d="M35 417.33c0 103.14 40.2285 144.24 108.669 160.13c0.620117 55.0996 1.41016 105.63 2.33008 142.54c31.75 1.5 54.1299 2.25 77.3799 2.25c23.96 0 58.6699 -1.08008 92.6201 -2.25c5.51953 0 10 -4.48047 10 -10.001
c0.69043 -32.5596 1.39062 -76.8301 2.00098 -126.19c38.1504 -3.42969 79.25 -9.40918 117.8 -16.8096l-20.4199 -143.85c-49.2803 19.96 -113.771 36.2305 -171.19 36.2305c-32.1299 0 -60.2002 -5.48047 -60.2002 -32.04c0 -27.4004 39.3799 -38.2002 88.1797 -51.5703
c79.4404 -21.7598 183.83 -50.3398 183.83 -168.439c0 -109.77 -50.96 -161.329 -129.63 -181.489c-0.629883 -56.3799 -1.42969 -108.2 -2.37012 -145.84c-31.75 -1.5 -54.1299 -2.25 -77.3799 -2.25c-23.96 0 -58.6699 1.08008 -92.6201 2.25
c-5.51953 0 -10 4.48047 -10 10c-0.69043 32.5195 -1.38086 77.25 -1.99121 126.82c-39.0195 1.65039 -78.5596 4.40039 -116.689 8.10059l22.4805 158.85c66.4199 -20.1699 123.32 -31.8203 168.011 -31.8203c41.4805 0 57.2002 19.3896 57.2002 39.3896
c0 30.71 -36.6797 39.4502 -81.8398 50.7998c-72.25 18.1602 -166.17 43.0098 -166.17 175.189z" />
    <glyph glyph-name="percent" unicode="%" horiz-adv-x="756" 
d="M67.3096 33.8799c0 3.9502 9.85059 15.1084 21.3105 29.7881l408.979 517.72c9.48047 0.19043 60.8701 0.280273 70.1104 0.280273c40.9404 0 99.0908 -3.92969 121.69 -7.5293c3.74023 -0.599609 6.19043 -3.5293 6.19043 -6.79883
c0 -5.00977 -13.8604 -21.5293 -34.3701 -49.4189c-112.85 -153.42 -285.76 -375.2 -395.92 -498.08c-9.48047 -0.19043 -60.8701 -0.290039 -70.1104 -0.290039c-40.9404 0 -99.0908 3.94043 -121.69 7.54004c-3.74023 0.599609 -6.19043 3.51953 -6.19043 6.78906z
M16.501 457.138c0 99.4404 50.3398 136.229 127.28 140.039c115.08 0 155.72 -29.4902 155.72 -140.04c0 -99.2598 -48.0996 -135.52 -125.109 -139.329c-114.86 0 -157.891 28.5098 -157.891 139.33zM137.991 457.137c0 -28.6104 6.08105 -32.29 20.0107 -32.29
c12.7695 0 20.0098 3.07031 20.0098 32.29c0 29.2305 -8.03027 32.29 -22.1807 32.29c-10.5098 0 -17.8398 -3.67969 -17.8398 -32.29zM476.502 143.137c0 99.4404 50.3398 136.229 127.28 140.039c115.08 0 155.72 -29.4902 155.72 -140.04
c0 -99.2598 -48.0996 -135.52 -125.109 -139.329c-114.86 0 -157.891 28.5098 -157.891 139.33zM597.992 143.136c0 -28.6104 6.08008 -32.29 20.0098 -32.29c12.7705 0 20.0107 3.07031 20.0107 32.29s-8.03027 32.29 -22.1807 32.29
c-10.5098 0 -17.8398 -3.67969 -17.8398 -32.29z" />
    <glyph glyph-name="ampersand" unicode="&#x26;" horiz-adv-x="560" 
d="M18 181c0 50.8701 37.4277 101.06 100.487 134.369c-30.5801 29.8799 -47.4902 70.5098 -47.4902 120.63c0 118.42 75.21 153 205 153c41.1504 0 104.74 -7.2998 145 -17l-20.3799 -146.75l-111.43 6.12988c-32 0 -51.1904 -8.37988 -51.1904 -32.3799
c0 -25 25 -33 56 -33l-14.7197 -65.5h4c10.3896 18.0801 29.5498 45.6904 51 66.4707c43.4902 0.959961 76.4707 1.37988 104.65 1.37988c42.7002 0 74.4102 -0.950195 115.07 -2.35059c5.51953 0 9.75 -4.49023 10 -10
c0.540039 -11.7695 0.900391 -31.4199 0.900391 -55.7002c0 -20.7402 -0.259766 -44.8398 -0.899414 -70.2998c-18.9697 0 -45.9697 -0.0898438 -73.7393 -0.509766c8.40039 -29.0801 12.8906 -56.4199 12.8906 -81.4199c0 -88.3496 -58.2402 -153.069 -226.15 -153.069
c-141.32 0 -259 21.5596 -259 186zM222.998 198.999c0 -26 14 -37.001 51 -37.001c37.3096 0 50 10.5703 50 30c0 12.4502 -0.469727 25.96 -1.5 38.6104c-19.4102 0.780273 -39.2998 1.89062 -59.5 3.39062c-25 0 -40 -14 -40 -35z" />
    <glyph glyph-name="quotesingle" unicode="'" horiz-adv-x="208" 
d="M29.6299 496.92c0 31.6299 0.560547 66.1104 0.560547 100.08c0 5.51953 3.48047 10 9 10c11.7695 0.410156 41.0596 0.610352 70.3496 0.610352c29.3496 0 58.6992 -0.200195 70.459 -0.610352c5.51953 0 10 -4.48047 10 -10
c0 -33.9697 0.570312 -64.4502 0.570312 -96.0801c-5.46973 -45 -36.1396 -150.94 -42.5693 -168.921c-13.3496 -0.629883 -27.54 -0.860352 -41.7002 -0.860352c-19.5596 0 -39.04 0.44043 -56.1104 0.860352c-3.41992 18.9805 -16.0898 118.921 -20.5596 164.921z" />
    <glyph glyph-name="parenleft" unicode="(" horiz-adv-x="290" 
d="M35.96 300.49c0 153.02 38.3301 280.909 89.04 427.409l158.08 -20.3799c-25.1104 -141.8 -39.5703 -263.26 -39.5703 -407.029s14.46 -265.21 39.5703 -407.01l-158.08 -20.3799c-50.71 146.49 -89.04 274.38 -89.04 427.39z" />
    <glyph glyph-name="parenright" unicode=")" horiz-adv-x="290" 
d="M26.96 -106.52c25.1104 141.8 39.5801 263.24 39.5801 407.01s-14.4697 265.239 -39.5801 407.029l158.08 20.3799c50.71 -146.5 89.04 -274.39 89.04 -427.409c0 -153.01 -38.3301 -280.899 -89.04 -427.39z" />
    <glyph glyph-name="asterisk" unicode="*" horiz-adv-x="380" 
d="M16.1904 472.24c0 22.29 19.3262 79.5693 33.4863 74.9697l60.8701 -19.7803c17.2598 -7.90039 47.0098 -29.9404 65.1396 -43.9707c-7.74023 21.5801 -19.5098 56.6797 -21.6895 75.54v64c0 10 28 13 46 13s46 -4 46 -13v-64
c-2.17969 -18.8604 -13.9492 -53.96 -21.6895 -75.54c18.1299 14.0303 47.8799 36.0703 65.1396 43.9707l60.8701 19.7803c15.0303 4.87988 33.0801 -52.5498 33.0801 -74.8301c0 -6.63965 -1.2998 -11.5801 -4.64941 -12.6699l-60.8701 -19.7803
c-18.6104 -3.75977 -55.6201 -3.39941 -78.54 -2.70898c18.9404 -12.9102 49.1006 -34.3906 61.9404 -48.3711l37.6201 -51.7695c10.0898 -13.8896 -50 -56.1699 -69.1201 -56.1699c-2.40039 0 -4.25 0.629883 -5.30957 2.08984l-37.6201 51.7803
c-9.32031 16.54 -20.4199 51.8496 -26.8496 73.8594c-6.42969 -22.0098 -17.5293 -57.3193 -26.8496 -73.8594l-37.6201 -51.7803c-1.21973 -1.67969 -3.23926 -2.41016 -5.80957 -2.41016c-18.7998 0 -78.1797 43.3398 -68.6201 56.4902l37.6201 51.7695
c12.8398 13.9805 43 35.4609 61.9404 48.3711c-22.9199 -0.69043 -59.9297 -1.05078 -78.54 2.70898l-60.8701 19.7803c-3.66992 1.19043 -5.05957 6.04004 -5.05957 12.5303z" />
    <glyph glyph-name="plus" unicode="+" horiz-adv-x="498" 
d="M28.5195 290.78c0 19.1904 0.519531 40.9893 1.47949 79.2197c17.21 0.80957 82.7803 1.40918 144.53 1.7793c0.769531 55.3496 2.23926 112.229 3.46973 158.22c23.2402 1.09961 46.6299 1.55957 70.1396 1.55957c27.1299 0 54.4297 -0.610352 81.8594 -1.56055
c5.51953 0 10 -4.48047 10 -10c0.950195 -44.46 2.50977 -94.6904 3.37012 -148.04c48.3203 -0.400391 111.37 -1.16016 134.63 -1.95996c5.51953 0 9.68945 -4.49023 9.99902 -10c0.519531 -9.19043 0.799805 -34.0703 0.799805 -62.2305
c0 -26.4697 -0.25 -55.8398 -0.799805 -77.7695c-14.3496 -0.679688 -87.1797 -1.43945 -144.68 -1.87988c-0.799805 -51.7998 -2.16992 -104.109 -3.32031 -148.119c-23.2402 -1.09961 -46.6201 -1.55957 -70.1396 -1.55957c-27.1299 0 -54.4297 0.610352 -81.8594 1.56055
c-5.51953 0 -9.7793 4.48047 -9.99902 10c-1.92969 48.8701 -2.34961 90.2402 -3.21973 139.141c-55.7305 0.969727 -115.961 2.20996 -134.781 2.86035c-5.51953 0 -9.7793 4.49023 -9.99902 10c-1.01953 24.9697 -1.47949 40.7197 -1.47949 58.7793z" />
    <glyph glyph-name="comma" unicode="," horiz-adv-x="210" 
d="M29.1299 86.29c0 22.2598 0.268555 44.5996 0.868164 68.71c25.9404 1.23047 50.0508 1.73047 74.0312 1.73047c27.9502 0 55.71 -0.69043 85.9697 -1.73047c5.51953 0 10 -4.48047 10 -10c0 -33.9697 0.570312 -64.4502 0.570312 -96.0801
c-5.46973 -45 -34.1396 -150.94 -40.5693 -168.921c-31.79 -1.5 -60.3701 -1.87988 -90.2803 -1.87988c0 7.08008 2.95996 101.05 3.95996 123.03c-10.54 0 -19.6504 0.120117 -33.6807 0.850586c-5.50977 0.290039 -10 4.48047 -10 10
c-0.55957 26.1299 -0.869141 50.1699 -0.869141 74.29z" />
    <glyph glyph-name="hyphen" unicode="-" horiz-adv-x="418" 
d="M28.8799 301.3c0 18.9805 0.310547 40.1504 1.12012 72.7002c31.75 1.5 188.13 2.25 221.38 2.25c33.96 0 112.67 -1.08008 146.62 -2.25c5.51953 0 9.81934 -4.48047 9.99902 -10c0.75 -23.0801 1 -35 1 -85c0 -20 -0.459961 -41.3096 -1 -63
c-21.7598 -1.03027 -138.13 -2.25 -171.38 -2.25c-33.96 0 -162.67 3.08008 -196.62 4.25c-5.51953 0 -9.86914 4.48047 -9.99902 10c-0.620117 25.9102 -1.12012 48.9902 -1.12012 73.2998z" />
    <glyph glyph-name="period" unicode="." horiz-adv-x="210" 
d="M29.1299 86.2803c0 22.2695 0.267578 44.5996 0.867188 68.7197c25.9404 1.23047 50.0508 1.73047 74.0312 1.73047c27.9502 0 55.71 -0.69043 85.9697 -1.73047c5.51953 0 9.88965 -4.48047 10 -10c0.530273 -27 0.860352 -51.7998 0.860352 -76.7197
c0 -22.1201 -0.259766 -44.3301 -0.859375 -68.2803c-18.0996 -0.919922 -36.1299 -1.32031 -54.3203 -1.32031c-34.2197 0 -68.9795 1.40039 -105.68 3.32031c-5.50977 0.290039 -10 4.48047 -10 10c-0.55957 26.1299 -0.869141 50.1602 -0.869141 74.2803z" />
    <glyph glyph-name="slash" unicode="/" horiz-adv-x="374" 
d="M-5.00977 -43.2002c0 3.19043 5.99121 23.7217 8.98145 34.7812c24.7002 91.4404 55.9199 205.78 88.1299 312.4c36.04 119.3 78.3301 248.93 116.09 346.02c32.2998 1.5 54.9395 2.25 88.1895 2.25c33.96 0 63.29 -1.08008 94.8096 -2.25
c4.42969 -0.160156 6.7998 -2.85059 6.7998 -6.84082c0 -4.29004 -6.41992 -26.1299 -9.66016 -38.3301c-23.8604 -89.9805 -54.7002 -199.36 -86.4307 -307.811c-35.0703 -119.87 -76.3301 -249.93 -114.09 -347.02c-32.2998 -1.5 -54.9395 -2.25 -88.1895 -2.25
c-33.96 0 -65.29 1.08008 -97.8096 2.25c-4.41016 0.160156 -6.82031 2.83008 -6.82031 6.7998z" />
    <glyph glyph-name="zero" unicode="0" horiz-adv-x="530" 
d="M26 300.33c0 196.25 85 299.67 226 306.67c190.38 0 272 -75.5498 272 -306.67c0 -196.46 -81 -299.33 -222 -306.33c-190.06 0 -276 74.8203 -276 306.33zM232.99 300.33c0 -119.15 15.0098 -132.33 42.0098 -132.33s42.0098 13.1797 42.0098 132.33
c0 118.8 -18.0098 131.67 -45.0098 131.67s-39.0098 -12.8701 -39.0098 -131.67z" />
    <glyph glyph-name="one" unicode="1" horiz-adv-x="288" 
d="M20 441c0 45 1 96 3 141c32 7 95.1299 18.25 128.38 21.25c33.96 0 64.6699 -1.08008 96.6201 -2.25c5.51953 -0.200195 10 -4.48047 10 -10c2 -94 4 -191 4 -291s-1.5 -200 -4 -300c-31.75 -1.5 -54.1299 -2.25 -87.3799 -2.25c-33.96 0 -68.6699 1.08008 -102.62 2.25
c-5.51953 0 -10 4.48047 -10 10c-2 94 -4 190 -4 290c0 51.4297 0.389648 90.8701 1.12012 142.3z" />
    <glyph glyph-name="two" unicode="2" horiz-adv-x="464" 
d="M40 165.33c0 138.57 103.048 187.34 172.378 219.75c35.1504 16.4297 61.6309 28.6602 61.6309 46.2598c0 18.5 -24.9404 28.04 -57.2002 28.04c-60.3096 0 -111.779 -25.7402 -140.31 -40.5801l-22.5 166.2c47.2305 11.4102 97 22 153 22
c137 0 243 -11.5195 243 -173.67c0 -113.13 -80.6797 -157.42 -141.779 -189.25c-37.25 -19.4004 -67.2197 -34.1699 -67.2197 -57.0801v-16.75h10.3799c33.96 0 148.67 -1.08008 182.62 -2.25c5.51953 0 9.89941 -4.48047 9.99902 -10
c0.540039 -29.8896 0.910156 -57.8301 0.910156 -86.0898c0 -23.9502 -0.269531 -48.1299 -0.90918 -73.9102c-31.75 -1.5 -144.13 -2.25 -177.38 -2.25c-33.96 0 -178.67 3.08008 -212.62 4.25c-5.51953 0 -9.75977 4.49023 -10 10c-2.66992 61 -4 95 -4 155.33z" />
    <glyph glyph-name="three" unicode="3" horiz-adv-x="436" 
d="M24 590c51.9297 13.0996 107.999 16.999 161.999 16.999c138 0 220 -38 220 -173.67c0 -53.3203 -21.2695 -97.3701 -57.8994 -129.32c55.6699 -30.3799 87.9004 -74.7002 87.9004 -122.681c0 -159.27 -108 -186.329 -243 -186.329c-68 0 -104.06 3.83008 -168 14l18 153
h141c37 0 51.0098 11.5098 51.0098 37.3398c0 23.4297 -17.0098 36.6602 -44.0098 36.6602h-104v139h85c31 0 57.0098 9.11035 57.0098 36.3408c0 28.5 -22.0098 36.6602 -54.0098 36.6602h-133z" />
    <glyph glyph-name="four" unicode="4" horiz-adv-x="488" 
d="M13.3701 145.15c0 16.25 0.269531 32.5391 0.629883 47.0986c34 108.7 113 340.7 146 410c25.5703 0.530273 85.5 1.2207 135.08 1.2207c49.6104 0 97.2207 -1.5498 152.921 -3.46973c5.51953 0 10 -4.48047 10 -10.001c2 -94 4 -190 4 -290s-1.5 -200 -4 -300
c-26.3203 -1.24023 -53.2002 -1.75977 -80.2705 -1.75977c-31.1797 0 -62.6201 0.69043 -93.7305 1.76074c-5.51953 0 -10 4.48047 -10 10c-0.589844 27.9004 -0.830078 55.9805 -0.879883 84.2803c-33.9199 -0.19043 -62.8096 -0.280273 -74.5 -0.280273
c-33.96 0 -140.67 1.08008 -174.62 2.25c-5.51953 0 -9.7998 4.48047 -10 10c-0.450195 12.2803 -0.629883 25.5703 -0.629883 38.9004zM197.601 250.31c19.6201 -0.219727 47.0596 -0.610352 76.2598 -1.07031c0.0898438 16.8096 0.139648 33.7295 0.139648 50.7598
c0 36.4902 1.66992 102.58 4.20996 171.271c-28.2998 -86.6104 -55.3096 -160.24 -80.6094 -220.96z" />
    <glyph glyph-name="five" unicode="5" horiz-adv-x="456" 
d="M40 9l17.999 153h146c37 0 51.0098 14.5098 51.0098 40.3398c0 23.4297 -17.0098 39.6602 -44.0098 39.6602h-157c-6 0 -9.62012 0.490234 -10 6c-1.4502 21.1104 -2 36.9102 -2 58c0 100 1.5 194 4 294c31.75 1.5 158.13 2.25 191.38 2.25
c33.96 0 148.67 -1.08008 182.62 -2.25c5.51953 0 9.89941 -4.48047 9.99902 -10.001c0.540039 -30.4297 0.910156 -58.3398 0.910156 -86.4395c0 -23.8203 -0.269531 -47.7803 -0.90918 -73.5605c-30.7695 -1.4502 -165.46 -2.2002 -204 -2.25v-51.6797
c8.23047 0.540039 16.2207 0.790039 23.9707 0.790039c144.66 0 206.03 -91.2305 206.03 -193.53c0 -159.27 -108 -188.329 -243 -188.329c-68 0 -109.06 3.83008 -173 14z" />
    <glyph glyph-name="six" unicode="6" horiz-adv-x="500" 
d="M232.57 208.18c0 -23.9502 13.8789 -48.04 45.209 -48.04c21.7402 0 36.2305 19.2803 36.2305 48.2002c0 23.4297 -16.0098 47.04 -44.2002 47.04c-23.6797 0 -37.2393 -23.5303 -37.2393 -47.2002zM25.999 300.33c0 235.15 106 306.672 265 306.672
c56 0 113.16 -6.66992 177 -17l-21 -158h-176c-18 0 -32.9199 -5.7002 -40.46 -46.6602c17.54 3.59961 57.4404 6.65918 73.46 6.65918c132.6 0 190 -83.6699 190 -181.67c0 -144.12 -67.75 -216.33 -214 -216.33c-138 0 -254 56.3096 -254 306.329z" />
    <glyph glyph-name="seven" unicode="7" horiz-adv-x="450" 
d="M13.04 524.07c0 24.5996 0.290039 49.2793 0.959961 75.9297c31.75 1.5 226.13 2.25 259.38 2.25c33.96 0 140.67 -1.08008 174.62 -2.25c5.51953 0 9.83984 -4.48047 10 -10.001c0.480469 -17 0.700195 -32.7402 0.700195 -48.4307
c0 -16.7402 -0.25 -33.4404 -0.700195 -51.5703c-20.5898 -40.3496 -146 -247.399 -146 -331.999l-1 -75c0 -23 0.139648 -51.9004 1 -83c-34.6904 -1.63965 -66.9404 -2.31934 -99.0107 -2.31934c-37.3799 0 -74.5195 0.919922 -114.989 2.32031
c-5.51953 0 -10 4.48047 -10 10v115c30.7695 107.4 86.7998 204.12 149.63 303.36c-74.5898 0.959961 -189.12 2.79004 -213.63 3.63965c-5.51953 0 -10 4.48047 -10 10c-0.610352 28.8701 -0.959961 55.4199 -0.959961 82.0703z" />
    <glyph glyph-name="eight" unicode="8" horiz-adv-x="524" 
d="M20 173c0 48.0596 32.21 100.539 88 131.02c-36.6602 31.9102 -58 75.8604 -58 128.98c0 137.22 83 174 222 174s222 -36.7803 222 -174c0 -53.1201 -21.3398 -97.0703 -58 -128.98c55.79 -30.4795 88 -82.96 88 -131.02c0 -163.36 -111.42 -181 -251.5 -181
s-252.5 17.6396 -252.5 181zM218 188.999c0 -26.2598 17 -43 54 -43s54 16.7305 54 43c0 27.0996 -22.1904 41 -53.5 41s-54.5 -13.8799 -54.5 -41zM225 419.999c0 -23.5801 21.7402 -38.5498 47.5 -38.5498s46.5 14.9697 46.5 38.5498c0 26.3496 -20 40 -47 40
s-47 -13.6504 -47 -40z" />
    <glyph glyph-name="nine" unicode="9" horiz-adv-x="500" 
d="M205.99 392.66c0 -23.4297 16.0107 -47.04 44.2012 -47.04c23.6797 0 37.2393 23.5303 37.2393 47.2002c0 23.9502 -13.8799 48.04 -45.21 48.04c-21.7402 0 -36.2305 -19.2803 -36.2305 -48.2002zM26.001 390.67c0 144.12 67.75 216.328 214 216.328
c138 0 254 -56.3096 254 -306.329c0 -235.15 -106 -306.67 -265 -306.67c-56 0 -113.16 6.66992 -177 17l21 158h176c18 0 32.9199 5.7002 40.46 46.6602c-17.54 -3.59961 -57.4404 -6.65918 -73.46 -6.65918c-132.6 0 -190 83.6699 -190 181.67z" />
    <glyph glyph-name="colon" unicode=":" horiz-adv-x="210" 
d="M29.1299 86.2803c0 22.2695 0.267578 44.5996 0.867188 68.7197c25.9404 1.23047 50.0508 1.73047 74.0312 1.73047c27.9502 0 55.71 -0.69043 85.9697 -1.73047c5.51953 0 9.88965 -4.48047 10 -10c0.530273 -27 0.860352 -51.7998 0.860352 -76.7197
c0 -22.1201 -0.259766 -44.3301 -0.859375 -68.2803c-18.0996 -0.919922 -36.1299 -1.32031 -54.3203 -1.32031c-34.2197 0 -68.9795 1.40039 -105.68 3.32031c-5.50977 0.290039 -10 4.48047 -10 10c-0.55957 26.1299 -0.869141 50.1602 -0.869141 74.2803zM29.1279 386.28
c0 22.2695 0.267578 44.5996 0.867188 68.7197c25.9404 1.23047 50.0508 1.73047 74.0312 1.73047c27.9502 0 55.71 -0.69043 85.9697 -1.73047c5.51953 0 9.88965 -4.48047 10 -10c0.530273 -27 0.860352 -51.7998 0.860352 -76.7197
c0 -22.1201 -0.259766 -44.3301 -0.859375 -68.2803c-18.0996 -0.919922 -36.1299 -1.32031 -54.3203 -1.32031c-34.2197 0 -68.9795 1.40039 -105.68 3.32031c-5.50977 0.290039 -10 4.48047 -10 10c-0.55957 26.1299 -0.869141 50.1602 -0.869141 74.2803z" />
    <glyph glyph-name="semicolon" unicode=";" horiz-adv-x="210" 
d="M29.1299 386.28c0 22.2695 0.267578 44.5996 0.867188 68.7197c25.9404 1.23047 50.0508 1.73047 74.0312 1.73047c27.9502 0 55.71 -0.69043 85.9697 -1.73047c5.51953 0 9.88965 -4.48047 10 -10c0.530273 -27 0.860352 -51.7998 0.860352 -76.7197
c0 -22.1201 -0.259766 -44.3301 -0.859375 -68.2803c-18.0996 -0.919922 -36.1299 -1.32031 -54.3203 -1.32031c-34.2197 0 -68.9795 1.40039 -105.68 3.32031c-5.50977 0.290039 -10 4.48047 -10 10c-0.55957 26.1299 -0.869141 50.1602 -0.869141 74.2803z
M29.1279 86.2803c0 22.2695 0.268555 44.5996 0.868164 68.7197c25.9404 1.23047 50.0508 1.73047 74.0312 1.73047c27.9502 0 55.71 -0.69043 85.9697 -1.73047c5.51953 0 10 -4.48047 10 -10c0 -33.9697 0.570312 -64.4502 0.570312 -96.0801
c-5.46973 -45 -34.1396 -150.94 -40.5693 -168.921c-31.79 -1.5 -60.3701 -1.87988 -90.2803 -1.87988c0 7.08008 2.95996 101.05 3.95996 123.03c-10.54 0 -19.6504 0.120117 -33.6807 0.850586c-5.50977 0.290039 -10 4.48047 -10 10
c-0.55957 26.1299 -0.869141 50.1602 -0.869141 74.2803z" />
    <glyph glyph-name="less" unicode="&#x3c;" horiz-adv-x="408" 
d="M23 317c0 19 0.59082 39.0195 1.78125 59.6094c28.1396 14.7803 173.17 83.2402 203.31 97.29c30.7803 14.3496 111.641 50.8594 142.9 64.1494c5 2.33008 10.96 0.160156 13.29 -4.83984c7.53027 -16.1602 13.8301 -74.7197 13.8301 -138.72
c-19.29 -10.1299 -92.1797 -43.7402 -122.319 -57.79c-13.9502 -6.50977 -53.5703 -25.0195 -87.9805 -36.1797c40.9102 -14.7197 87.2598 -36.8799 101.35 -43.4502l98.4502 -47.0693c6.09961 -3 9.83984 -8.62012 9.83984 -15.29
c0 -21.71 -3.33984 -110.71 -10.3994 -140.979c-20.1602 8.25977 -142.2 64.5596 -172.33 78.6094c-30.7803 14.3496 -149.761 73.2295 -180.03 88.6396c-5 2.33008 -6.15039 6.81055 -6.84082 12.291c-3.44043 27.46 -4.85059 54.7295 -4.85059 83.7295z" />
    <glyph glyph-name="equal" unicode="=" horiz-adv-x="444" 
d="M34.8799 409.64c0 15.0996 0.311523 33.8096 1.12109 66.3594c31.75 1.5 192.13 2.25 225.38 2.25c33.96 0 122.67 -1.08008 156.62 -2.25c5.51953 0 9.68945 -4.49023 9.99902 -10c1 -17.8301 1 -37 1 -71c0 -17 -0.450195 -37.0303 -1 -59
c-21.7598 -1.03027 -148.13 -2.25 -181.38 -2.25c-33.96 0 -166.67 3.08008 -200.62 4.25c-5.51953 0 -10 4.48047 -10 10c-0.620117 28.9102 -1.12012 42.3105 -1.12012 61.6406zM34.8818 197.64c0 15.0996 0.311523 33.8193 1.12109 66.3594
c31.75 1.5 192.13 2.25 225.38 2.25c33.96 0 122.67 -1.08008 156.62 -2.25c5.51953 0 9.68945 -4.49023 9.99902 -10c0.55957 -9.94043 1 -28.9307 1 -55.1006c0 -20.7598 -0.280273 -46.0293 -1 -74.8994c-21.7598 -1.03027 -148.13 -2.25 -181.38 -2.25
c-33.96 0 -166.67 3.08008 -200.62 4.25c-5.51953 0 -10 4.48047 -10 10c-0.620117 28.9102 -1.12012 42.3105 -1.12012 61.6406z" />
    <glyph glyph-name="greater" unicode="&#x3e;" horiz-adv-x="408" 
d="M30.1104 206.22c19.29 10.1299 92.1787 43.7383 122.318 57.7881c13.96 6.50977 53.5703 25.0195 87.9805 36.1797c-40.9102 14.7197 -87.2598 36.8896 -101.35 43.46l-98.4502 47.0596c-6.09961 3 -9.83984 8.62012 -9.83984 15.29
c0 21.71 3.33984 110.72 10.3994 140.99c20.1602 -8.25977 142.2 -64.5693 172.33 -78.6191c30.7803 -14.3496 149.761 -73.2295 180.03 -88.6396c5 -2.33008 6.15039 -6.80957 6.84082 -12.29c3.44043 -27.46 4.85059 -54.7295 4.85059 -83.7295
c0 -19 -0.589844 -39.0195 -1.78027 -59.6094c-28.1396 -14.7803 -173.17 -83.2305 -203.31 -97.2803c-30.7803 -14.3496 -111.641 -50.8691 -142.9 -64.1592c-5 -2.33008 -10.96 -0.160156 -13.29 4.83984c-7.53027 16.1602 -13.8301 74.7197 -13.8301 138.72z" />
    <glyph glyph-name="question" unicode="?" horiz-adv-x="398" 
d="M96.1299 86.2803c0 22.2695 0.267578 44.5996 0.867188 68.7197c25.9404 1.23047 50.0508 1.73047 74.0312 1.73047c27.9502 0 55.71 -0.69043 85.9697 -1.73047c5.51953 0 9.88965 -4.48047 10 -10c0.530273 -27 0.860352 -51.7998 0.860352 -76.7197
c0 -22.1201 -0.259766 -44.3301 -0.859375 -68.2803c-18.0996 -0.919922 -36.1299 -1.32031 -54.3203 -1.32031c-34.2197 0 -68.9795 1.40039 -105.68 3.32031c-5.50977 0.290039 -10 4.48047 -10 10c-0.55957 26.1299 -0.869141 50.1602 -0.869141 74.2803zM13.998 585
c56.9902 13.7705 122.631 21.4004 183.431 21.4004c118.8 0 202.569 -32.4004 202.569 -146.4c0 -54 -27.6201 -96.0098 -61.3701 -131.25c-32.9502 -34.4102 -66.6299 -69.75 -67.6299 -128.75c-22.79 -1.44043 -48.79 -2.03027 -75.3896 -2.03027
c-31.46 0 -63.7695 0.820312 -92.6094 2.03027c-5.51953 0.230469 -10 4.48047 -10 10c0 142.75 131.01 172.7 131.01 224.34c0 21.7305 -17.1504 29.4805 -41.1406 29.4805c-50.75 0 -132.11 -34.6904 -146.37 -45.0205z" />
    <glyph glyph-name="at" unicode="@" horiz-adv-x="702" 
d="M444.99 296.67c0 -55.9297 3.98047 -64.1396 39.7803 -64.1396h18.5303v124.99h-12.2305c-24.46 0 -46.0801 -7.62012 -46.0801 -60.8506zM28 299.9c0 351.31 122.31 424.8 317.699 424.8c107.08 0 187.83 -5.58984 293.3 -23.3994
c20.9102 -3.53027 38.46 -17.3203 38.7002 -38.0205c1 -84.6299 1.7998 -216 1.7998 -306s-0.799805 -171.03 -1.7998 -261c-60.1602 -9.29004 -125.101 -15.3096 -175.501 -15.3096c-152.1 0 -239.899 19.3799 -239.899 213.01c0 170.81 88.6904 209.01 239.561 209.1
l-1.04004 68.6201h-166.82c-64.7305 0 -117.9 -26.9102 -117.9 -271.8s82.9502 -271.8 149.4 -271.8h275.4l18.9004 -142.2c-83.8301 -13.0996 -163.01 -20.0498 -235.13 -20.0498c-236.22 0 -396.67 92.04 -396.67 434.05z" />
    <glyph glyph-name="A" unicode="A" horiz-adv-x="520" 
d="M9.70996 8.25c0 2.32031 3.2002 21.1807 4.83984 31.291c29.6201 182.85 72.2598 376.239 109.35 560.459c44.6201 2.08984 90.6699 2.25 137.479 2.25c48.6104 0 95.1504 -0.620117 142.721 -2.25c5.51953 0 10.79 -4.48047 11.7598 -10
c37.8301 -191.47 84.6602 -395.83 114.04 -590c-31.4902 -1.5 -53.7305 -2.25 -86.9805 -2.25c-33.96 0 -63.8604 0.0800781 -98.0205 2.25c-5.50977 0.349609 -10.6699 4.5 -11.7598 10c-6.51953 32.9697 -12.5098 66.3496 -18.1094 100h-92.8701
c-5.50977 -36.96 -11.75 -73.6797 -19.0596 -110c-32.0098 -1.5 -49.5195 -2.25 -82.7695 -2.25c-33.96 0 -68.4902 1.08008 -102.23 2.25c-4.91992 -0 -8.38965 3.55957 -8.38965 8.25zM239.08 240l56.0518 -0.000976562l-30.8008 224.341
c-9.11035 -74.0596 -16.5605 -149.29 -25.251 -224.34z" />
    <glyph glyph-name="B" unicode="B" horiz-adv-x="516" 
d="M244.16 380.95h7.65137c30.7197 0 57.2002 14.1602 57.2002 42.3906c0 27.5195 -25.9805 40.0898 -51.4707 40.0898c-4.23047 0 -10.2607 -0.290039 -12.3809 -0.469727c-0.370117 -25.7305 -0.780273 -51.0605 -1 -82.0107zM245.302 232.38
c0.570312 -26.4697 1.2793 -53.5498 1.95898 -80.4297h16.5498c37.3799 0 52.2002 14.5596 52.2002 40.3896c0 23.4297 -18.6797 40.04 -45.1992 40.04h-25.5098zM48.001 313c0 100 1.99902 177.032 1.99902 277.002c66.8398 10.3301 139 17 195 17
c139 0 241 -11.5205 241 -173.671c0 -53.3203 -21.2695 -97.3701 -57.8994 -129.32c55.6699 -30.3799 87.9004 -74.7002 87.9004 -122.681c0 -159.27 -108 -186.329 -243 -186.329c-68 0 -143.06 3.83008 -213 11c-5.66992 1.51953 -10 6.47949 -10 11.999
c0 94.0303 -2 195 -2 295z" />
    <glyph glyph-name="C" unicode="C" horiz-adv-x="415" 
d="M26 300.33c0 235.15 106 306.672 275 306.672c41.1504 0 73.7402 -7.2998 114 -17l-21.3799 -156.75l-92.4297 6.12988c-36.4697 2.41992 -66.2002 -20.25 -66.2002 -139.05c0 -119.15 25.7803 -142.061 66.2002 -139.381l92.4297 6.12988l20.3799 -158.08
c-40.6699 -7.5498 -73.6504 -11 -115 -11c-168 0 -273 52.3096 -273 302.329z" />
    <glyph glyph-name="D" unicode="D" horiz-adv-x="526" 
d="M246 300c0 -48.6504 0.830078 -90.4512 1.74023 -132.051h17.0703c27.1797 0 46.1992 13.2305 46.1992 132.381c0 118.8 -19.0205 132.05 -46.2002 132.05h-16.8896c-0.969727 -41.4199 -1.91992 -83.71 -1.91992 -132.38zM48 299.999c0 100 2 190.029 2 289.999
c66.8398 10.3301 139 17 195 17c169 0 275 -71.5195 275 -306.67c0 -250.02 -105 -302.329 -273 -302.329c-55 0 -117.93 5.99023 -187 12c-5.51953 0 -10 4.48047 -10 10c0 94.0303 -2 180 -2 280z" />
    <glyph glyph-name="E" unicode="E" horiz-adv-x="454" 
d="M46 300c0 100 1.49805 200.002 3.99805 300.002c31.75 1.5 174.13 2.25 207.38 2.25c33.96 0 140.67 -1.08008 174.62 -2.25c5.51953 0 9.89941 -4.48047 9.99902 -10.001c0.540039 -30.4297 0.910156 -58.3398 0.910156 -86.4395
c0 -23.8203 -0.269531 -47.7803 -0.90918 -73.5605c-31.75 -1.5 -126 -2 -159 -2c-7.58008 0 -21.1797 0.139648 -38.1094 0.370117c-0.200195 -17.21 -0.390625 -34.6201 -0.541016 -52.5205c39.8701 -0.290039 94.1602 -0.969727 119.65 -1.84961
c5.51953 0 9.88965 -4.48047 10 -10c0.530273 -27.2197 0.860352 -51.0996 0.860352 -75.1699c0 -21.2998 -0.259766 -42.7598 -0.859375 -66.8301h-129.65c0.150391 -17.5801 0.350586 -34.8105 0.541016 -52.001h12.1104c34 0 143.05 -0.830078 177 -2
c5.51953 0 9.89941 -4.48047 9.99902 -10c0.540039 -30.4297 0.910156 -58.3301 0.910156 -86.4297c0 -23.8203 -0.269531 -47.79 -0.90918 -73.5703c-31.75 -1.5 -138.13 -2.25 -171.38 -2.25c-33.96 0 -178.67 3.08008 -212.62 4.25c-5.51953 0 -10 4.48047 -10 10
c-2 94 -4 190 -4 290z" />
    <glyph glyph-name="F" unicode="F" horiz-adv-x="420" 
d="M46 300c0 100 1.50098 200 4.00098 300c31.75 1.5 174.13 2.25 207.38 2.25c33.96 0 126.67 -1.08008 160.62 -2.25c5.51953 0 9.89941 -4.48047 9.99902 -10.001c0.540039 -30.4297 0.910156 -58.3398 0.910156 -86.4395
c0 -23.8203 -0.269531 -47.7803 -0.90918 -73.5605c-31.75 -1.5 -112.13 -2.25 -145.38 -2.25c-6.91992 0 -18.8301 0.129883 -33.7305 0.339844c-0.320312 -27.7695 -0.620117 -56.0791 -0.780273 -86.0996c38.8203 -0.389648 87.96 -1.15918 111.89 -1.98926
c5.51953 0 9.89941 -4.48047 9.99902 -10c0.540039 -30.4297 0.910156 -58.3301 0.910156 -86.4297c0 -23.8203 -0.269531 -47.79 -0.90918 -73.5703c-27.2695 -1.29004 -84.5 -2.02051 -121.18 -2.2002c0.549805 -55.9297 1.17969 -111.87 1.17969 -167.8
c-31.75 -1.5 -54.1299 -2.25 -87.3799 -2.25c-33.96 0 -68.6699 1.08008 -102.62 2.25c-5.51953 0 -10 4.48047 -10 10c-2 94 -4 190 -4 290z" />
    <glyph glyph-name="G" unicode="G" horiz-adv-x="502" 
d="M26 300.33c0 235.15 106 306.67 275 306.67c56 0 115.16 -6.66992 179 -17l-21 -158h-178c-27 0 -46.0098 -12.8701 -46.0098 -131.67c0 -119.15 23.0098 -132.33 51.0098 -132.33h20c0 40 -2.01953 100.42 -4 152c27.5 1.2998 53.0996 1.89941 79.0791 1.89941
c27.6299 0 55.6895 -0.679688 86.9199 -1.89941c5.51953 -0.219727 9.75977 -4.48926 10 -9.99902c2.0498 -46.21 4 -90.7998 4 -140c0 -46.7402 -1.83008 -113.25 -4 -153c-68.8896 -12.3701 -106.949 -19 -178.999 -19c-168 0 -273 52.3096 -273 302.329z" />
    <glyph glyph-name="H" unicode="H" horiz-adv-x="550" 
d="M46 300c0 100 1.5 200 4 300c31.75 1.5 54.1299 2.25 87.3799 2.25c33.96 0 68.6699 -1.08008 102.62 -2.25c5.51953 0 10 -4.48047 10 -10c1.45996 -68.6699 1.84961 -138.41 1.95996 -210h66c0 74.25 0.209961 146.67 2.04004 220c31.75 1.5 54.1299 2.25 87.3799 2.25
c33.96 0 68.6699 -1.08008 102.62 -2.25c5.51953 0 9.99902 -4.48047 9.99902 -10c2 -94 4 -190 4 -290s-1.5 -200 -4 -300c-31.75 -1.5 -54.1299 -2.25 -87.3799 -2.25c-33.96 0 -68.6699 1.08008 -102.62 2.25c-5.51953 0 -10 4.48047 -10 10
c-1.38965 65.4697 -1.80957 131.91 -1.93945 200h-66.0195c-0.00976562 -70 -0.290039 -140 -2.04004 -210c-31.75 -1.5 -54.1299 -2.25 -87.3799 -2.25c-33.96 0 -68.6699 1.08008 -102.62 2.25c-5.51953 0 -10 4.48047 -10 10c-2 94 -4 190 -4 290z" />
    <glyph glyph-name="I" unicode="I" horiz-adv-x="280" 
d="M46 300c0 100 1.5 200 4 300c31.75 1.5 54.1299 2.25 87.3799 2.25c33.96 0 68.6699 -1.08008 102.62 -2.25c5.51953 0 10 -4.48047 10 -10c2 -94 4 -190 4 -290s-1.5 -200 -4 -300c-31.75 -1.5 -54.1299 -2.25 -87.3799 -2.25c-33.96 0 -68.6699 1.08008 -102.62 2.25
c-5.51953 0 -10 4.48047 -10 10c-2 94 -4 190 -4 290z" />
    <glyph glyph-name="J" unicode="J" horiz-adv-x="434" 
d="M32 -4l7.37988 164.078l99.4297 -8.12988c40.3604 -3.5498 67.1904 6.65039 67.1904 105.051c0 50.2197 0.379883 110.79 1.07031 171.3c-51.5303 0.94043 -127.03 2.84082 -152.07 3.70117c-5.51953 0 -10 4.48047 -10 10
c-0.610352 28.8701 -0.959961 55.4297 -0.959961 82.0801c0 24.5996 0.290039 49.2695 0.959961 75.9199c31.75 1.5 186.13 2.25 219.38 2.25c33.96 0 101.67 -1.08008 135.62 -2.25c5.51953 0 10 -4.48047 10 -10.001c2 -94 4 -228 4 -327.67
c0 -230.02 -107 -279.329 -275 -279.329c-41.3496 0 -66.3301 5.4502 -107 13z" />
    <glyph glyph-name="K" unicode="K" horiz-adv-x="533" 
d="M46 300c0 100 1.49902 200 3.99902 300c31.75 1.5 54.1299 2.25 87.3799 2.25c33.96 0 68.6699 -1.08008 102.62 -2.25c5.51953 0 10 -4.48047 10 -10.001c0.25 -11.75 0.360352 -23.5303 0.360352 -35.3506c0 -54.1396 -2.29004 -109.01 -3.87988 -165
c7.07031 0.0898438 14.4404 0.189453 21.9307 0.279297l68.9902 202.48c1.95996 5.95996 9.66016 9.65039 15.29 10c26.5303 1.65039 53.5303 2.59082 80.3398 2.59082c35.7305 0 66.1406 -1.66992 99.6602 -5.58984c-17.6904 -75.7998 -45.0703 -159.7 -84.3398 -237
c-18.1797 -31.04 -43.21 -50.9697 -78 -53v-1.41016c34.79 -2.03027 62.8203 -21.96 81 -53c39.2695 -77.2998 65.6494 -179.2 83.3398 -255c-33.5195 -3.91992 -68.9297 -5.58984 -104.66 -5.58984c-26.8096 0 -53.8096 0.94043 -80.3398 2.59082
c-5.62988 0.349609 -13.3301 4.04004 -15.29 10c-24.3301 73.8301 -50.0801 167.14 -69.4902 237.819l-19.2598 -0.0400391c1.45996 -67.3096 4.86035 -134.609 4.86035 -201.919c0 -14.29 -0.150391 -28.5703 -0.510742 -42.8604
c-31.75 -1.5 -54.1299 -2.25 -87.3799 -2.25c-33.96 0 -68.6699 1.08008 -102.62 2.25c-5.51953 0 -10 4.48047 -10 10c-2 94 -4 190 -4 290z" />
    <glyph glyph-name="L" unicode="L" horiz-adv-x="410" 
d="M46 300c0 100 1.49902 200 3.99902 300c31.75 1.5 54.1299 2.25 87.3799 2.25c33.96 0 68.6699 -1.08008 102.62 -2.25c5.51953 0 10 -4.48047 10 -10c2 -94 4 -190 4 -290c0 -44.7998 -0.299805 -87.3896 -0.859375 -129.75h4.24023
c33.96 0 118.67 -1.08008 152.62 -2.25c5.51953 0 9.89941 -4.48047 9.99902 -10c0.540039 -30.4297 0.910156 -58.3301 0.910156 -86.4297c0 -23.8203 -0.269531 -47.79 -0.90918 -73.5703c-31.75 -1.5 -114.13 -2.25 -147.38 -2.25c-33.96 0 -178.67 3.08008 -212.62 4.25
c-5.51953 0 -10 4.48047 -10 10c-2 94 -4 190 -4 290z" />
    <glyph glyph-name="M" unicode="M" horiz-adv-x="696" 
d="M46 300c0 100 1.5 200 4 300c31.75 1.5 49.1299 2.25 82.3799 2.25c33.96 0 56.8701 -0.669922 86.6201 -2.25c5.50977 -0.290039 9.08008 -5.08008 11 -10l125.5 -256.02l125.5 256.02c3.25 4.2998 7.37988 9.2998 12.25 9.68945
c18.71 1.48047 42.4502 2.56055 70.1299 2.56055c33.96 0 64.6201 -1.08008 92.6201 -2.25c5.51953 -0.230469 10 -4.48047 10 -10.001c2 -94 4 -190 4 -290s-1.5 -200 -4 -300c-28.75 -1.5 -44.1299 -2.25 -77.3799 -2.25c-23.96 0 -58.6699 1.08008 -92.6201 2.25
c-5.51953 0 -10 4.48047 -10 10c-1.87988 88.5498 -5.54004 178.87 -5.95996 272.641l-114.04 -232.64l-11 -2l-10 2l-108.62 221.59l3.62012 -271.59c-31.75 -1.5 -49.1299 -2.25 -82.3799 -2.25c-23.96 0 -63.6699 1.08008 -97.6201 2.25c-5.51953 0 -10 4.48047 -10 10
c-2 94 -4 190 -4 290z" />
    <glyph glyph-name="N" unicode="N" horiz-adv-x="550" 
d="M46 300c0 100 1.50098 200 4.00098 300c31.75 1.5 49.1299 2.25 82.3799 2.25c28.96 0 55.1201 -1 86.6201 -2.25c5.51953 -0.219727 8.94922 -4.92969 10.999 -10l103.54 -255.9l-3.54004 265.9c31.75 1.5 54.1299 2.25 87.3799 2.25c33.96 0 62.9502 -1 92.6201 -2.25
c5.51953 -0.230469 10 -4.48047 10 -10c2 -94 4 -190 4 -290s-1.5 -200 -4 -300c-27.75 -1.58008 -44.1299 -2.25 -77.3799 -2.25c-29.96 0 -59.2002 0.669922 -91.6201 2.25c-5.50977 0.269531 -9 4.5 -11 10l-103.54 255.9l3.54004 -265.9
c-31.75 -1.5 -49.1299 -2.25 -82.3799 -2.25c-33.96 0 -65.4502 1.08008 -97.6201 2.25c-5.51953 0.200195 -10 4.48047 -10 10c-2 94 -4 190 -4 290z" />
    <glyph glyph-name="O" unicode="O" 
d="M26 300.33c0 196.25 87 299.67 228 306.67c190.38 0 280 -75.5498 280 -306.67c0 -196.46 -89 -299.33 -230 -306.33c-190.06 0 -278 74.8203 -278 306.33zM234.99 300.33c0 -119.15 19.0098 -132.33 46.0098 -132.33s44.0098 13.1797 44.0098 132.33
c0 118.8 -20.0098 131.67 -47.0098 131.67s-43.0098 -12.8701 -43.0098 -131.67z" />
    <glyph glyph-name="P" unicode="P" horiz-adv-x="516" 
d="M48 300c0 100 1.99902 192.03 1.99902 290c66.8398 10.3301 139 17 195 17c169 0 271 -21.5195 271 -236.67c0 -189.63 -100.58 -232.16 -267.96 -232.33c0.870117 -46 1.73047 -92 1.96094 -138c-29.1699 -1.25 -59 -2 -88 -2c-34 0 -67.8496 0.929688 -102 2
c-5.20996 0.110352 -10 4.48047 -10 10c0 94.0303 -2 190 -2 290zM245.999 301.95l15.8096 -0.000976562c27.1797 0 51.2002 6.24023 51.2002 65.3906c0 62.1396 -4.41992 69.04 -44.2002 69.04h-22.8096v-134.43z" />
    <glyph glyph-name="Q" unicode="Q" horiz-adv-x="532" 
d="M234.99 310.33c0 -119.15 15.0098 -122.33 42.0098 -122.33s40.0098 3.17969 40.0098 122.33c0 108.8 -16.0098 121.67 -43.0098 121.67s-39.0098 -12.8701 -39.0098 -121.67zM26 310.33c0 186.25 83 289.669 224 296.669c182.38 0 276 -75.5498 276 -296.67
c0 -195.77 -84.4004 -288.67 -224.5 -296.25c-0.179688 -0.639648 -0.30957 -1.26953 -0.30957 -1.90918v-0.259766c0 -10.5098 22.0596 -21.0498 60.8096 -21.0498c7.25 0 14.8896 0.330078 23.1797 1.08984l87.8203 8.0498l20 -154
c-40.6699 -7.5498 -95.6494 -13 -136.999 -13c-105.16 0 -197.79 65.4404 -197.79 136.71c0 19.3301 6.80957 39.0801 22.0293 58.0801c-102.57 29.1201 -154.24 108.99 -154.24 282.54z" />
    <glyph glyph-name="R" unicode="R" horiz-adv-x="526" 
d="M48 313c0 100 2.00195 177.028 2.00195 276.998c66.8398 10.3301 149 17 205 17c149 0 251 -11.5205 251 -173.671c0 -73.6104 -40.5303 -129.53 -106.061 -160.38c23.04 -8.03027 41.9404 -24.9404 55.4102 -47.9502c39.2695 -77.2998 61.6494 -149.2 79.3398 -225
c-33.5195 -3.91992 -68.9297 -5.58984 -104.66 -5.58984c-26.8096 0 -53.8096 0.94043 -80.3398 2.59082c-5.62988 0.349609 -13.3301 4.04004 -15.29 10c-28.04 85.0898 -55.4502 170.84 -75.7305 239c-4.33008 0 -8.7002 0.0302734 -13.1201 0.0605469
c1.21973 -81.6797 4.05957 -167.85 4.44922 -246.06c-29.1699 -1.25 -58.3896 -1.76953 -87.6592 -1.76953c-34.0703 0 -68.1904 0.700195 -102.341 1.77051c-5.79004 0 -10 4.48047 -10 10c0 94.0303 -2 203 -2 303zM245.102 368.998h16.9004
c31.8096 0 53.0098 17.3398 53.0098 43.3398c0 30.8604 -10 48.1299 -45.5898 48.1299c-8.04004 0 -16.4502 -0.379883 -23.8105 -0.830078c-0.179688 -29.2803 -0.389648 -58.21 -0.509766 -90.6396z" />
    <glyph glyph-name="S" unicode="S" horiz-adv-x="492" 
d="M34 6l24.501 180.8c70 -22 132 -34.8496 177.31 -34.8496c37.3799 0 53.2002 19.5596 53.2002 35.3896c0 20.1299 -28.8203 28.2803 -67.0508 39.1006c-75.2598 21.3096 -186.96 52.9893 -186.96 206.89c0 162.15 100 173.67 237 173.67c58 0 126.16 -8.66992 193 -22
l-22.5 -166.2c-46.7695 21.0498 -118 40.5801 -180.31 40.5801c-30.2598 0 -50.2002 -9.54004 -50.2002 -28.04c0 -17.4004 30.7598 -26.6807 71.8096 -38.9902c82.3701 -24.71 206.2 -61.6504 206.2 -201.021c0 -159.27 -110 -196.329 -245 -196.329
c-68 0 -141.06 3.83008 -211 11z" />
    <glyph glyph-name="T" unicode="T" horiz-adv-x="460" 
d="M15.04 524.08c0 24.5996 0.289062 49.2676 0.958984 75.918c31.75 1.5 198.13 2.25 231.38 2.25c33.96 0 172.67 -1.08008 206.62 -2.25c5.51953 0 9.88965 -4.48047 10 -10c0.540039 -28.2695 0.910156 -56.3496 0.910156 -85.0693
c0 -24.3398 -0.269531 -49.1494 -0.90918 -74.9297c-16.5098 -0.780273 -69.4297 -1.35059 -121.1 -1.73047c0.660156 -40.3799 1.10059 -81.7295 1.10059 -128.27c0 -100 -1.5 -200 -4 -300c-31.75 -1.5 -54.1299 -2.25 -87.3799 -2.25
c-33.96 0 -68.6699 1.08008 -102.62 2.25c-5.51953 0 -10 4.48047 -10 10c-2 94 -4 190 -4 290c0 46.0303 0.30957 87.8301 0.899414 129.28c-45.6104 0.950195 -92.9307 2.10059 -110.9 2.7207c-5.51953 0 -10 4.48047 -10 10
c-0.610352 28.8701 -0.959961 55.4297 -0.959961 82.0801z" />
    <glyph glyph-name="U" unicode="U" horiz-adv-x="528" 
d="M27 296.33c0 99.6699 1.5 203.67 4 303.67c31.75 1.5 54.1299 2.25 87.3799 2.25c33.96 0 68.6699 -1.08008 102.62 -2.25c5.51953 0 10 -4.48047 10 -10c2 -94 4 -224 4 -324c0 -88.8203 13 -102 40 -102s38 13.1797 38 102.33c0 99.6699 1.5 233.67 4 333.67
c31.75 1.5 54.1299 2.25 87.3799 2.25c33.96 0 68.6699 -1.08008 102.62 -2.25c5.51953 0 10 -4.48047 10 -10c2 -94 4 -194 4 -293.67c0 -216.46 -82 -299.33 -223 -306.33c-180.06 0 -271 54.8203 -271 306.33z" />
    <glyph glyph-name="V" unicode="V" horiz-adv-x="505" 
d="M5.87012 600c31.4902 1.5 57.7217 2.25 90.9717 2.25c33.96 0 63.8604 -0.0800781 98.0205 -2.25c5.50977 -0.349609 10.6797 -4.5 11.7695 -10c24.7197 -125.08 41.79 -251.72 59.3799 -378.46c17.7695 129.14 34.6191 259.14 60.6494 388.46
c32.0098 1.5 48.5195 2.25 77.7695 2.25c33.96 0 72.4902 -1.08008 106.23 -2.25c4.91992 0 8.38965 -3.55957 8.38965 -8.25c0 -4.36035 -3.20996 -21.25 -4.83984 -31.4004c-29.4502 -182.82 -70.5801 -376.17 -113.351 -560.35
c-42.1504 -1.96973 -82.9307 -2.25 -127.471 -2.25c-46.8496 0 -91.7793 0.669922 -137.729 2.25c-5.51953 0 -10.5098 4.54004 -11.7598 10c-43.8301 191.47 -88.6504 395.83 -118.03 590z" />
    <glyph glyph-name="W" unicode="W" horiz-adv-x="682" 
d="M5.87012 600c31.4902 1.5 57.7207 2.25195 90.9707 2.25195c33.96 0 63.8604 -0.0800781 98.0205 -2.25c5.50977 -0.349609 10.6797 -4.5 11.7695 -10c16.4697 -83.3301 28.0195 -167.35 38.75 -251.63c18.3096 74.8896 43.2793 171.62 63.6191 230.63l47 2l46 -2
c20.7998 -58.1904 45.1699 -152.44 63.1396 -226.65c11.21 85.8799 22.6396 171.92 36.5195 257.649c32.0098 1.5 56.5195 2.25 79.7695 2.25c33.96 0 72.4902 -1.08008 106.23 -2.25c5.00977 0 8.33984 -3.66016 8.33984 -8.48047
c0 -3.44043 -2.88965 -21.29 -4.38965 -31.5498c-26.7197 -182.71 -66.2695 -375.91 -113.75 -559.97c-32.0098 -1.5 -113.859 -3 -146.859 -3c-23.1104 80.1396 -53.04 160.05 -75.6396 242.88c-23.4199 -82.1904 -56.21 -161.73 -79.3604 -242.881
c-34 0 -106.18 1.83008 -140.34 3c-5.51953 0 -10.3799 4.57031 -11.7598 10c-48.8301 191.47 -91.6504 395.83 -118.03 590z" />
    <glyph glyph-name="X" unicode="X" horiz-adv-x="530" 
d="M19 0c18.25 86.7598 61.0195 285.541 150.35 328.001v1.41016c-62.3301 19.1299 -131.29 196.899 -148.35 269.999c33.5195 3.91992 63.9199 5.58984 99.6602 5.58984c26.8096 0 53.8096 -0.94043 80.3398 -2.59082c5.62988 -0.349609 13.3301 -4.04004 15.29 -10
c19.8096 -60.1201 40.5596 -115.55 58.3398 -166.35c18.3701 50.7998 39.96 106.229 59.7695 166.35c1.95996 5.95996 9.66016 9.65039 15.29 10c26.5303 1.65039 53.5303 2.59082 80.3398 2.59082c35.7305 0 66.1406 -1.66992 99.6602 -5.58984
c-17.1299 -73.4004 -83.6699 -252.87 -148.34 -270v-1.41016c93.6699 -57.46 128.49 -239.3 150.34 -328c-33.5195 -3.91992 -68.9297 -5.58984 -104.66 -5.58984c-26.8096 0 -53.8096 0.94043 -80.3398 2.59082c-5.62988 0.349609 -13.3301 4.04004 -15.29 10
c-19.0596 57.8301 -38.9795 135.35 -56.0498 202.689c-17.0703 -67.3398 -37 -144.859 -56.0596 -202.689c-1.95996 -5.95996 -9.66016 -9.65039 -15.29 -10c-26.5303 -1.65039 -53.5303 -2.59082 -80.3398 -2.59082c-35.7402 0 -71.1406 1.66992 -104.66 5.58984z" />
    <glyph glyph-name="Y" unicode="Y" horiz-adv-x="525" 
d="M8 596.41c33.5195 3.91992 68.9307 5.58984 104.661 5.58984c26.8096 0 53.8096 -0.94043 80.3398 -2.59082c5.62988 -0.349609 13.3301 -4.04004 15.29 -10c22.1201 -67.1299 45.4102 -150.35 64.0498 -218.029c18.6396 67.6797 41.9395 150.899 64.0596 218.029
c1.95996 5.95996 9.66016 9.65039 15.29 10c26.5303 1.65039 53.5303 2.59082 80.3398 2.59082c35.7402 0 71.1406 -1.66992 104.66 -5.58984c-17.6904 -75.7998 -44.0703 -177.7 -83.3398 -255c-22.8398 -39.0195 -51.04 -69.6299 -80.79 -94.0996
c0.929688 -82.4404 2.0293 -164.87 2.43945 -247.311c-31.75 -1.5 -56.1299 -2.25 -89.3799 -2.25c-33.96 0 -70.6699 1.08008 -104.62 2.25c-5.51953 0 -10 4.48047 -10 10c0 77.3203 0.669922 156 1.46973 237.14c-29.7803 24.5303 -58.1104 54.9707 -81.1201 94.2705
c-39.2695 77.2998 -65.6592 179.2 -83.3496 255z" />
    <glyph glyph-name="Z" unicode="Z" horiz-adv-x="444" 
d="M29.04 524.08c0 24.5996 0.291016 49.2695 0.960938 75.9199c31.75 1.5 184.13 2.25 217.38 2.25c33.96 0 140.67 -1.08008 174.62 -2.25c5.51953 0 10 -4.48047 10 -10.001v-100c-35.5498 -69.6504 -111.24 -213.83 -176.681 -319.76
c40.5 -0.129883 137.05 -1.14941 168.68 -2.23926c5.51953 0 9.89941 -4.48047 9.99902 -10c0.540039 -29.8896 0.910156 -57.8301 0.910156 -86.0898c0 -23.9502 -0.269531 -48.1299 -0.90918 -73.9102c-31.75 -1.5 -138.13 -2.25 -171.38 -2.25
c-33.96 0 -188.67 3.08008 -222.62 4.25c-5.51953 0 -10 4.48047 -10 10c-0.459961 21.5596 -0.719727 41.3994 -0.719727 61.2998c0 18.3701 0.219727 36.7998 0.719727 56.7002c51.21 100.88 113.8 198.1 174.77 300.59c-61.3799 1 -142.14 2.62988 -164.77 3.41016
c-5.51953 0 -10 4.48047 -10 10c-0.610352 28.8701 -0.959961 55.4297 -0.959961 82.0801z" />
    <glyph glyph-name="bracketleft" unicode="[" horiz-adv-x="340" 
d="M46 300c0 108.62 1.23242 282.799 3.32227 389.019c0.169922 9.24023 0.389648 19.46 0.679688 30.9795c31.75 1.5 112.13 2.25 145.38 2.25c33.96 0 102.67 -1.08008 136.62 -2.25c5.51953 0 9.86914 -4.48047 9.99902 -10
c0.290039 -12.54 0.629883 -45.8398 0.629883 -80.3496c0 -24.2002 -0.160156 -48.9902 -0.629883 -67.6504c-14.9404 -0.709961 -65.0303 -1.5 -105.73 -1.92969c1.00977 -88.3799 1.72949 -187.95 1.72949 -260.07c0 -71.5898 -0.540039 -171.649 -1.5 -261.959
c32.0801 -0.370117 70.5098 -1.17969 95.5 -2.04004c5.51953 0 9.78906 -4.48047 9.99902 -10c0.540039 -13.9297 0.900391 -39.8096 0.900391 -69.3691c0 -25.25 -0.259766 -53.1699 -0.899414 -78.6299c-21.7598 -1.03027 -128.13 -2.25 -161.38 -2.25
c-33.96 0 -90.79 2.75 -120.62 4.25c-5.50977 0.280273 -10 4.48047 -10 10c-2 94 -4 290 -4 410z" />
    <glyph glyph-name="backslash" unicode="\" horiz-adv-x="374" 
d="M-5.00977 643.2c0 3.96973 2.41016 6.6416 6.82031 6.80176c32.5195 1.16992 63.8496 2.25 97.8096 2.25c33.25 0 55.8896 -0.75 88.1895 -2.25c37.7598 -97.0898 79.0195 -227.149 114.09 -347.02c33.0098 -112.82 65.0596 -226.66 89.2793 -318.601
c2.2998 -8.73047 6.80957 -23.4707 6.80957 -27.541c0 -3.99023 -2.37012 -6.68066 -6.7998 -6.84082c-31.5195 -1.16992 -60.8496 -2.25 -94.8096 -2.25c-33.25 0 -55.8896 0.75 -88.1895 2.25c-37.7598 97.0898 -80.0498 226.72 -116.09 346.02
c-33.7197 111.61 -66.3496 231.681 -91.5498 325.081c-1.88965 7 -5.55957 19.6699 -5.55957 22.0996z" />
    <glyph glyph-name="bracketright" unicode="]" horiz-adv-x="340" 
d="M16.9805 648.36c0 20.3301 0.289062 42.4893 1.01953 71.6396c31.75 1.5 118.13 2.25 151.38 2.25c33.96 0 96.6699 -1.08008 130.62 -2.25c5.51953 0 10 -4.48047 10 -10c2 -94 4 -290 4 -410s-1.5 -322 -4 -422c-21.7598 -1.03027 -122.13 -2.25 -155.38 -2.25
c-33.96 0 -96.04 2.83008 -126.62 4.25c-5.50977 0.25 -10 4.48047 -10 10v146l105.76 1.46973c-1.03027 88.9902 -1.76074 189.74 -1.76074 262.53c0 71.21 0.530273 170.6 1.48047 260.54c-33.3496 0.990234 -72.4297 2.66992 -95.4795 3.45996
c-5.51953 0 -10 4.48047 -10 10c-0.599609 28.1201 -1.01953 49.9102 -1.01953 74.3604z" />
    <glyph glyph-name="asciicircum" unicode="^" horiz-adv-x="454" 
d="M27.75 384.65c25.3203 49.2402 99.9863 154.75 135.637 203c3.70996 5.01953 9.62988 10.71 15.29 11c30.8896 1.57031 51.2295 2.37988 71.1895 2.37988c14.9502 0 29.6807 -0.450195 48.4707 -1.37988c38.2002 -42.9297 122.33 -149.04 160.271 -202
c3.92969 -5.49023 2.58008 -10 -2.93945 -10c-29.5195 -1.04004 -54.4893 -1.73047 -80.2988 -1.73047c-22.1396 0 -44.8994 0.5 -71.6992 1.72949c-27.29 37.3604 -44.5703 68.8008 -61.9707 102.711c-14.6797 -31.5 -30.7598 -62.8799 -48.6602 -95.71
c-2.99023 -5.48047 -9.77051 -10 -15.29 -10c-30.8096 -1.04004 -56.0498 -1.73047 -81.3193 -1.73047c-21.6797 0 -43.3896 0.5 -68.6797 1.73047z" />
    <glyph glyph-name="underscore" unicode="_" horiz-adv-x="398" 
d="M18.8799 -82.71c0 18.9902 0.310547 40.1699 1.12012 72.71c31.75 1.5 188.13 2.25 221.38 2.25c33.96 0 112.67 -1.08008 146.62 -2.25c5.51953 0 9.81934 -4.48047 9.99902 -10c0.75 -23.0801 1 -35 1 -85c0 -20 -0.459961 -41.3096 -1 -63
c-21.7598 -1.03027 -138.13 -2.25 -171.38 -2.25c-33.96 0 -162.67 3.08008 -196.62 4.25c-5.51953 0 -9.86914 4.48047 -9.99902 10c-0.620117 25.9102 -1.12012 48.9902 -1.12012 73.29z" />
    <glyph glyph-name="grave" unicode="`" horiz-adv-x="300" 
d="M33.75 645c25.29 1.23047 49.1318 1.73047 73.1123 1.73047c27.9502 0 56.0801 -0.69043 86.8896 -1.73047c5.51953 0 12.3691 -4.48047 15.2891 -10l76.7002 -145c-55.2402 0 -103.311 1.05957 -161.061 4c-5.66016 0.290039 -12.3701 4.48047 -15.29 10
c-27.6504 50.25 -50.3203 90.7598 -75.6406 141z" />
    <glyph glyph-name="a" unicode="a" horiz-adv-x="520" 
d="M9.70996 8.25c0 2.32031 3.2002 21.1797 4.83984 31.29c29.6201 182.85 72.2598 376.24 109.351 560.46c44.6191 2.08984 90.6699 2.25 137.479 2.25c48.6104 0 95.1504 -0.620117 142.72 -2.25c5.52051 0 10.79 -4.48047 11.7607 -10
c37.8301 -191.47 84.6592 -395.83 114.04 -590c-31.4902 -1.5 -53.7305 -2.25 -86.9805 -2.25c-33.96 0 -63.8604 0.0800781 -98.0195 2.25c-5.51074 0.349609 -10.6699 4.5 -11.7607 10c-6.51953 32.9697 -12.5098 66.3496 -18.1094 100h-92.8701
c-5.50977 -36.96 -11.75 -73.6797 -19.0605 -110c-32.0098 -1.5 -49.5195 -2.25 -82.7695 -2.25c-33.96 0 -68.4902 1.08008 -102.23 2.25c-4.91992 0 -8.38965 3.55957 -8.38965 8.25zM239.08 240h56.0498l-30.7998 224.34
c-9.11035 -74.0596 -16.5605 -149.29 -25.25 -224.34z" />
    <glyph glyph-name="b" unicode="b" horiz-adv-x="516" 
d="M244.16 380.95h7.64941c30.7207 0 57.2002 14.1602 57.2002 42.3896c0 27.5205 -25.9795 40.0898 -51.4697 40.0898c-4.23047 0 -10.2598 -0.290039 -12.3799 -0.469727c-0.370117 -25.7295 -0.780273 -51.0596 -1 -82.0098zM245.3 232.38
c0.570312 -26.4697 1.28027 -53.5498 1.95996 -80.4297h16.5498c37.3809 0 52.2002 14.5596 52.2002 40.3896c0 23.4297 -18.6797 40.04 -45.2002 40.04h-25.5098zM48 313c0 100 2 177.03 2 277c66.8398 10.3301 139 17 195 17c139 0 241 -11.5195 241 -173.67
c0 -53.3203 -21.2695 -97.3701 -57.9004 -129.32c55.6699 -30.3799 87.9004 -74.7002 87.9004 -122.68c0 -159.271 -108 -186.33 -243 -186.33c-68 0 -143.06 3.83008 -213 11c-5.66992 1.51953 -10 6.48047 -10 12c0 94.0303 -2 195 -2 295z" />
    <glyph glyph-name="c" unicode="c" horiz-adv-x="415" 
d="M26 300.33c0 235.15 106 306.67 275 306.67c41.1504 0 73.7402 -7.2998 114 -17l-21.3799 -156.75l-92.4297 6.12988c-36.4707 2.41992 -66.2002 -20.25 -66.2002 -139.05c0 -119.15 25.7793 -142.061 66.2002 -139.38l92.4297 6.12988l20.3799 -158.08
c-40.6699 -7.5498 -73.6504 -11 -115 -11c-168 0 -273 52.3096 -273 302.33z" />
    <glyph glyph-name="d" unicode="d" horiz-adv-x="526" 
d="M246 300c0 -48.6504 0.830078 -90.4502 1.74023 -132.05h17.0693c27.1807 0 46.2002 13.2295 46.2002 132.38c0 118.8 -19.0195 132.05 -46.2002 132.05h-16.8896c-0.969727 -41.4199 -1.91992 -83.71 -1.91992 -132.38zM48 300c0 100 2 190.03 2 290
c66.8398 10.3301 139 17 195 17c169 0 275 -71.5195 275 -306.67c0 -250.021 -105 -302.33 -273 -302.33c-55 0 -117.93 5.99023 -187 12c-5.51953 0 -10 4.48047 -10 10c0 94.0303 -2 180 -2 280z" />
    <glyph glyph-name="e" unicode="e" horiz-adv-x="454" 
d="M46 300c0 100 1.5 200 4 300c31.75 1.5 174.13 2.25 207.38 2.25c33.96 0 140.67 -1.08008 174.62 -2.25c5.51953 0 9.90039 -4.48047 10 -10c0.540039 -30.4297 0.910156 -58.3398 0.910156 -86.4404c0 -23.8193 -0.270508 -47.7793 -0.910156 -73.5596
c-31.75 -1.5 -126 -2 -159 -2c-7.58008 0 -21.1797 0.139648 -38.1104 0.370117c-0.199219 -17.21 -0.389648 -34.6201 -0.540039 -52.5205c39.8701 -0.290039 94.1602 -0.969727 119.65 -1.84961c5.51953 0 9.88965 -4.48047 10 -10
c0.530273 -27.2197 0.860352 -51.0996 0.860352 -75.1699c0 -21.2998 -0.260742 -42.7598 -0.860352 -66.8301h-129.65c0.150391 -17.5801 0.350586 -34.8096 0.540039 -52h12.1104c34 0 143.05 -0.830078 177 -2c5.51953 0 9.90039 -4.48047 10 -10
c0.540039 -30.4297 0.910156 -58.3301 0.910156 -86.4297c0 -23.8203 -0.270508 -47.79 -0.910156 -73.5703c-31.75 -1.5 -138.13 -2.25 -171.38 -2.25c-33.96 0 -178.67 3.08008 -212.62 4.25c-5.51953 0 -10 4.48047 -10 10c-2 94 -4 190 -4 290z" />
    <glyph glyph-name="f" unicode="f" horiz-adv-x="420" 
d="M46 300c0 100 1.5 200 4 300c31.75 1.5 174.13 2.25 207.38 2.25c33.96 0 126.67 -1.08008 160.62 -2.25c5.51953 0 9.90039 -4.48047 10 -10c0.540039 -30.4297 0.910156 -58.3398 0.910156 -86.4404c0 -23.8193 -0.270508 -47.7793 -0.910156 -73.5596
c-31.75 -1.5 -112.13 -2.25 -145.38 -2.25c-6.91992 0 -18.8301 0.129883 -33.7305 0.339844c-0.319336 -27.7695 -0.620117 -56.0801 -0.779297 -86.0996c38.8193 -0.390625 87.96 -1.16016 111.89 -1.99023c5.51953 0 9.90039 -4.48047 10 -10
c0.540039 -30.4297 0.910156 -58.3301 0.910156 -86.4297c0 -23.8203 -0.270508 -47.79 -0.910156 -73.5703c-27.2695 -1.29004 -84.5 -2.01953 -121.18 -2.2002c0.549805 -55.9297 1.17969 -111.87 1.17969 -167.8c-31.75 -1.5 -54.1299 -2.25 -87.3799 -2.25
c-33.96 0 -68.6699 1.08008 -102.62 2.25c-5.51953 0 -10 4.48047 -10 10c-2 94 -4 190 -4 290z" />
    <glyph glyph-name="g" unicode="g" horiz-adv-x="502" 
d="M26 300.33c0 235.15 106 306.67 275 306.67c56 0 115.16 -6.66992 179 -17l-21 -158h-178c-27 0 -46.0098 -12.8701 -46.0098 -131.67c0 -119.15 23.0098 -132.33 51.0098 -132.33h20c0 40 -2.01953 100.42 -4 152c27.5 1.2998 53.0996 1.90039 79.0801 1.90039
c27.6299 0 55.6895 -0.680664 86.9199 -1.90039c5.51953 -0.219727 9.75977 -4.49023 10 -10c2.0498 -46.21 4 -90.7998 4 -140c0 -46.7402 -1.83008 -113.25 -4 -153c-68.8896 -12.3701 -106.95 -19 -179 -19c-168 0 -273 52.3096 -273 302.33z" />
    <glyph glyph-name="h" unicode="h" horiz-adv-x="550" 
d="M46 300c0 100 1.5 200 4 300c31.75 1.5 54.1299 2.25 87.3799 2.25c33.96 0 68.6699 -1.08008 102.62 -2.25c5.51953 0 10 -4.48047 10 -10c1.45996 -68.6699 1.84961 -138.41 1.95996 -210h66c0 74.25 0.209961 146.67 2.04004 220c31.75 1.5 54.1299 2.25 87.3799 2.25
c33.96 0 68.6699 -1.08008 102.62 -2.25c5.51953 0 10 -4.48047 10 -10c2 -94 4 -190 4 -290s-1.5 -200 -4 -300c-31.75 -1.5 -54.1299 -2.25 -87.3799 -2.25c-33.96 0 -68.6699 1.08008 -102.62 2.25c-5.51953 0 -10 4.48047 -10 10
c-1.38965 65.4697 -1.80957 131.91 -1.94043 200h-66.0195c-0.00976562 -70 -0.290039 -140 -2.04004 -210c-31.75 -1.5 -54.1299 -2.25 -87.3799 -2.25c-33.96 0 -68.6699 1.08008 -102.62 2.25c-5.51953 0 -10 4.48047 -10 10c-2 94 -4 190 -4 290z" />
    <glyph glyph-name="i" unicode="i" horiz-adv-x="280" 
d="M46 300c0 100 1.5 200 4 300c31.75 1.5 54.1299 2.25 87.3799 2.25c33.96 0 68.6699 -1.08008 102.62 -2.25c5.51953 0 10 -4.48047 10 -10c2 -94 4 -190 4 -290s-1.5 -200 -4 -300c-31.75 -1.5 -54.1299 -2.25 -87.3799 -2.25c-33.96 0 -68.6699 1.08008 -102.62 2.25
c-5.51953 0 -10 4.48047 -10 10c-2 94 -4 190 -4 290z" />
    <glyph glyph-name="j" unicode="j" horiz-adv-x="434" 
d="M32 -4l7.37988 164.08l99.4297 -8.12988c40.3604 -3.5498 67.1904 6.64941 67.1904 105.05c0 50.2197 0.379883 110.79 1.07031 171.3c-51.5303 0.94043 -127.03 2.83984 -152.07 3.7002c-5.51953 0 -10 4.48047 -10 10
c-0.610352 28.8701 -0.959961 55.4297 -0.959961 82.0801c0 24.5996 0.290039 49.2695 0.959961 75.9199c31.75 1.5 186.13 2.25 219.38 2.25c33.96 0 101.67 -1.08008 135.62 -2.25c5.51953 0 10 -4.48047 10 -10c2 -94 4 -228 4 -327.67
c0 -230.021 -107 -279.33 -275 -279.33c-41.3496 0 -66.3301 5.4502 -107 13z" />
    <glyph glyph-name="k" unicode="k" horiz-adv-x="533" 
d="M46 300c0 100 1.5 200 4 300c31.75 1.5 54.1299 2.25 87.3799 2.25c33.96 0 68.6699 -1.08008 102.62 -2.25c5.51953 0 10 -4.48047 10 -10c0.25 -11.75 0.360352 -23.5303 0.360352 -35.3496c0 -54.1406 -2.29004 -109.011 -3.87988 -165
c7.06934 0.0898438 14.4395 0.189453 21.9297 0.279297l68.9902 202.48c1.95996 5.95996 9.65918 9.64941 15.29 10c26.5293 1.64941 53.5293 2.58984 80.3398 2.58984c35.7295 0 66.1396 -1.66992 99.6602 -5.58984c-17.6904 -75.7998 -45.0703 -159.7 -84.3408 -237
c-18.1797 -31.04 -43.21 -50.9697 -78 -53v-1.41016c34.79 -2.03027 62.8203 -21.96 81 -53c39.2705 -77.2998 65.6504 -179.2 83.3408 -255c-33.5205 -3.91992 -68.9307 -5.58984 -104.66 -5.58984c-26.8105 0 -53.8105 0.939453 -80.3398 2.58984
c-5.63086 0.349609 -13.3301 4.04004 -15.29 10c-24.3301 73.8301 -50.0801 167.14 -69.4902 237.82l-19.2598 -0.0400391c1.45996 -67.3105 4.85938 -134.61 4.85938 -201.92c0 -14.29 -0.149414 -28.5703 -0.509766 -42.8604c-31.75 -1.5 -54.1299 -2.25 -87.3799 -2.25
c-33.96 0 -68.6699 1.08008 -102.62 2.25c-5.51953 0 -10 4.48047 -10 10c-2 94 -4 190 -4 290z" />
    <glyph glyph-name="l" unicode="l" horiz-adv-x="410" 
d="M46 300c0 100 1.5 200 4 300c31.75 1.5 54.1299 2.25 87.3799 2.25c33.96 0 68.6699 -1.08008 102.62 -2.25c5.51953 0 10 -4.48047 10 -10c2 -94 4 -190 4 -290c0 -44.7998 -0.299805 -87.3896 -0.860352 -129.75h4.24023c33.96 0 118.67 -1.08008 152.62 -2.25
c5.51953 0 9.90039 -4.48047 10 -10c0.540039 -30.4297 0.910156 -58.3301 0.910156 -86.4297c0 -23.8203 -0.270508 -47.79 -0.910156 -73.5703c-31.75 -1.5 -114.13 -2.25 -147.38 -2.25c-33.96 0 -178.67 3.08008 -212.62 4.25c-5.51953 0 -10 4.48047 -10 10
c-2 94 -4 190 -4 290z" />
    <glyph glyph-name="m" unicode="m" horiz-adv-x="696" 
d="M46 300c0 100 1.5 200 4 300c31.75 1.5 49.1299 2.25 82.3799 2.25c33.96 0 56.8701 -0.669922 86.6201 -2.25c5.50977 -0.290039 9.08008 -5.08008 11 -10l125.5 -256.02l125.5 256.02c3.25 4.2998 7.37988 9.2998 12.25 9.69043
c18.71 1.47949 42.4502 2.55957 70.1299 2.55957c33.96 0 64.6201 -1.08008 92.6201 -2.25c5.51953 -0.230469 10 -4.48047 10 -10c2 -94 4 -190 4 -290s-1.5 -200 -4 -300c-28.75 -1.5 -44.1299 -2.25 -77.3799 -2.25c-23.96 0 -58.6699 1.08008 -92.6201 2.25
c-5.51953 0 -10 4.48047 -10 10c-1.87988 88.5498 -5.54004 178.87 -5.95996 272.64l-114.04 -232.64l-11 -2l-10 2l-108.62 221.59l3.62012 -271.59c-31.75 -1.5 -49.1299 -2.25 -82.3799 -2.25c-23.96 0 -63.6699 1.08008 -97.6201 2.25c-5.51953 0 -10 4.48047 -10 10
c-2 94 -4 190 -4 290z" />
    <glyph glyph-name="n" unicode="n" horiz-adv-x="550" 
d="M46 300c0 100 1.5 200 4 300c31.75 1.5 49.1299 2.25 82.3799 2.25c28.96 0 55.1201 -1 86.6201 -2.25c5.51953 -0.219727 8.9502 -4.92969 11 -10l103.54 -255.9l-3.54004 265.9c31.75 1.5 54.1299 2.25 87.3799 2.25c33.96 0 62.9502 -1 92.6201 -2.25
c5.51953 -0.230469 10 -4.48047 10 -10c2 -94 4 -190 4 -290s-1.5 -200 -4 -300c-27.75 -1.58008 -44.1299 -2.25 -77.3799 -2.25c-29.96 0 -59.2002 0.669922 -91.6201 2.25c-5.50977 0.269531 -9 4.5 -11 10l-103.54 255.9l3.54004 -265.9
c-31.75 -1.5 -49.1299 -2.25 -82.3799 -2.25c-33.96 0 -65.4502 1.08008 -97.6201 2.25c-5.51953 0.200195 -10 4.48047 -10 10c-2 94 -4 190 -4 290z" />
    <glyph glyph-name="o" unicode="o" 
d="M26 300.33c0 196.25 87 299.67 228 306.67c190.38 0 280 -75.5498 280 -306.67c0 -196.46 -89 -299.33 -230 -306.33c-190.06 0 -278 74.8203 -278 306.33zM234.99 300.33c0 -119.15 19.0098 -132.33 46.0098 -132.33s44.0098 13.1797 44.0098 132.33
c0 118.8 -20.0098 131.67 -47.0098 131.67s-43.0098 -12.8701 -43.0098 -131.67z" />
    <glyph glyph-name="p" unicode="p" horiz-adv-x="516" 
d="M48 300c0 100 2 192.03 2 290c66.8398 10.3301 139 17 195 17c169 0 271 -21.5195 271 -236.67c0 -189.63 -100.58 -232.16 -267.96 -232.33c0.870117 -46 1.72949 -92 1.95996 -138c-29.1699 -1.25 -59 -2 -88 -2c-34 0 -67.8496 0.929688 -102 2
c-5.20996 0.110352 -10 4.48047 -10 10c0 94.0303 -2 190 -2 290zM246 301.95h15.8096c27.1807 0 51.2002 6.24023 51.2002 65.3896c0 62.1406 -4.41992 69.04 -44.2002 69.04h-22.8096v-134.43z" />
    <glyph glyph-name="q" unicode="q" horiz-adv-x="532" 
d="M234.99 310.33c0 -119.15 15.0098 -122.33 42.0098 -122.33s40.0098 3.17969 40.0098 122.33c0 108.8 -16.0098 121.67 -43.0098 121.67s-39.0098 -12.8701 -39.0098 -121.67zM26 310.33c0 186.25 83 289.67 224 296.67c182.38 0 276 -75.5498 276 -296.67
c0 -195.771 -84.4004 -288.67 -224.5 -296.25c-0.179688 -0.639648 -0.30957 -1.27051 -0.30957 -1.91016v-0.259766c0 -10.5098 22.0596 -21.0498 60.8096 -21.0498c7.25 0 14.8896 0.330078 23.1797 1.08984l87.8203 8.0498l20 -154
c-40.6699 -7.5498 -95.6504 -13 -137 -13c-105.16 0 -197.79 65.4404 -197.79 136.71c0 19.3301 6.80957 39.0801 22.0303 58.0801c-102.57 29.1201 -154.24 108.99 -154.24 282.54z" />
    <glyph glyph-name="r" unicode="r" horiz-adv-x="526" 
d="M48 313c0 100 2 177.03 2 277c66.8398 10.3301 149 17 205 17c149 0 251 -11.5195 251 -173.67c0 -73.6104 -40.5303 -129.53 -106.06 -160.38c23.04 -8.03027 41.9395 -24.9404 55.4092 -47.9502c39.2705 -77.2998 61.6504 -149.2 79.3408 -225
c-33.5205 -3.91992 -68.9307 -5.58984 -104.66 -5.58984c-26.8105 0 -53.8105 0.939453 -80.3398 2.58984c-5.63086 0.349609 -13.3301 4.04004 -15.29 10c-28.04 85.0898 -55.4502 170.84 -75.7305 239c-4.33008 0 -8.7002 0.0302734 -13.1201 0.0595703
c1.21973 -81.6797 4.06055 -167.85 4.4502 -246.06c-29.1699 -1.25 -58.3896 -1.76953 -87.6602 -1.76953c-34.0703 0 -68.1895 0.699219 -102.34 1.76953c-5.79004 0 -10 4.48047 -10 10c0 94.0303 -2 203 -2 303zM245.1 369h16.9004
c31.8096 0 53.0098 17.3398 53.0098 43.3398c0 30.8604 -10 48.1299 -45.5898 48.1299c-8.04004 0 -16.4502 -0.379883 -23.8096 -0.830078c-0.180664 -29.2793 -0.390625 -58.21 -0.510742 -90.6396z" />
    <glyph glyph-name="s" unicode="s" horiz-adv-x="492" 
d="M34 6l24.5 180.8c70 -22 132 -34.8496 177.31 -34.8496c37.3809 0 53.2002 19.5596 53.2002 35.3896c0 20.1299 -28.8193 28.2803 -67.0498 39.1006c-75.2598 21.3096 -186.96 52.9893 -186.96 206.89c0 162.15 100 173.67 237 173.67c58 0 126.16 -8.66992 193 -22
l-22.5 -166.2c-46.7695 21.0498 -118 40.5801 -180.31 40.5801c-30.2607 0 -50.2002 -9.54004 -50.2002 -28.04c0 -17.3994 30.7598 -26.6797 71.8096 -38.9902c82.3701 -24.71 206.2 -61.6494 206.2 -201.02c0 -159.271 -110 -196.33 -245 -196.33
c-68 0 -141.06 3.83008 -211 11z" />
    <glyph glyph-name="t" unicode="t" horiz-adv-x="460" 
d="M15.04 524.08c0 24.5996 0.290039 49.2695 0.959961 75.9199c31.75 1.5 198.13 2.25 231.38 2.25c33.96 0 172.67 -1.08008 206.62 -2.25c5.51953 0 9.88965 -4.48047 10 -10c0.540039 -28.2695 0.910156 -56.3496 0.910156 -85.0703
c0 -24.3398 -0.270508 -49.1494 -0.910156 -74.9297c-16.5098 -0.780273 -69.4297 -1.34961 -121.1 -1.73047c0.65918 -40.3799 1.09961 -81.7295 1.09961 -128.27c0 -100 -1.5 -200 -4 -300c-31.75 -1.5 -54.1299 -2.25 -87.3799 -2.25
c-33.96 0 -68.6699 1.08008 -102.62 2.25c-5.51953 0 -10 4.48047 -10 10c-2 94 -4 190 -4 290c0 46.0303 0.30957 87.8301 0.900391 129.28c-45.6104 0.950195 -92.9307 2.09961 -110.9 2.71973c-5.51953 0 -10 4.48047 -10 10
c-0.610352 28.8701 -0.959961 55.4297 -0.959961 82.0801z" />
    <glyph glyph-name="u" unicode="u" horiz-adv-x="528" 
d="M27 296.33c0 99.6699 1.5 203.67 4 303.67c31.75 1.5 54.1299 2.25 87.3799 2.25c33.96 0 68.6699 -1.08008 102.62 -2.25c5.51953 0 10 -4.48047 10 -10c2 -94 4 -224 4 -324c0 -88.8203 13 -102 40 -102s38 13.1797 38 102.33c0 99.6699 1.5 233.67 4 333.67
c31.75 1.5 54.1299 2.25 87.3799 2.25c33.96 0 68.6699 -1.08008 102.62 -2.25c5.51953 0 10 -4.48047 10 -10c2 -94 4 -194 4 -293.67c0 -216.46 -82 -299.33 -223 -306.33c-180.06 0 -271 54.8203 -271 306.33z" />
    <glyph glyph-name="v" unicode="v" horiz-adv-x="505" 
d="M5.87012 600c31.4902 1.5 57.7197 2.25 90.9697 2.25c33.96 0 63.8604 -0.0800781 98.0205 -2.25c5.50977 -0.349609 10.6797 -4.5 11.7695 -10c24.7197 -125.08 41.79 -251.72 59.3799 -378.46c17.7705 129.14 34.6201 259.14 60.6504 388.46
c32.0098 1.5 48.5195 2.25 77.7695 2.25c33.96 0 72.4902 -1.08008 106.23 -2.25c4.91992 0 8.38965 -3.55957 8.38965 -8.25c0 -4.36035 -3.20996 -21.25 -4.83984 -31.4004c-29.4502 -182.819 -70.5801 -376.17 -113.35 -560.35
c-42.1504 -1.96973 -82.9307 -2.25 -127.471 -2.25c-46.8496 0 -91.7793 0.669922 -137.729 2.25c-5.52051 0 -10.5098 4.54004 -11.7598 10c-43.8301 191.47 -88.6504 395.83 -118.03 590z" />
    <glyph glyph-name="w" unicode="w" horiz-adv-x="682" 
d="M5.87012 600c31.4902 1.5 57.7197 2.25 90.9697 2.25c33.96 0 63.8604 -0.0800781 98.0205 -2.25c5.50977 -0.349609 10.6797 -4.5 11.7695 -10c16.4697 -83.3301 28.0205 -167.35 38.75 -251.63c18.3105 74.8896 43.2803 171.62 63.6201 230.63l47 2l46 -2
c20.7998 -58.1904 45.1699 -152.44 63.1396 -226.65c11.21 85.8809 22.6406 171.92 36.5205 257.65c32.0098 1.5 56.5195 2.25 79.7695 2.25c33.96 0 72.4902 -1.08008 106.23 -2.25c5.00977 0 8.33984 -3.66016 8.33984 -8.48047
c0 -3.43945 -2.88965 -21.2891 -4.38965 -31.5498c-26.7207 -182.71 -66.2705 -375.91 -113.75 -559.97c-32.0107 -1.5 -113.86 -3 -146.86 -3c-23.1104 80.1396 -53.04 160.05 -75.6396 242.88c-23.4199 -82.1895 -56.21 -161.729 -79.3604 -242.88
c-34 0 -106.18 1.83008 -140.34 3c-5.52051 0 -10.3799 4.57031 -11.7598 10c-48.8301 191.47 -91.6504 395.83 -118.03 590z" />
    <glyph glyph-name="x" unicode="x" horiz-adv-x="530" 
d="M19 0c18.25 86.7598 61.0195 285.54 150.35 328v1.41016c-62.3301 19.1299 -131.29 196.899 -148.35 270c33.5195 3.91992 63.9199 5.58984 99.6602 5.58984c26.8096 0 53.8096 -0.94043 80.3398 -2.58984c5.62988 -0.350586 13.3301 -4.04004 15.29 -10
c19.8096 -60.1201 40.5596 -115.55 58.3398 -166.351c18.3701 50.8008 39.96 106.23 59.7705 166.351c1.95996 5.95996 9.65918 9.64941 15.29 10c26.5293 1.64941 53.5293 2.58984 80.3398 2.58984c35.7295 0 66.1396 -1.66992 99.6602 -5.58984
c-17.1309 -73.4004 -83.6709 -252.87 -148.341 -270v-1.41016c93.6699 -57.46 128.49 -239.3 150.341 -328c-33.5205 -3.91992 -68.9307 -5.58984 -104.66 -5.58984c-26.8105 0 -53.8105 0.939453 -80.3398 2.58984c-5.63086 0.349609 -13.3301 4.04004 -15.29 10
c-19.0605 57.8301 -38.9805 135.35 -56.0508 202.69c-17.0693 -67.3408 -37 -144.86 -56.0596 -202.69c-1.95996 -5.95996 -9.66016 -9.65039 -15.29 -10c-26.5303 -1.65039 -53.5303 -2.58984 -80.3398 -2.58984c-35.7402 0 -71.1406 1.66992 -104.66 5.58984z" />
    <glyph glyph-name="y" unicode="y" horiz-adv-x="525" 
d="M8 596.41c33.5195 3.91992 68.9297 5.58984 104.66 5.58984c26.8096 0 53.8096 -0.94043 80.3398 -2.58984c5.62988 -0.350586 13.3301 -4.04004 15.29 -10c22.1201 -67.1299 45.4102 -150.351 64.0498 -218.03c18.6406 67.6797 41.9404 150.9 64.0605 218.03
c1.95996 5.95996 9.65918 9.64941 15.29 10c26.5293 1.64941 53.5293 2.58984 80.3398 2.58984c35.7393 0 71.1396 -1.66992 104.66 -5.58984c-17.6904 -75.7998 -44.0703 -177.7 -83.3408 -255c-22.8398 -39.0205 -51.04 -69.6299 -80.79 -94.1006
c0.930664 -82.4395 2.03027 -164.869 2.44043 -247.31c-31.75 -1.5 -56.1299 -2.25 -89.3799 -2.25c-33.96 0 -70.6699 1.08008 -104.62 2.25c-5.51953 0 -10 4.48047 -10 10c0 77.3203 0.669922 156 1.46973 237.14c-29.7793 24.5303 -58.1094 54.9707 -81.1201 94.2705
c-39.2695 77.2998 -65.6592 179.2 -83.3496 255z" />
    <glyph glyph-name="z" unicode="z" horiz-adv-x="444" 
d="M29.04 524.08c0 24.5996 0.290039 49.2695 0.959961 75.9199c31.75 1.5 184.13 2.25 217.38 2.25c33.96 0 140.67 -1.08008 174.62 -2.25c5.51953 0 10 -4.48047 10 -10v-100c-35.5498 -69.6504 -111.24 -213.83 -176.68 -319.76
c40.5 -0.129883 137.05 -1.15039 168.68 -2.24023c5.51953 0 9.90039 -4.48047 10 -10c0.540039 -29.8896 0.910156 -57.8301 0.910156 -86.0898c0 -23.9502 -0.270508 -48.1299 -0.910156 -73.9102c-31.75 -1.5 -138.13 -2.25 -171.38 -2.25
c-33.96 0 -188.67 3.08008 -222.62 4.25c-5.51953 0 -10 4.48047 -10 10c-0.459961 21.5596 -0.719727 41.4004 -0.719727 61.2998c0 18.3701 0.219727 36.7998 0.719727 56.7002c51.21 100.88 113.8 198.1 174.77 300.59c-61.3799 1 -142.14 2.62988 -164.77 3.41016
c-5.51953 0 -10 4.48047 -10 10c-0.610352 28.8701 -0.959961 55.4297 -0.959961 82.0801z" />
    <glyph glyph-name="braceleft" unicode="{" horiz-adv-x="346" 
d="M30 300c0 8 1.41992 13.3281 3 13.998c24.1104 10.2002 40.9102 30.6201 40.9102 58.6104c0 64.4404 -26.9102 145.53 -26.9102 196.391c0 106.82 81 153 190 153c38 0 79.29 -5.32031 122 -16l-21 -157l-90 6c-19.1699 1.24023 -30 -9 -30 -20
c0 -21.7998 33.1299 -115.3 33.1299 -172.72c0 -29.2305 -27.1299 -55.6104 -52.1299 -62.2803c25 -6.66992 52.1299 -33.0498 52.1299 -62.2803c0 -57.4199 -33.1299 -150.92 -33.1299 -172.72c0 -11 10.8301 -21.2402 30 -20l90 6l21 -157
c-42.71 -10.6797 -84 -16 -122 -16c-109 0 -190 46.1797 -190 153c0 50.8604 26.9102 131.95 26.9102 196.391c0 27.9902 -16.7998 48.4102 -40.9102 58.6104c-1.58008 0.669922 -3 6 -3 14z" />
    <glyph glyph-name="bar" unicode="|" horiz-adv-x="280" 
d="M46 300c0 120 1.5 320 4 420c31.75 1.5 54.1299 2.25 87.3799 2.25c33.96 0 68.6699 -1.08008 102.62 -2.25c5.51953 0 10 -4.48047 10 -10c2 -94 4 -290 4 -410s-1.5 -320 -4 -420c-31.75 -1.5 -54.1299 -2.25 -87.3799 -2.25c-33.96 0 -68.6699 1.08008 -102.62 2.25
c-5.51953 0 -10 4.48047 -10 10c-2 94 -4 290 -4 410z" />
    <glyph glyph-name="braceright" unicode="}" horiz-adv-x="346" 
d="M7 -106l21 157.002l90 -6c19.1699 -1.24023 30 9 30 20c0 21.7998 -33.1299 115.3 -33.1299 172.72c0 29.2305 27.1299 55.6104 52.1299 62.2803c-25 6.66992 -52.1299 33.0498 -52.1299 62.2803c0 57.4199 33.1299 150.92 33.1299 172.72c0 11 -10.8301 21.2402 -30 20
l-90 -6l-21 157c42.71 10.6797 84 16 122 16c109 0 190 -46.1797 190 -153c0 -50.8604 -26.9102 -131.95 -26.9102 -196.391c0 -27.9902 16.7998 -48.4102 40.9102 -58.6104c1.58008 -0.669922 3 -6 3 -14s-1.41992 -13.3301 -3 -14
c-24.1104 -10.2002 -40.9102 -30.6201 -40.9102 -58.6104c0 -64.4404 26.9102 -145.53 26.9102 -196.391c0 -106.82 -81 -153 -190 -153c-38 0 -79.29 5.32031 -122 16z" />
    <glyph glyph-name="asciitilde" unicode="~" horiz-adv-x="418" 
d="M14.0195 272.21c0 4.90039 8.32031 17.3613 15.5703 30.291l59.7695 102.87c38.5596 -19.9004 66.6396 -26.3701 90.6396 -26.3701c21.1299 0 38.6299 4.25 56.2197 8.5s35.2803 8.5 56.7803 8.5c30 0 68.5195 -11.0498 125.1 -46.3701
c3.20996 -1.84961 5 -5.21973 5 -8.67969c0 -5.05957 -8.63965 -17.9199 -16.1797 -31.3701l-59.1602 -101.791c-38.3799 19.7998 -66.7598 26.21 -90.7598 26.21c-21.5 0 -38.9404 -4 -56.6602 -8s-35.7295 -8 -58.3398 -8c-30 1 -67.5996 10.96 -122.979 45.5303
c-3.20996 1.84961 -5 5.21973 -5 8.67969z" />
    <glyph glyph-name="exclamdown" unicode="&#xa1;" horiz-adv-x="256" 
d="M51.1299 531.28c0 22.2695 0.267578 44.6006 0.867188 68.7207c25.9404 1.21973 50.0508 1.72949 74.0312 1.72949c27.9502 0 55.71 -0.69043 85.9697 -1.73047c5.51953 0 9.88965 -4.48047 10 -10c0.530273 -27 0.860352 -51.7998 0.860352 -76.7197
c0 -22.1201 -0.259766 -44.3301 -0.859375 -68.2803c-18.0996 -0.919922 -36.1299 -1.32031 -54.3203 -1.32031c-34.2197 0 -68.9795 1.40039 -105.68 3.32031c-5.50977 0.290039 -10 4.48047 -10 10c-0.55957 26.1299 -0.869141 50.1602 -0.869141 74.2803zM43.998 200.001
c0 70.29 1.24023 129.721 4 200.001c31.75 1.5 54.1299 2.25 87.3799 2.25c29.96 0 55.6699 -1.08008 82.6201 -2.25c5.50977 -0.240234 9.7998 -4.48047 10 -10c2.41992 -66.7695 4 -123.229 4 -189.999c0 -70.29 -2.24023 -129.72 -6 -200
c-23.75 -1.5 -39.1299 -2.25 -70.3799 -2.25c-33.96 0 -63.6699 0.0800781 -97.6201 2.25c-5.50977 0.349609 -9.7998 4.47949 -10 9.99902c-2.41992 66.7695 -4 123.229 -4 189.999z" />
    <glyph glyph-name="cent" unicode="&#xa2;" horiz-adv-x="400" 
d="M26 300.33c0 144.02 41.2676 216.39 113.357 250.229c0.660156 65.4004 1.57031 126.601 2.64062 169.44c31.75 1.5 54.1299 2.25 77.3799 2.25c23.96 0 58.6699 -1.08008 92.6201 -2.25c5.51953 0 10 -4.48047 10 -10.001
c0.730469 -34.3096 1.45996 -81.6094 2.08984 -134.169c25.2305 -2.12012 48.5801 -6.99023 75.7803 -13.4502l-18.8896 -138.53l-83.1299 5.50977c-49.9697 3.32031 -82.8594 -39.5596 -82.8594 -129.029c0 -105.77 30.4502 -132.84 82.8604 -129.359l83.0596 5.50977
l17.96 -139.33c-24.7295 -4.32031 -48.8896 -7.16992 -74.4697 -8.41992c-0.639648 -57.5 -1.43945 -110.44 -2.39941 -148.73c-31.75 -1.5 -54.1299 -2.25 -77.3799 -2.25c-23.96 0 -58.6699 1.08008 -92.6201 2.25c-5.51953 0 -10 4.48047 -10 10
c-0.879883 41.2803 -1.75977 102.24 -2.46973 167.8c-72.1104 36.54 -113.53 110.53 -113.53 242.53z" />
    <glyph glyph-name="sterling" unicode="&#xa3;" horiz-adv-x="380" 
d="M6.04004 89c0 8 1.30859 13.7109 2.99902 14.001c24.1104 4.2002 71.8701 26.6201 71.8701 64.6104c0 18.1299 -1.79004 37.4795 -4.61035 57.3994c-17.7197 0.290039 -33.5693 0.620117 -44.2998 0.990234c-5.51953 0 -10 4.48047 -10 10
c-0.55957 26.3096 -0.879883 47.4199 -0.879883 70.6699c0 21.4697 0.269531 41.04 0.879883 65.3301c7.07031 0.330078 16.1299 0.620117 26.3301 0.860352c-3.79004 22.2705 -6.33008 43.0205 -6.33008 61.1406c0 132.52 81.0596 172.999 210 172.999
c38 0 79.29 -5.32031 122 -16l-21 -157l-90 6c-27.1904 1.75 -50 -11.9697 -50 -35c0 -7.75977 1.55957 -18.5098 4.08984 -31.3594c35.2803 -0.349609 74.4102 -0.929688 94.9102 -1.63965c5.51953 0 9.88965 -4.48047 10 -10
c0.530273 -27.2197 0.860352 -49.0996 0.860352 -73.1699c0 -21.2998 -0.259766 -40.7598 -0.859375 -64.8301h-71.1504c3.44043 -19 5.99023 -37.3604 6.91016 -53.9404c40.04 -0.360352 94.7402 -1.18066 120.24 -2.06055c5.51953 0 9.89941 -4.48047 9.99902 -10
c0.540039 -30.4404 0.910156 -58.3408 0.910156 -86.4404c0 -23.8203 -0.269531 -47.7803 -0.90918 -73.5605c-31.75 -1.5 -115.13 -2.25 -148.38 -2.25c-33.96 0 -188.67 3.08008 -222.62 4.25c-5.51953 0 -10 4.48047 -10 10
c-0.589844 27.7598 -0.959961 53.3799 -0.959961 79z" />
    <glyph glyph-name="currency" unicode="&#xa4;" horiz-adv-x="616" 
d="M265.76 299.23c0 -47.4004 17.7705 -51.6309 49.0908 -51.6309c30.4697 0 48.2393 4.23047 48.2393 51.6309c0 44.8604 -18.6201 51.6299 -49.0898 51.6299c-31.3203 0 -48.2402 -6.76953 -48.2402 -51.6299zM33.7305 118.94
c10.2002 11.4697 48.5195 51.0586 88.0791 90.8584c-7.21973 23.5303 -10.9502 52.8701 -10.9502 89.4297c0 31.5996 3.59961 57.71 10.54 79.2295l-84.8398 88.1699c15.5596 16.9697 31.1094 33.9395 48.0791 50.9092c19.0898 19.0898 39.5996 38.1895 59.3994 56.5693
c2.12012 2.12012 4.60059 3.17969 7.07031 3.17969s4.9502 -1.05957 7.07031 -3.17969l106.591 -102.38c15.4004 1.32031 31.8301 1.86035 49.2305 1.86035c24.5498 0 47.1602 -1.08984 67.6797 -3.87988c34.1396 34.0801 89.1797 87.7402 105.81 102.99
c2.12012 2.12012 4.60059 3.17969 7.08105 3.17969s4.9502 -1.05957 7.07031 -3.17969c7.07031 -5.66016 24.7402 -23.3398 44.54 -43.1396c18.3799 -18.3799 39.5996 -39.5996 54.4492 -55.8594c-8.63965 -9.96973 -54.1494 -56.8096 -93.6396 -96.46
c6.69043 -21.2803 10.1504 -47 10.1504 -78.0098c0 -30.0898 -2.5 -55.29 -7.37988 -76.3799l85.9199 -86.2402c-15.5596 -16.9697 -31.1094 -33.9395 -48.0791 -50.9092c-19.0898 -19.0898 -39.5996 -38.1895 -59.3994 -56.5693
c-2.12012 -2.12012 -4.60059 -3.17969 -7.07031 -3.17969s-4.9502 1.05957 -7.07031 3.17969l-94.21 90.0098c-20 -2.08984 -42 -2.72949 -65.8496 -2.72949c-24.0703 0 -46.2705 0.660156 -66.4609 2.83008c-38.8398 -38.3301 -88.3496 -85.54 -102.08 -97.8896
c-2.12012 -2.12012 -4.61035 -3.17969 -7.08008 -3.17969c-2.48047 0 -4.9502 1.05957 -7.07031 3.17969l-42.4199 41.0205z" />
    <glyph glyph-name="yen" unicode="&#xa5;" horiz-adv-x="525" 
d="M8 596.41c33.5195 3.91992 68.9297 5.59375 104.66 5.59375c26.8096 0 53.8096 -0.94043 80.3398 -2.59082c5.62988 -0.349609 13.3301 -4.04004 15.29 -10c22.1201 -67.1299 45.4199 -150.35 64.0596 -218.029c18.6396 67.6797 41.9297 150.899 64.0498 218.029
c1.95996 5.95996 9.66016 9.65039 15.29 10c26.5303 1.65039 53.5303 2.59082 80.3398 2.59082c35.7402 0 71.1406 -1.66992 104.66 -5.58984c-17.6904 -75.7998 -44.0703 -177.7 -83.3398 -255c-10.4805 -17.9004 -22.0908 -34.0303 -34.4609 -48.6104
c29.2305 0.419922 54.3506 0.849609 66.1104 1.19922c6 0 9.82031 -4.48047 10 -10c0.75 -23.0801 1 -31 1 -81c0 -20 -0.459961 -38.3096 -1 -59c-11.3203 -0.540039 -66.3398 -1.12012 -121.229 -1.56055c0.530273 -47.4805 0.990234 -94.9609 1.23047 -142.441
c-31.75 -1.5 -56.1299 -2.25 -89.3799 -2.25c-33.96 0 -70.6699 1.08008 -104.62 2.25c-5.51953 0 -10 4.48047 -10 10c0 43.8799 0.219727 88.1895 0.549805 133.14c-44.7803 0.969727 -92.7305 2.20996 -111.551 2.86035c-5.51953 0 -9.86914 4.48047 -9.99902 10
c-0.620117 25.9102 -1 45 -1 69c0 19 0.19043 36.4502 1 69c11.9697 -0.19043 41.6494 -0.630859 75.7695 -1.10059c-12.3398 14.5098 -23.9297 30.5898 -34.4199 48.5098c-39.2695 77.2998 -65.6592 179.2 -83.3496 255z" />
    <glyph glyph-name="brokenbar" unicode="&#xa6;" horiz-adv-x="280" 
d="M46 73c0 55.2002 1.5 147.201 4 193.201c26.667 1.0498 54.1299 2.03516 87.3799 2.03516c33.96 0 67.7871 -0.985352 102.62 -2.03516c5.5166 -0.166016 10 -5.05957 10 -7.59961c2 -43.2402 4 -130.4 4 -185.601s-1.5 -147.2 -4 -193.2
c-30.5 -1.2998 -54.1299 -2.03516 -87.3799 -2.03516c-33.96 0 -68.7031 0.485352 -102.62 2.03516c-5.51367 0.251953 -10 5.05957 -10 7.59961c-2 43.2393 -4 130.399 -4 185.6zM46 527.001c0 55.2002 1.5 147.2 4 193.2c26.667 1.0498 54.1299 2.03516 87.3799 2.03516
c33.96 0 67.7871 -0.985352 102.62 -2.03516c5.5166 -0.166016 10 -5.05957 10 -7.59961c2 -43.2402 4 -130.4 4 -185.601s-1.5 -147.2 -4 -193.2c-30.5 -1.2998 -54.1299 -2.03516 -87.3799 -2.03516c-33.96 0 -68.7031 0.485352 -102.62 2.03516
c-5.51367 0.251953 -10 5.05957 -10 7.59961c-2 43.2402 -4 130.4 -4 185.601z" />
    <glyph glyph-name="section" unicode="&#xa7;" horiz-adv-x="532" 
d="M11.5 296c0 76.8096 25.5811 125.198 67.2109 154.708c-14.75 25.7197 -23.71 57.6201 -23.71 97.6201c0 162.15 100 173.671 237 173.671c64.9502 0 119.74 -9.32031 183 -25l-22.5 -166.2c-46.7695 21.0498 -108 43.5801 -170.31 43.5801
c-30.2598 0 -50.2002 -9.54004 -50.2002 -28.04c0 -50.2197 308.01 -36.5498 308.01 -242.01c0 -76.8096 -25.5801 -125.189 -67.21 -154.709c14.75 -25.7197 23.71 -57.6201 23.71 -97.6201c0 -162.15 -100 -173.67 -237 -173.67c-64.9502 0 -119.74 9.32031 -183 25
l22.5 166.2c46.7695 -21.0498 108 -43.5801 170.31 -43.5801c30.2695 0 50.1992 9.54004 50.1992 28.04c0 50.21 -308.01 36.5498 -308.01 242.01zM206.491 299.989c0 -21.2295 41.25 -41.04 79.3203 -41.04c39.3496 0 59.1992 21.1797 59.1992 41.3896
c0 21.2305 -41.25 41.04 -79.3203 41.04c-39.3496 0 -59.1992 -21.1797 -59.1992 -41.3896z" />
    <glyph glyph-name="dieresis" unicode="&#xa8;" horiz-adv-x="440" 
d="M263.13 567.63c0 21.0703 0.268555 40.251 0.868164 64.3711c24.7305 1.16992 45.0303 1.62012 66.1904 1.62012c26.8896 0 51.9395 -0.729492 77.8096 -1.61914c5.51953 0 9.88965 -4.48047 10 -10.001c0.530273 -27 0.860352 -48.4004 0.860352 -72
c0 -20.9404 -0.259766 -40.0605 -0.859375 -64.001c-18.0195 -0.849609 -34.7393 -1.19922 -50.6797 -1.19922c-23.7402 0 -61.9307 1.55957 -93.3203 3.19922c-5.50977 0.290039 -10 4.48047 -10 10c-0.55957 26.1299 -0.869141 46.8096 -0.869141 69.6299z
M41.1289 567.631c0 21.0703 0.268555 40.25 0.868164 64.3701c24.7305 1.16992 47.0303 1.62012 68.1904 1.62012c26.8896 0 49.9395 -0.729492 75.8096 -1.61914c5.51953 0 9.88965 -4.48047 10 -10c0.530273 -27 0.860352 -48.4004 0.860352 -72
c0 -20.9404 -0.259766 -40.0605 -0.859375 -64.001c-18.0195 -0.849609 -34.7393 -1.19922 -50.6797 -1.19922c-23.7402 0 -61.9307 1.55957 -93.3203 3.19922c-5.50977 0.290039 -10 4.48047 -10 10c-0.55957 26.1299 -0.869141 46.8096 -0.869141 69.6299z" />
    <glyph glyph-name="copyright" unicode="&#xa9;" horiz-adv-x="690" 
d="M80 300c0 -151.87 122.12 -275 275 -275s275 123.13 275 275s-122.12 275 -275 275s-275 -123.13 -275 -275zM30 300c0 179.41 145.59 325 325 325s325 -145.59 325 -325s-145.59 -325 -325 -325s-325 145.59 -325 325zM191.08 301.15
c0 153 78.7393 207.988 202.409 207.988c31.4004 0 57.2803 -6.13965 87.0898 -13.3193l-16.5 -121.05l-70.75 4.7002c-22.2695 1.48047 -42.8691 -11.0996 -42.8691 -78.5293c0 -45.3896 12.1602 -80.8096 42.8701 -78.7695l70.7695 4.7002l15.7598 -122.24
c-30.2695 -5.62012 -56.5391 -8.77051 -87.8096 -8.77051c-122.63 0 -200.97 41.4902 -200.97 205.29z" />
    <glyph glyph-name="ordfeminine" unicode="&#xaa;" horiz-adv-x="410" 
d="M186.58 417.2c0 -50.3301 3.58008 -57.7188 35.7998 -57.7188l16.6797 0.0195312v112.46l-11.0098 0.00976562c-22.0195 0 -41.4697 -6.86035 -41.4697 -54.7705zM22.1602 414.781c0 153.91 80.0098 188.189 216.09 188.189c44.5498 0 80.29 -4.18945 122.94 -6.99902
c19.04 -1.25977 34.3096 -15.5996 34.8291 -34.2197c0.400391 -14.6504 1.62012 -74.5 1.62012 -90c0 -81 -1.62012 -153.93 -1.62012 -234.899c-54.1396 -8.37012 -112.59 -13.7705 -157.95 -13.7705c-136.89 0 -215.909 17.4297 -215.909 191.699z" />
    <glyph glyph-name="guillemotleft" unicode="&#xab;" horiz-adv-x="470" 
d="M259.79 304.13c0 22 0.0283203 47.667 0.348633 72.3369c37.8604 33.6797 110.86 90.6602 162.53 129.67c6.46973 4.87988 22.0596 16.8994 25.1592 16.8994c2.58008 0 4.31055 -1.84961 4.31055 -5.23926c1.04004 -29.5195 1.73047 -58.4893 1.73047 -84.2988
c0 -22.1396 -0.5 -44.8994 -1.72949 -71.6992c-37.3604 -27.29 -74.8008 -45.5703 -108.711 -60.9707c31.5 -13.6797 68.8799 -31.7598 101.71 -49.6602c5.48047 -2.99023 10 -9.77051 10 -15.29c1.04004 -30.8096 1.73047 -52.0498 1.73047 -77.3193
c0 -21.6797 -0.5 -43.3896 -1.73047 -68.6797c-49.2402 25.3203 -132.75 83.9902 -181 119.641c-5.01953 3.70996 -10.4395 8.65039 -10.999 14.29c-2.04004 20.5 -3.34961 62.3203 -3.34961 80.3203zM29.7881 304.127c0 22 0.0292969 47.667 0.349609 72.3369
c37.8604 33.6797 110.86 90.6602 162.53 129.67c6.46973 4.87988 22.0596 16.8994 25.1592 16.8994c2.58008 0 4.31055 -1.84961 4.31055 -5.23926c1.04004 -29.5195 1.73047 -58.4893 1.73047 -84.2988c0 -22.1396 -0.5 -44.8994 -1.73047 -71.6992
c-37.3604 -27.29 -74.8008 -45.5703 -108.711 -60.9707c31.5 -13.6797 68.8799 -31.7598 101.71 -49.6602c5.48047 -2.99023 10 -9.77051 10 -15.29c1.04004 -30.8096 1.73047 -52.0498 1.73047 -77.3193c0 -21.6797 -0.5 -43.3896 -1.73047 -68.6797
c-49.2402 25.3203 -132.75 83.9902 -181 119.641c-5.01953 3.70996 -10.4395 8.65039 -10.999 14.29c-2.04004 20.5 -3.34961 62.3203 -3.34961 80.3203z" />
    <glyph glyph-name="uni00AD" unicode="&#xad;" horiz-adv-x="418" 
d="M28.8799 301.3c0 18.9805 0.310547 40.1504 1.12012 72.7002c31.75 1.5 188.13 2.25 221.38 2.25c33.96 0 112.67 -1.08008 146.62 -2.25c5.51953 0 9.82031 -4.48047 10 -10c0.75 -23.0801 1 -35 1 -85c0 -20 -0.459961 -41.3096 -1 -63
c-21.7598 -1.03027 -138.13 -2.25 -171.38 -2.25c-33.96 0 -162.67 3.08008 -196.62 4.25c-5.51953 0 -9.87012 4.48047 -10 10c-0.620117 25.9102 -1.12012 48.9902 -1.12012 73.2998z" />
    <glyph glyph-name="registered" unicode="&#xae;" horiz-adv-x="690" 
d="M80 300c0 -151.87 122.12 -275 275 -275s275 123.13 275 275s-122.12 275 -275 275s-275 -123.13 -275 -275zM30 300c0 179.41 145.59 325 325 325s325 -145.59 325 -325s-145.59 -325 -325 -325s-325 145.59 -325 325zM199.83 312.57
c0 64.1201 1.28027 113.417 1.28027 177.277v6.86035l6.78027 1.0498c43.2402 6.67969 95.9902 10.9697 132.42 10.9697c92.8604 0 168.641 -11.6201 168.641 -119.14c0 -45.0098 -22.6602 -80.5098 -58.46 -102.39c11.2402 -7.5498 18.4404 -15.7803 24.9502 -26.9004
l0.120117 -0.209961l0.110352 -0.209961c25.4805 -50.1699 40.0303 -96.9395 51.4404 -145.81l2.03027 -8.71973l-8.90039 -1.04004c-21.8398 -2.5498 -44.79 -3.63965 -67.9102 -3.63965c-17.3496 0 -34.79 0.610352 -51.9102 1.68066
c-5.66016 0.349609 -14.0605 3.30957 -16.8906 11.8799l-40.7598 127.48c0.879883 -43.6602 2.12988 -88.1299 2.33984 -129.42l0.0400391 -7.7002l-7.69043 -0.330078c-18.7998 -0.80957 -37.6201 -1.13965 -56.4502 -1.13965c-21.8301 0 -44 0.450195 -65.6201 1.12988
c-7.94043 0 -14.2803 6.65039 -14.2803 14.4004c0 60.0703 -1.28027 129.82 -1.28027 193.92zM342.01 354.407l2.7793 -0.000976562c17.54 0 29.9297 10.6299 29.9297 21.7402c0 16.2705 -7.12012 25.8105 -25.1797 25.8105
c-2.20996 0 -5.99023 -0.110352 -7.28027 -0.150391c-0.0898438 -14.1299 -0.189453 -33.1396 -0.249023 -47.3994z" />
    <glyph glyph-name="macron" unicode="&#xaf;" horiz-adv-x="360" 
d="M39.0195 566.19c0 18.46 0.300781 37.7598 0.980469 64.8096c31.75 1.5 154.13 2.25 177.38 2.25c23.96 0 78.6699 -1.08008 112.62 -2.25c5.51953 0 9.82031 -4.48047 10 -10c0.370117 -11.2305 0.610352 -37.8701 0.610352 -65.8604
c0 -24.0098 -0.180664 -49.0098 -0.610352 -66.1396c-21.7598 -1.03027 -114.13 -2.25 -137.38 -2.25c-23.96 0 -118.67 3.08008 -152.62 4.25c-5.51953 0 -9.87012 4.48047 -10 10c-0.629883 26.4805 -0.980469 45.3496 -0.980469 65.1904z" />
    <glyph glyph-name="degree" unicode="&#xb0;" horiz-adv-x="272" 
d="M21.1904 491.18c0 66.7998 44.4102 108.929 112.271 112.289c101.51 0 137.35 -35.6895 137.35 -112.289c0 -66.6299 -42.4199 -108.3 -110.35 -111.66c-101.32 0 -139.271 34.8301 -139.271 111.66zM121.79 491.059c0 -22.5195 7.36035 -26.9697 24.21 -26.9697
c15.4502 0 24.21 3.70996 24.21 26.9697s-9.70996 26.9795 -26.8301 26.9795c-12.7197 0 -21.5898 -4.45996 -21.5898 -26.9795z" />
    <glyph glyph-name="plusminus" unicode="&#xb1;" horiz-adv-x="457" 
d="M31.5332 376.468c0 17.2705 0.467773 38.8877 1.33203 73.2959c15.4883 0.727539 72.502 1.26758 128.077 1.60156c0.693359 49.8154 2.0166 99.0068 3.12402 140.398c20.916 0.989258 43.9668 1.40332 65.125 1.40332c24.417 0 50.9893 -0.547852 75.6748 -1.40234
c4.96777 0 9 -4.0332 9 -9c0.855469 -40.0137 2.25977 -83.2217 3.03418 -131.236c43.4893 -0.360352 98.2334 -1.04395 119.167 -1.7627c4.9668 0 8.7207 -4.04102 9 -9c0.466797 -8.27246 0.719727 -32.6631 0.719727 -58.0078
c0 -23.8223 -0.224609 -52.2559 -0.719727 -71.9922c-12.915 -0.613281 -76.4619 -1.29688 -128.212 -1.69238c-0.719727 -46.6191 -1.95312 -91.6992 -2.98828 -131.308c-20.916 -0.991211 -43.958 -1.4043 -65.126 -1.4043c-24.417 0 -50.9873 0.547852 -75.6748 1.4043
c-4.9668 0 -8.80176 4.03223 -9 9c-1.7373 43.9834 -2.11523 79.2158 -2.89844 123.226c-50.1572 0.874023 -102.363 1.98926 -119.302 2.57422c-4.96777 0 -8.80273 4.04102 -9 9c-0.917969 22.4727 -1.33301 38.6475 -1.33301 54.9023zM44.457 86.9326
c0 17.082 0.28125 38.1357 1.00977 67.4307c28.5752 1.35059 187.317 2.02539 217.242 2.02539c30.5635 0 128.402 -0.972656 158.958 -2.02539c4.96777 0 8.83789 -4.03223 9 -9c0.674805 -20.7715 0.899414 -33.501 0.899414 -78.501
c0 -18 -0.414062 -39.1787 -0.900391 -58.7002c-19.584 -0.926758 -151.317 -2.02441 -181.242 -2.02441c-30.5645 0 -164.403 2.77148 -194.959 3.8252c-4.96777 0 -8.88281 4.03223 -9 9c-0.557617 23.3184 -1.00781 46.0908 -1.00781 67.9697z" />
    <glyph glyph-name="acute" unicode="&#xb4;" horiz-adv-x="317" 
d="M34.8096 496c30.3701 50.25 56.168 88.7617 92.8584 139.002c26.7998 1.22949 53.8301 1.72949 80.5605 1.72949c31.1602 0 61.9199 -0.69043 91.4404 -1.73047c3.37988 0 5.17969 -1.66992 5.17969 -4.24023c0 -5.7998 -23.04 -33.3203 -30.2998 -42.0107
c-29.7402 -35.6104 -62.4502 -68.4004 -91.21 -106.75c-54.3398 0 -91.46 1.05957 -145.59 4c-5.30957 0.290039 -6.42969 4.21973 -2.93945 10z" />
    <glyph glyph-name="periodcentered" unicode="&#xb7;" horiz-adv-x="210" 
d="M29.1299 306.28c0 22.2695 0.270508 44.5996 0.870117 68.7197c25.9404 1.23047 50.0498 1.73047 74.0303 1.73047c27.9502 0 55.71 -0.69043 85.9697 -1.73047c5.51953 0 9.88965 -4.48047 10 -10c0.530273 -27 0.860352 -51.7998 0.860352 -76.7197
c0 -22.1201 -0.260742 -44.3301 -0.860352 -68.2803c-18.0996 -0.919922 -36.1299 -1.32031 -54.3203 -1.32031c-34.2197 0 -68.9795 1.40039 -105.68 3.32031c-5.50977 0.290039 -10 4.48047 -10 10c-0.55957 26.1299 -0.870117 50.1602 -0.870117 74.2803z" />
    <glyph glyph-name="cedilla" unicode="&#xb8;" horiz-adv-x="324" 
d="M159.63 51c96.1602 -39.3301 136.37 -90.6699 136.37 -139c0 -62.3301 -65.4805 -112 -160.87 -112c-41.3496 0 -57.3301 3.4502 -98 11l18 140l48.8203 -6.0498c29.5996 -3.74023 45.0498 8.87988 45.0498 23.0498c0 13 -14.6396 26.8604 -45.3701 29z" />
    <glyph glyph-name="ordmasculine" unicode="&#xba;" horiz-adv-x="424" 
d="M186.88 418.2c0 -50.3301 4.48047 -57.7217 32.2002 -57.7217c21.9805 1.2002 37.8701 6.85059 37.8701 54.7607c0 48 -5.16016 57.6904 -34 57.7305c-25.9902 -1.38965 -36.0703 -8.45996 -36.0703 -54.7695zM22.46 415.778c0 143.76 62.6006 183.148 182.7 187.719
c121.84 0 216.21 -13.8096 216.21 -191.229c0 -143.76 -69.7998 -183.149 -189.899 -187.72c-153.78 0 -209.011 58.54 -209.011 191.23z" />
    <glyph glyph-name="guillemotright" unicode="&#xbb;" horiz-adv-x="470" 
d="M230.87 308.79c0 -22 -0.0273438 -47.668 -0.347656 -72.3379c-37.8604 -33.6797 -110.86 -90.6602 -162.53 -129.67c-6.4707 -4.87988 -22.0605 -16.9004 -25.1602 -16.9004c-2.58008 0 -4.31055 1.85059 -4.31055 5.24023
c-1.03906 29.5195 -1.72949 58.4893 -1.72949 84.2988c0 22.1396 0.5 44.8994 1.72949 71.6992c37.3604 27.29 74.8008 45.5703 108.711 60.9707c-31.5 13.6797 -68.8809 31.7598 -101.711 49.6602c-5.47949 2.99023 -10 9.77051 -10 15.291
c-1.03906 30.8096 -1.72949 52.0498 -1.72949 77.3193c0 21.6797 0.5 43.3896 1.72949 68.6797c49.2402 -25.3203 132.75 -83.9902 181 -119.641c5.01953 -3.70996 10.4395 -8.65039 10.999 -14.29c2.04004 -20.5 3.34961 -62.3203 3.34961 -80.3203zM460.873 308.792
c0 -22 -0.0292969 -47.668 -0.349609 -72.3379c-37.8604 -33.6797 -110.86 -90.6602 -162.53 -129.67c-6.46973 -4.87988 -22.0596 -16.9004 -25.1592 -16.9004c-2.58008 0 -4.31055 1.85059 -4.31055 5.24023c-1.04004 29.5195 -1.73047 58.4893 -1.73047 84.2988
c0 22.1396 0.5 44.8994 1.72949 71.6992c37.3604 27.29 74.8008 45.5703 108.711 60.9707c-31.5 13.6797 -68.8799 31.7598 -101.71 49.6602c-5.48047 2.99023 -10 9.77051 -10 15.291c-1.04004 30.8096 -1.73047 52.0498 -1.73047 77.3193
c0 21.6797 0.5 43.3896 1.73047 68.6797c49.2402 -25.3203 132.75 -83.9902 181 -119.641c5.02051 -3.70996 10.4404 -8.65039 11 -14.29c2.04004 -20.5 3.34961 -62.3203 3.34961 -80.3203z" />
    <glyph glyph-name="questiondown" unicode="&#xbf;" horiz-adv-x="398" 
d="M148.13 531.28c0 22.2695 0.267578 44.5996 0.867188 68.7197c25.9404 1.23047 50.0508 1.73047 74.0312 1.73047c27.9502 0 55.71 -0.69043 85.9697 -1.73047c5.51953 0 9.88965 -4.48047 10 -10c0.530273 -27 0.860352 -51.7998 0.860352 -76.7197
c0 -22.1201 -0.259766 -44.3301 -0.859375 -68.2803c-18.0996 -0.919922 -36.1396 -1.32031 -54.3301 -1.32031c-34.2197 0 -68.9697 1.40039 -105.67 3.32031c-5.50977 0.290039 -10 4.48047 -10 10c-0.55957 26.1299 -0.869141 50.1602 -0.869141 74.2803zM13.998 139.37
c0 54 27.6211 96.0088 61.3711 131.249c32.9502 34.4102 66.6299 69.75 67.6299 128.75c22.7998 1.44043 48.79 2.03027 75.3896 2.03027c31.46 0 63.7695 -0.820312 92.6094 -2.03027c5.51953 -0.230469 10 -4.48047 10 -10c0 -142.75 -131.01 -172.7 -131.01 -224.34
c0 -21.7305 17.1504 -29.4805 41.1406 -29.4805c50.7598 0 132.109 34.6904 146.369 45.0205l22.5 -166.2c-56.9805 -13.7695 -122.631 -21.3994 -183.431 -21.3994c-118.8 0 -202.569 32.4004 -202.569 146.4z" />
    <glyph glyph-name="Agrave" unicode="&#xc0;" horiz-adv-x="520" 
d="M114.75 775c25.29 1.21973 49.1299 1.73047 73.1104 1.73047c27.9492 0 56.0801 -0.69043 86.8896 -1.73047c5.51953 0 12.3701 -4.48047 15.29 -10l76.7002 -145c-55.2402 0 -103.311 1.05957 -161.061 4c-5.66016 0.290039 -12.3701 4.48047 -15.29 10
c-27.6494 50.25 -50.3193 90.7598 -75.6396 141zM9.70996 8.25c0 2.32031 3.2002 21.1797 4.83984 31.29c29.6201 182.85 72.2598 376.24 109.351 560.46c44.6191 2.08984 90.6699 2.25 137.479 2.25c48.6104 0 95.1504 -0.620117 142.72 -2.25
c5.52051 0 10.79 -4.48047 11.7607 -10c37.8301 -191.47 84.6592 -395.83 114.04 -590c-31.4902 -1.5 -53.7305 -2.25 -86.9805 -2.25c-33.96 0 -63.8604 0.0800781 -98.0195 2.25c-5.51074 0.349609 -10.6699 4.5 -11.7607 10
c-6.51953 32.9697 -12.5098 66.3496 -18.1094 100h-92.8701c-5.50977 -36.96 -11.75 -73.6797 -19.0605 -110c-32.0098 -1.5 -49.5195 -2.25 -82.7695 -2.25c-33.96 0 -68.4902 1.08008 -102.23 2.25c-4.91992 0 -8.38965 3.55957 -8.38965 8.25zM239.08 240h56.0498
l-30.7998 224.34c-9.11035 -74.0596 -16.5605 -149.29 -25.25 -224.34z" />
    <glyph glyph-name="Aacute" unicode="&#xc1;" horiz-adv-x="520" 
d="M178.8 630.25c0 4.80957 13.2402 24.1699 17.6602 31.25c24.1104 38.6299 46.96 72.0801 77.21 113.5c26.7998 1.21973 53.8301 1.73047 80.5605 1.73047c31.1592 0 61.9199 -0.69043 91.4395 -1.73047c3.37988 0 5.17969 -1.66992 5.17969 -4.24023
c0 -5.51953 -15.1494 -23.29 -20.2998 -29.7598c-32.2695 -40.4902 -69.1797 -76.29 -101.21 -119c-54.3398 0 -91.46 1.05957 -145.59 4c-3.26953 0.179688 -4.9502 1.73047 -4.9502 4.25zM9.70996 8.25c0 2.32031 3.2002 21.1797 4.83984 31.29
c29.6201 182.85 72.2598 376.24 109.351 560.46c44.6191 2.08984 90.6699 2.25 137.479 2.25c48.6104 0 95.1504 -0.620117 142.72 -2.25c5.52051 0 10.79 -4.48047 11.7607 -10c37.8301 -191.47 84.6592 -395.83 114.04 -590c-31.4902 -1.5 -53.7305 -2.25 -86.9805 -2.25
c-33.96 0 -63.8604 0.0800781 -98.0195 2.25c-5.51074 0.349609 -10.6699 4.5 -11.7607 10c-6.51953 32.9697 -12.5098 66.3496 -18.1094 100h-92.8701c-5.50977 -36.96 -11.75 -73.6797 -19.0605 -110c-32.0098 -1.5 -49.5195 -2.25 -82.7695 -2.25
c-33.96 0 -68.4902 1.08008 -102.23 2.25c-4.91992 0 -8.38965 3.55957 -8.38965 8.25zM239.08 240h56.0498l-30.7998 224.34c-9.11035 -74.0596 -16.5605 -149.29 -25.25 -224.34z" />
    <glyph glyph-name="Acircumflex" unicode="&#xc2;" horiz-adv-x="520" 
d="M54.75 620.65c25.3203 49.2393 58.9902 96.75 92.6396 143c3.66992 5.0498 9.62988 8.70996 15.29 9c50.46 2.56934 93.3203 3.34961 141.32 3.34961c22 0 44.6699 -0.0302734 69.3398 -0.349609c32.1406 -36.1201 62.8203 -75.9102 94.3506 -117.98
c4.87988 -6.50977 20.2197 -24.5 20.2197 -29.71c0 -2.58008 -1.86035 -4.30957 -5.24023 -4.30957c-29.5195 -1.04004 -54.4902 -1.73047 -80.2998 -1.73047c-22.1396 0 -44.9004 0.5 -71.7002 1.73047c-27.29 37.3594 -43.5703 68.7998 -60.9697 102.71l-49.6602 -95.71
c-2.99023 -5.48047 -9.77051 -10 -15.29 -10c-30.8096 -1.04004 -56.0498 -1.73047 -81.3203 -1.73047c-21.6797 0 -43.3896 0.5 -68.6797 1.73047zM9.70996 8.25c0 2.32031 3.2002 21.1797 4.83984 31.29c29.6201 182.85 72.2598 376.24 109.351 560.46
c44.6191 2.08984 90.6699 2.25 137.479 2.25c48.6104 0 95.1504 -0.620117 142.72 -2.25c5.52051 0 10.79 -4.48047 11.7607 -10c37.8301 -191.47 84.6592 -395.83 114.04 -590c-31.4902 -1.5 -53.7305 -2.25 -86.9805 -2.25c-33.96 0 -63.8604 0.0800781 -98.0195 2.25
c-5.51074 0.349609 -10.6699 4.5 -11.7607 10c-6.51953 32.9697 -12.5098 66.3496 -18.1094 100h-92.8701c-5.50977 -36.96 -11.75 -73.6797 -19.0605 -110c-32.0098 -1.5 -49.5195 -2.25 -82.7695 -2.25c-33.96 0 -68.4902 1.08008 -102.23 2.25
c-4.91992 0 -8.38965 3.55957 -8.38965 8.25zM239.08 240h56.0498l-30.7998 224.34c-9.11035 -74.0596 -16.5605 -149.29 -25.25 -224.34z" />
    <glyph glyph-name="Atilde" unicode="&#xc3;" horiz-adv-x="520" 
d="M72.0195 728.79c0 3.45996 1.79004 6.83008 5 8.67969c55.3906 34.5801 85.9805 44.5303 115.98 45.5303c45.2305 0 83 -26 126 -26c24 0 52.3799 9.41016 90.7598 29.21c19.6807 -32.1904 33 -55.8203 42.4707 -73c7.09961 -12.8896 16.8193 -28.5703 16.8193 -32.9404
c0 -3.42969 -1.84961 -6.7793 -4.9502 -8.89941c-51.5801 -35.3203 -92.0996 -49.3701 -122.1 -49.3701c-43 0 -73.7402 22 -116 22c-24 0 -52.0801 -8.46973 -90.6396 -28.3701l-40.9199 70.0801c-10.0801 18.0801 -22.4209 38.2197 -22.4209 43.0801zM9.70996 8.25
c0 2.32031 3.2002 21.1797 4.83984 31.29c29.6201 182.85 72.2598 376.24 109.351 560.46c44.6191 2.08984 90.6699 2.25 137.479 2.25c48.6104 0 95.1504 -0.620117 142.72 -2.25c5.52051 0 10.79 -4.48047 11.7607 -10c37.8301 -191.47 84.6592 -395.83 114.04 -590
c-31.4902 -1.5 -53.7305 -2.25 -86.9805 -2.25c-33.96 0 -63.8604 0.0800781 -98.0195 2.25c-5.51074 0.349609 -10.6699 4.5 -11.7607 10c-6.51953 32.9697 -12.5098 66.3496 -18.1094 100h-92.8701c-5.50977 -36.96 -11.75 -73.6797 -19.0605 -110
c-32.0098 -1.5 -49.5195 -2.25 -82.7695 -2.25c-33.96 0 -68.4902 1.08008 -102.23 2.25c-4.91992 0 -8.38965 3.55957 -8.38965 8.25zM239.08 240h56.0498l-30.7998 224.34c-9.11035 -74.0596 -16.5605 -149.29 -25.25 -224.34z" />
    <glyph glyph-name="Adieresis" unicode="&#xc4;" horiz-adv-x="520" 
d="M9.87012 10c29.6904 191.47 74.9395 395.83 114.029 590c44.6201 2.08984 90.6699 2.25 137.479 2.25c48.6104 0 95.1504 -0.620117 142.721 -2.25c5.51953 0 10.79 -4.48047 11.7598 -10c37.8301 -191.47 84.6602 -395.83 114.04 -590
c-31.4902 -1.5 -53.7305 -2.25 -86.9805 -2.25c-33.96 0 -63.8604 0.0800781 -98.0205 2.25c-5.50977 0.349609 -10.6699 4.5 -11.7598 10c-6.51953 32.9697 -12.5098 66.3496 -18.1094 100h-92.8701c-5.50977 -36.96 -11.75 -73.6797 -19.0596 -110
c-32.0098 -1.5 -49.5195 -2.25 -82.7695 -2.25c-33.96 0 -68.4902 1.08008 -102.23 2.25c-5.51953 0 -9.19922 4.48047 -8.22949 10zM239.079 240l56.0518 -0.000976562l-30.8008 224.341c-9.11035 -74.0596 -16.5605 -149.29 -25.251 -224.34zM303.131 707.629
c0 21.0703 0.268555 40.25 0.868164 64.3701c24.7305 1.16992 45.0303 1.62012 66.1904 1.62012c26.8896 0 51.9395 -0.729492 77.8096 -1.61914c5.51953 0 9.88965 -4.48047 10 -10.001c0.530273 -27 0.860352 -48.4004 0.860352 -72
c0 -20.9404 -0.259766 -40.0605 -0.859375 -64.001c-18.0195 -0.849609 -34.7393 -1.19922 -50.6797 -1.19922c-23.7402 0 -61.9307 1.55957 -93.3203 3.19922c-5.50977 0.290039 -10 4.48047 -10 10.001c-0.55957 26.1299 -0.869141 46.8096 -0.869141 69.6299z
M81.1299 707.629c0 21.0703 0.268555 40.25 0.868164 64.3701c24.7305 1.16992 47.0303 1.62012 68.1904 1.62012c26.8896 0 49.9395 -0.729492 75.8096 -1.61914c5.51953 0 9.88965 -4.48047 10 -10.001c0.530273 -27 0.860352 -48.4004 0.860352 -72
c0 -20.9404 -0.259766 -40.0605 -0.859375 -64.001c-18.0195 -0.849609 -34.7393 -1.19922 -50.6797 -1.19922c-23.7402 0 -61.9307 1.55957 -93.3203 3.19922c-5.50977 0.290039 -10 4.48047 -10 10.001c-0.55957 26.1299 -0.869141 46.8096 -0.869141 69.6299z" />
    <glyph glyph-name="Aring" unicode="&#xc5;" horiz-adv-x="520" 
d="M9.70996 8.25c0 2.32031 3.20215 21.1797 4.8418 31.29c29.6201 182.85 72.2598 376.239 109.35 560.459c35.4902 1.62012 69.8301 2.07031 105.72 2.2002c-44.8604 10.9004 -62.7705 39.0703 -62.7705 87.04c0 55.21 36.6904 90.0098 92.7803 92.79
c83.8896 0 113.52 -29.4902 113.52 -92.79c0 -44.46 -22.8496 -75.4805 -61.21 -87.2402c30.8496 -0.30957 61.2793 -0.939453 92.1592 -1.99902c5.51953 0 10.79 -4.48047 11.7598 -10c37.8301 -191.47 84.6602 -395.83 114.04 -590
c-31.4902 -1.5 -53.7305 -2.25 -86.9805 -2.25c-33.96 0 -63.8604 0.0800781 -98.0205 2.25c-5.50977 0.349609 -10.6699 4.5 -11.7598 10c-6.51953 32.9697 -12.5098 66.3496 -18.1094 100h-92.8701c-5.50977 -36.96 -11.75 -73.6797 -19.0596 -110
c-32.0098 -1.5 -48.5195 -2.25 -82.7695 -2.25c-33.96 0 -68.4902 1.08008 -102.23 2.25c-4.91992 -0 -8.38965 3.55957 -8.38965 8.25zM249.992 689.139c0 -18.6104 6.08105 -22.29 20.0107 -22.29c12.7695 0 20.0098 3.07031 20.0098 22.29
c0 19.2305 -8.03027 22.29 -22.1807 22.29c-10.5098 0 -17.8398 -3.67969 -17.8398 -22.29zM239.083 239.999l56.0518 -0.000976562l-30.8008 224.341c-9.11035 -74.0596 -16.5605 -149.29 -25.251 -224.34z" />
    <glyph glyph-name="AE" unicode="&#xc6;" horiz-adv-x="724" 
d="M9.70996 8.25c0 2.32031 3.20215 21.1816 4.8418 31.292c29.6201 182.85 72.2598 376.239 109.35 560.459c102.81 3.0498 143.229 3.33008 290.649 3.33008c118.77 0 178.699 -0.580078 287.449 -3.33008c5.51953 -0.139648 9.89941 -4.47949 9.99902 -10
c0.540039 -30.4297 0.910156 -58.3398 0.910156 -86.4395c0 -23.8203 -0.259766 -47.7803 -0.910156 -73.5605c-31.75 -1.5 -126 -2 -159 -2c-6.32031 0 -19.9199 0.0898438 -38.1104 0.259766c-0.200195 -17.1699 -0.390625 -34.5498 -0.541016 -52.4102
c39.8701 -0.290039 94.1602 -0.969727 119.65 -1.84961c5.51953 0 9.88965 -4.48047 10 -10c0.530273 -27.2197 0.860352 -51.0996 0.860352 -75.1699c0 -21.2998 -0.259766 -42.7598 -0.859375 -66.8301h-129.65c0.150391 -17.5801 0.350586 -34.8105 0.541016 -52.001
h12.1104c34 0 143.05 -0.830078 177 -2c5.52051 0 9.90039 -4.48047 10 -10c0.540039 -30.4297 0.910156 -58.3301 0.910156 -86.4297c0 -23.8203 -0.259766 -47.79 -0.910156 -73.5703c-31.75 -1.5 -138.13 -2.25 -171.38 -2.25c-33.96 0 -178.67 3.08008 -212.62 4.25
c-5.51953 0 -10 4.48047 -10 10c-1.4502 68.0303 -2.89062 137.11 -3.58105 208h-79.9297c-8.76953 -73.4004 -18.9893 -146.48 -33.3896 -218c-32.0098 -1.5 -49.5195 -2.25 -82.7695 -2.25c-33.96 0 -68.4902 1.08008 -102.23 2.25
c-4.91992 -0 -8.38965 3.55957 -8.38965 8.25zM252.912 365.001h63.3008c0.139648 21.8701 0.330078 49.7402 0.599609 71.6104c-22.46 0.320312 -42.1201 0.629883 -56.4102 0.910156c-3.58008 -22.0996 -6.0498 -50.29 -7.49023 -72.5205z" />
    <glyph glyph-name="Ccedilla" unicode="&#xc7;" horiz-adv-x="415" 
d="M26 300.33c0 235.15 106.001 306.671 275.001 306.671c41.1504 0 73.7402 -7.2998 114 -17l-21.3799 -156.75l-92.4297 6.12988c-36.4697 2.41992 -66.2002 -20.25 -66.2002 -139.05c0 -119.15 25.7803 -142.061 66.2002 -139.381l92.4297 6.12988l20.3799 -158.08
c-39.1504 -7.26953 -71.1807 -10.7393 -110.411 -10.9893c53.4697 -21.9502 80.5898 -55.7803 80.5898 -99.8398c0 -56.5996 -52.3604 -98.2695 -159.15 -98.2695c-41.3496 0 -45.3301 3.4502 -78 9l13 100l23.8203 -3.0498c54.0498 -6.91992 57.2002 43.25 2.68066 47.0498
l6.63965 55.2695c-105.08 24.5498 -167.17 99.8994 -167.17 292.159z" />
    <glyph glyph-name="Egrave" unicode="&#xc8;" horiz-adv-x="454" 
d="M87.75 775c25.29 1.21973 49.1299 1.73047 73.1104 1.73047c27.9492 0 56.0801 -0.69043 86.8896 -1.73047c5.51953 0 12.3701 -4.48047 15.29 -10l76.7002 -145c-55.2402 0 -103.311 1.05957 -161.061 4c-5.66016 0.290039 -12.3701 4.48047 -15.29 10
c-27.6494 50.25 -50.3193 90.7598 -75.6396 141zM46 300c0 100 1.5 200 4 300c31.75 1.5 174.13 2.25 207.38 2.25c33.96 0 140.67 -1.08008 174.62 -2.25c5.51953 0 9.90039 -4.48047 10 -10c0.540039 -30.4297 0.910156 -58.3398 0.910156 -86.4404
c0 -23.8193 -0.270508 -47.7793 -0.910156 -73.5596c-31.75 -1.5 -126 -2 -159 -2c-7.58008 0 -21.1797 0.139648 -38.1104 0.370117c-0.199219 -17.21 -0.389648 -34.6201 -0.540039 -52.5205c39.8701 -0.290039 94.1602 -0.969727 119.65 -1.84961
c5.51953 0 9.88965 -4.48047 10 -10c0.530273 -27.2197 0.860352 -51.0996 0.860352 -75.1699c0 -21.2998 -0.260742 -42.7598 -0.860352 -66.8301h-129.65c0.150391 -17.5801 0.350586 -34.8096 0.540039 -52h12.1104c34 0 143.05 -0.830078 177 -2
c5.51953 0 9.90039 -4.48047 10 -10c0.540039 -30.4297 0.910156 -58.3301 0.910156 -86.4297c0 -23.8203 -0.270508 -47.79 -0.910156 -73.5703c-31.75 -1.5 -138.13 -2.25 -171.38 -2.25c-33.96 0 -178.67 3.08008 -212.62 4.25c-5.51953 0 -10 4.48047 -10 10
c-2 94 -4 190 -4 290z" />
    <glyph glyph-name="Eacute" unicode="&#xc9;" horiz-adv-x="454" 
d="M151.8 630.25c0 4.80957 13.2402 24.1699 17.6602 31.25c24.1104 38.6299 46.96 72.0801 77.21 113.5c26.7998 1.21973 53.8301 1.73047 80.5605 1.73047c31.1592 0 61.9199 -0.69043 91.4395 -1.73047c3.37988 0 5.17969 -1.66992 5.17969 -4.24023
c0 -5.51953 -15.1494 -23.29 -20.2998 -29.7598c-32.2695 -40.4902 -69.1797 -76.29 -101.21 -119c-54.3398 0 -91.46 1.05957 -145.59 4c-3.26953 0.179688 -4.9502 1.73047 -4.9502 4.25zM46 300c0 100 1.5 200 4 300c31.75 1.5 174.13 2.25 207.38 2.25
c33.96 0 140.67 -1.08008 174.62 -2.25c5.51953 0 9.90039 -4.48047 10 -10c0.540039 -30.4297 0.910156 -58.3398 0.910156 -86.4404c0 -23.8193 -0.270508 -47.7793 -0.910156 -73.5596c-31.75 -1.5 -126 -2 -159 -2c-7.58008 0 -21.1797 0.139648 -38.1104 0.370117
c-0.199219 -17.21 -0.389648 -34.6201 -0.540039 -52.5205c39.8701 -0.290039 94.1602 -0.969727 119.65 -1.84961c5.51953 0 9.88965 -4.48047 10 -10c0.530273 -27.2197 0.860352 -51.0996 0.860352 -75.1699c0 -21.2998 -0.260742 -42.7598 -0.860352 -66.8301h-129.65
c0.150391 -17.5801 0.350586 -34.8096 0.540039 -52h12.1104c34 0 143.05 -0.830078 177 -2c5.51953 0 9.90039 -4.48047 10 -10c0.540039 -30.4297 0.910156 -58.3301 0.910156 -86.4297c0 -23.8203 -0.270508 -47.79 -0.910156 -73.5703
c-31.75 -1.5 -138.13 -2.25 -171.38 -2.25c-33.96 0 -178.67 3.08008 -212.62 4.25c-5.51953 0 -10 4.48047 -10 10c-2 94 -4 190 -4 290z" />
    <glyph glyph-name="Ecircumflex" unicode="&#xca;" horiz-adv-x="454" 
d="M27.75 620.65c25.3203 49.2393 58.9902 96.75 92.6396 143c3.66992 5.0498 9.62988 8.70996 15.29 9c50.46 2.56934 93.3203 3.34961 141.32 3.34961c22 0 44.6699 -0.0302734 69.3398 -0.349609c32.1406 -36.1201 62.8203 -75.9102 94.3506 -117.98
c4.87988 -6.50977 20.2197 -24.5 20.2197 -29.71c0 -2.58008 -1.86035 -4.30957 -5.24023 -4.30957c-29.5195 -1.04004 -54.4902 -1.73047 -80.2998 -1.73047c-22.1396 0 -44.9004 0.5 -71.7002 1.73047c-27.29 37.3594 -43.5703 68.7998 -60.9697 102.71l-49.6602 -95.71
c-2.99023 -5.48047 -9.77051 -10 -15.29 -10c-30.8096 -1.04004 -56.0498 -1.73047 -81.3203 -1.73047c-21.6797 0 -43.3896 0.5 -68.6797 1.73047zM46 300c0 100 1.5 200 4 300c31.75 1.5 174.13 2.25 207.38 2.25c33.96 0 140.67 -1.08008 174.62 -2.25
c5.51953 0 9.90039 -4.48047 10 -10c0.540039 -30.4297 0.910156 -58.3398 0.910156 -86.4404c0 -23.8193 -0.270508 -47.7793 -0.910156 -73.5596c-31.75 -1.5 -126 -2 -159 -2c-7.58008 0 -21.1797 0.139648 -38.1104 0.370117
c-0.199219 -17.21 -0.389648 -34.6201 -0.540039 -52.5205c39.8701 -0.290039 94.1602 -0.969727 119.65 -1.84961c5.51953 0 9.88965 -4.48047 10 -10c0.530273 -27.2197 0.860352 -51.0996 0.860352 -75.1699c0 -21.2998 -0.260742 -42.7598 -0.860352 -66.8301h-129.65
c0.150391 -17.5801 0.350586 -34.8096 0.540039 -52h12.1104c34 0 143.05 -0.830078 177 -2c5.51953 0 9.90039 -4.48047 10 -10c0.540039 -30.4297 0.910156 -58.3301 0.910156 -86.4297c0 -23.8203 -0.270508 -47.79 -0.910156 -73.5703
c-31.75 -1.5 -138.13 -2.25 -171.38 -2.25c-33.96 0 -178.67 3.08008 -212.62 4.25c-5.51953 0 -10 4.48047 -10 10c-2 94 -4 190 -4 290z" />
    <glyph glyph-name="Edieresis" unicode="&#xcb;" horiz-adv-x="454" 
d="M276.13 707.63c0 21.0703 0.270508 40.25 0.870117 64.3701c24.7305 1.16992 45.0303 1.62012 66.1904 1.62012c26.8896 0 51.9395 -0.730469 77.8096 -1.62012c5.51953 0 9.88965 -4.48047 10 -10c0.530273 -27 0.860352 -48.4004 0.860352 -72
c0 -20.9404 -0.260742 -40.0596 -0.860352 -64c-18.0195 -0.849609 -34.7402 -1.2002 -50.6797 -1.2002c-23.7402 0 -61.9307 1.56055 -93.3203 3.2002c-5.50977 0.290039 -10 4.48047 -10 10c-0.55957 26.1299 -0.870117 46.8096 -0.870117 69.6299zM54.1299 707.63
c0 21.0703 0.270508 40.25 0.870117 64.3701c24.7305 1.16992 47.0303 1.62012 68.1904 1.62012c26.8896 0 49.9395 -0.730469 75.8096 -1.62012c5.51953 0 9.88965 -4.48047 10 -10c0.530273 -27 0.860352 -48.4004 0.860352 -72
c0 -20.9404 -0.260742 -40.0596 -0.860352 -64c-18.0195 -0.849609 -34.7402 -1.2002 -50.6797 -1.2002c-23.7402 0 -61.9307 1.56055 -93.3203 3.2002c-5.50977 0.290039 -10 4.48047 -10 10c-0.55957 26.1299 -0.870117 46.8096 -0.870117 69.6299zM46 300
c0 100 1.5 200 4 300c31.75 1.5 174.13 2.25 207.38 2.25c33.96 0 140.67 -1.08008 174.62 -2.25c5.51953 0 9.90039 -4.48047 10 -10c0.540039 -30.4297 0.910156 -58.3398 0.910156 -86.4404c0 -23.8193 -0.270508 -47.7793 -0.910156 -73.5596
c-31.75 -1.5 -126 -2 -159 -2c-7.58008 0 -21.1797 0.139648 -38.1104 0.370117c-0.199219 -17.21 -0.389648 -34.6201 -0.540039 -52.5205c39.8701 -0.290039 94.1602 -0.969727 119.65 -1.84961c5.51953 0 9.88965 -4.48047 10 -10
c0.530273 -27.2197 0.860352 -51.0996 0.860352 -75.1699c0 -21.2998 -0.260742 -42.7598 -0.860352 -66.8301h-129.65c0.150391 -17.5801 0.350586 -34.8096 0.540039 -52h12.1104c34 0 143.05 -0.830078 177 -2c5.51953 0 9.90039 -4.48047 10 -10
c0.540039 -30.4297 0.910156 -58.3301 0.910156 -86.4297c0 -23.8203 -0.270508 -47.79 -0.910156 -73.5703c-31.75 -1.5 -138.13 -2.25 -171.38 -2.25c-33.96 0 -178.67 3.08008 -212.62 4.25c-5.51953 0 -10 4.48047 -10 10c-2 94 -4 190 -4 290z" />
    <glyph glyph-name="Igrave" unicode="&#xcc;" horiz-adv-x="280" 
d="M-10.25 775c25.29 1.21973 49.1299 1.73047 73.1104 1.73047c27.9492 0 56.0801 -0.69043 86.8896 -1.73047c5.51953 0 12.3701 -4.48047 15.29 -10l76.7002 -145c-55.2402 0 -103.311 1.05957 -161.061 4c-5.66016 0.290039 -12.3701 4.48047 -15.29 10
c-27.6494 50.25 -50.3193 90.7598 -75.6396 141zM46 300c0 100 1.5 200 4 300c31.75 1.5 54.1299 2.25 87.3799 2.25c33.96 0 68.6699 -1.08008 102.62 -2.25c5.51953 0 10 -4.48047 10 -10c2 -94 4 -190 4 -290s-1.5 -200 -4 -300
c-31.75 -1.5 -54.1299 -2.25 -87.3799 -2.25c-33.96 0 -68.6699 1.08008 -102.62 2.25c-5.51953 0 -10 4.48047 -10 10c-2 94 -4 190 -4 290z" />
    <glyph glyph-name="Iacute" unicode="&#xcd;" horiz-adv-x="280" 
d="M53.7998 630.25c0 4.80957 13.2402 24.1699 17.6602 31.25c24.1104 38.6299 46.96 72.0801 77.21 113.5c26.7998 1.21973 53.8301 1.73047 80.5605 1.73047c31.1592 0 61.9199 -0.69043 91.4395 -1.73047c3.37988 0 5.17969 -1.66992 5.17969 -4.24023
c0 -5.51953 -15.1494 -23.29 -20.2998 -29.7598c-32.2695 -40.4902 -69.1797 -76.29 -101.21 -119c-54.3398 0 -91.46 1.05957 -145.59 4c-3.26953 0.179688 -4.9502 1.73047 -4.9502 4.25zM46 300c0 100 1.5 200 4 300c31.75 1.5 54.1299 2.25 87.3799 2.25
c33.96 0 68.6699 -1.08008 102.62 -2.25c5.51953 0 10 -4.48047 10 -10c2 -94 4 -190 4 -290s-1.5 -200 -4 -300c-31.75 -1.5 -54.1299 -2.25 -87.3799 -2.25c-33.96 0 -68.6699 1.08008 -102.62 2.25c-5.51953 0 -10 4.48047 -10 10c-2 94 -4 190 -4 290z" />
    <glyph glyph-name="Icircumflex" unicode="&#xce;" horiz-adv-x="280" 
d="M-70.25 620.65c25.3203 49.2393 58.9902 96.75 92.6396 143c3.66992 5.0498 9.62988 8.70996 15.29 9c50.46 2.56934 93.3203 3.34961 141.32 3.34961c22 0 44.6699 -0.0302734 69.3398 -0.349609c32.1406 -36.1201 62.8203 -75.9102 94.3506 -117.98
c4.87988 -6.50977 20.2197 -24.5 20.2197 -29.71c0 -2.58008 -1.86035 -4.30957 -5.24023 -4.30957c-29.5195 -1.04004 -54.4902 -1.73047 -80.2998 -1.73047c-22.1396 0 -44.9004 0.5 -71.7002 1.73047c-27.29 37.3594 -43.5703 68.7998 -60.9697 102.71l-49.6602 -95.71
c-2.99023 -5.48047 -9.77051 -10 -15.29 -10c-30.8096 -1.04004 -56.0498 -1.73047 -81.3203 -1.73047c-21.6797 0 -43.3896 0.5 -68.6797 1.73047zM46 300c0 100 1.5 200 4 300c31.75 1.5 54.1299 2.25 87.3799 2.25c33.96 0 68.6699 -1.08008 102.62 -2.25
c5.51953 0 10 -4.48047 10 -10c2 -94 4 -190 4 -290s-1.5 -200 -4 -300c-31.75 -1.5 -54.1299 -2.25 -87.3799 -2.25c-33.96 0 -68.6699 1.08008 -102.62 2.25c-5.51953 0 -10 4.48047 -10 10c-2 94 -4 190 -4 290z" />
    <glyph glyph-name="Idieresis" unicode="&#xcf;" horiz-adv-x="280" 
d="M178.13 707.63c0 21.0703 0.270508 40.25 0.870117 64.3701c24.7305 1.16992 45.0303 1.62012 66.1904 1.62012c26.8896 0 51.9395 -0.730469 77.8096 -1.62012c5.51953 0 9.88965 -4.48047 10 -10c0.530273 -27 0.860352 -48.4004 0.860352 -72
c0 -20.9404 -0.260742 -40.0596 -0.860352 -64c-18.0195 -0.849609 -34.7402 -1.2002 -50.6797 -1.2002c-23.7402 0 -61.9307 1.56055 -93.3203 3.2002c-5.50977 0.290039 -10 4.48047 -10 10c-0.55957 26.1299 -0.870117 46.8096 -0.870117 69.6299zM-43.8701 707.63
c0 21.0703 0.270508 40.25 0.870117 64.3701c24.7305 1.16992 47.0303 1.62012 68.1904 1.62012c26.8896 0 49.9395 -0.730469 75.8096 -1.62012c5.51953 0 9.88965 -4.48047 10 -10c0.530273 -27 0.860352 -48.4004 0.860352 -72
c0 -20.9404 -0.260742 -40.0596 -0.860352 -64c-18.0195 -0.849609 -34.7402 -1.2002 -50.6797 -1.2002c-23.7402 0 -61.9307 1.56055 -93.3203 3.2002c-5.50977 0.290039 -10 4.48047 -10 10c-0.55957 26.1299 -0.870117 46.8096 -0.870117 69.6299zM46 300
c0 100 1.5 200 4 300c31.75 1.5 54.1299 2.25 87.3799 2.25c33.96 0 68.6699 -1.08008 102.62 -2.25c5.51953 0 10 -4.48047 10 -10c2 -94 4 -190 4 -290s-1.5 -200 -4 -300c-31.75 -1.5 -54.1299 -2.25 -87.3799 -2.25c-33.96 0 -68.6699 1.08008 -102.62 2.25
c-5.51953 0 -10 4.48047 -10 10c-2 94 -4 190 -4 290z" />
    <glyph glyph-name="Eth" unicode="&#xd0;" 
d="M10.8799 301.3c0 18.9805 0.30957 40.1494 1.11914 72.6992c10.3701 0.490234 22.9404 0.900391 36.3301 1.23047c0.570312 71.5498 1.66992 140.41 1.66992 214.771c66.8398 10.3301 153 17 209 17c169 0 261 -71.5205 261 -306.671
c0 -250.02 -91 -302.329 -259 -302.329c-55 0 -131.93 5.99023 -201 12c-5.51953 0 -10 4.48047 -10 10c0 66.9902 -1.01953 129.9 -1.59961 196.7c-8.36035 0.509766 -17.0303 0.979492 -26.4004 1.2998c-5.51953 0 -9.86914 4.48047 -9.99902 10
c-0.620117 25.9102 -1.12012 48.9902 -1.12012 73.2998zM246.7 374.779c11.4004 -0.25 21.5215 -0.511719 29.3018 -0.78125c5.51953 0 9.81934 -4.48047 9.99902 -10c0.75 -23.0801 1 -35 1 -85c0 -20 -0.459961 -41.3096 -1 -63
c-6.40039 -0.299805 -20.9707 -0.620117 -39.2109 -0.919922c0.280273 -15.9697 0.610352 -31.5596 0.950195 -47.1299h27.0703c27.1797 0 50.1992 13.2305 50.1992 132.381c0 118.8 -23.0195 132.05 -50.1992 132.05h-26.8896
c-0.44043 -18.8496 -0.880859 -37.8691 -1.2207 -57.5996z" />
    <glyph glyph-name="Ntilde" unicode="&#xd1;" horiz-adv-x="550" 
d="M90.0195 728.79c0 3.45996 1.79004 6.83008 5 8.67969c55.3906 34.5801 85.9805 44.5303 115.98 45.5303c45.2305 0 83 -26 126 -26c24 0 52.3799 9.41016 90.7598 29.21c19.6807 -32.1904 33 -55.8203 42.4707 -73c7.09961 -12.8896 16.8193 -28.5703 16.8193 -32.9404
c0 -3.42969 -1.84961 -6.7793 -4.9502 -8.89941c-51.5801 -35.3203 -92.0996 -49.3701 -122.1 -49.3701c-43 0 -73.7402 22 -116 22c-24 0 -52.0801 -8.46973 -90.6396 -28.3701l-40.9199 70.0801c-10.0801 18.0801 -22.4209 38.2197 -22.4209 43.0801zM46 300
c0 100 1.5 200 4 300c31.75 1.5 49.1299 2.25 82.3799 2.25c28.96 0 55.1201 -1 86.6201 -2.25c5.51953 -0.219727 8.9502 -4.92969 11 -10l103.54 -255.9l-3.54004 265.9c31.75 1.5 54.1299 2.25 87.3799 2.25c33.96 0 62.9502 -1 92.6201 -2.25
c5.51953 -0.230469 10 -4.48047 10 -10c2 -94 4 -190 4 -290s-1.5 -200 -4 -300c-27.75 -1.58008 -44.1299 -2.25 -77.3799 -2.25c-29.96 0 -59.2002 0.669922 -91.6201 2.25c-5.50977 0.269531 -9 4.5 -11 10l-103.54 255.9l3.54004 -265.9
c-31.75 -1.5 -49.1299 -2.25 -82.3799 -2.25c-33.96 0 -65.4502 1.08008 -97.6201 2.25c-5.51953 0.200195 -10 4.48047 -10 10c-2 94 -4 190 -4 290z" />
    <glyph glyph-name="Ograve" unicode="&#xd2;" 
d="M128.75 775c25.29 1.21973 49.1299 1.73047 73.1104 1.73047c27.9492 0 56.0801 -0.69043 86.8896 -1.73047c5.51953 0 12.3701 -4.48047 15.29 -10l76.7002 -145c-55.2402 0 -103.311 1.05957 -161.061 4c-5.66016 0.290039 -12.3701 4.48047 -15.29 10
c-27.6494 50.25 -50.3193 90.7598 -75.6396 141zM26 300.33c0 196.25 87 299.67 228 306.67c190.38 0 280 -75.5498 280 -306.67c0 -196.46 -89 -299.33 -230 -306.33c-190.06 0 -278 74.8203 -278 306.33zM234.99 300.33c0 -119.15 19.0098 -132.33 46.0098 -132.33
s44.0098 13.1797 44.0098 132.33c0 118.8 -20.0098 131.67 -47.0098 131.67s-43.0098 -12.8701 -43.0098 -131.67z" />
    <glyph glyph-name="Oacute" unicode="&#xd3;" 
d="M192.8 630.25c0 4.80957 13.2402 24.1699 17.6602 31.25c24.1104 38.6299 46.96 72.0801 77.21 113.5c26.7998 1.21973 53.8301 1.73047 80.5605 1.73047c31.1592 0 61.9199 -0.69043 91.4395 -1.73047c3.37988 0 5.17969 -1.66992 5.17969 -4.24023
c0 -5.51953 -15.1494 -23.29 -20.2998 -29.7598c-32.2695 -40.4902 -69.1797 -76.29 -101.21 -119c-54.3398 0 -91.46 1.05957 -145.59 4c-3.26953 0.179688 -4.9502 1.73047 -4.9502 4.25zM26 300.33c0 196.25 87 299.67 228 306.67c190.38 0 280 -75.5498 280 -306.67
c0 -196.46 -89 -299.33 -230 -306.33c-190.06 0 -278 74.8203 -278 306.33zM234.99 300.33c0 -119.15 19.0098 -132.33 46.0098 -132.33s44.0098 13.1797 44.0098 132.33c0 118.8 -20.0098 131.67 -47.0098 131.67s-43.0098 -12.8701 -43.0098 -131.67z" />
    <glyph glyph-name="Ocircumflex" unicode="&#xd4;" 
d="M68.75 620.65c25.3203 49.2393 58.9902 96.75 92.6396 143c3.66992 5.0498 9.62988 8.70996 15.29 9c50.46 2.56934 93.3203 3.34961 141.32 3.34961c22 0 44.6699 -0.0302734 69.3398 -0.349609c32.1406 -36.1201 62.8203 -75.9102 94.3506 -117.98
c4.87988 -6.50977 20.2197 -24.5 20.2197 -29.71c0 -2.58008 -1.86035 -4.30957 -5.24023 -4.30957c-29.5195 -1.04004 -54.4902 -1.73047 -80.2998 -1.73047c-22.1396 0 -44.9004 0.5 -71.7002 1.73047c-27.29 37.3594 -43.5703 68.7998 -60.9697 102.71l-49.6602 -95.71
c-2.99023 -5.48047 -9.77051 -10 -15.29 -10c-30.8096 -1.04004 -56.0498 -1.73047 -81.3203 -1.73047c-21.6797 0 -43.3896 0.5 -68.6797 1.73047zM26 300.33c0 196.25 87 299.67 228 306.67c190.38 0 280 -75.5498 280 -306.67c0 -196.46 -89 -299.33 -230 -306.33
c-190.06 0 -278 74.8203 -278 306.33zM234.99 300.33c0 -119.15 19.0098 -132.33 46.0098 -132.33s44.0098 13.1797 44.0098 132.33c0 118.8 -20.0098 131.67 -47.0098 131.67s-43.0098 -12.8701 -43.0098 -131.67z" />
    <glyph glyph-name="Otilde" unicode="&#xd5;" 
d="M86.0195 728.79c0 3.45996 1.79004 6.83008 5 8.67969c55.3906 34.5801 85.9805 44.5303 115.98 45.5303c45.2305 0 83 -26 126 -26c24 0 52.3799 9.41016 90.7598 29.21c19.6807 -32.1904 33 -55.8203 42.4707 -73c7.09961 -12.8896 16.8193 -28.5703 16.8193 -32.9404
c0 -3.42969 -1.84961 -6.7793 -4.9502 -8.89941c-51.5801 -35.3203 -92.0996 -49.3701 -122.1 -49.3701c-43 0 -73.7402 22 -116 22c-24 0 -52.0801 -8.46973 -90.6396 -28.3701l-40.9199 70.0801c-10.0801 18.0801 -22.4209 38.2197 -22.4209 43.0801zM26 300.33
c0 196.25 87 299.67 228 306.67c190.38 0 280 -75.5498 280 -306.67c0 -196.46 -89 -299.33 -230 -306.33c-190.06 0 -278 74.8203 -278 306.33zM234.99 300.33c0 -119.15 19.0098 -132.33 46.0098 -132.33s44.0098 13.1797 44.0098 132.33
c0 118.8 -20.0098 131.67 -47.0098 131.67s-43.0098 -12.8701 -43.0098 -131.67z" />
    <glyph glyph-name="Odieresis" unicode="&#xd6;" 
d="M26 300.33c0 196.25 87 299.67 228 306.67c190.38 0 280 -75.5498 280 -306.67c0 -196.46 -89 -299.33 -230 -306.33c-190.06 0 -278 74.8203 -278 306.33zM234.99 300.33c0 -119.15 19.0098 -132.33 46.0098 -132.33s44.0098 13.1797 44.0098 132.33
c0 118.8 -20.0098 131.67 -47.0098 131.67s-43.0098 -12.8701 -43.0098 -131.67zM317.13 707.63c0 21.0703 0.268555 40.251 0.868164 64.3711c24.7305 1.16992 45.0303 1.62012 66.1904 1.62012c26.8896 0 51.9395 -0.729492 77.8096 -1.61914
c5.51953 0 9.88965 -4.48047 10 -10.001c0.530273 -27 0.860352 -48.4004 0.860352 -72c0 -20.9404 -0.259766 -40.0605 -0.859375 -64.001c-18.0195 -0.849609 -34.7393 -1.19922 -50.6797 -1.19922c-23.7402 0 -61.9307 1.55957 -93.3203 3.19922
c-5.50977 0.290039 -10 4.48047 -10 10c-0.55957 26.1299 -0.869141 46.8096 -0.869141 69.6299zM95.1289 707.631c0 21.0703 0.268555 40.25 0.868164 64.3701c24.7305 1.16992 47.0303 1.62012 68.1904 1.62012c26.8896 0 49.9395 -0.729492 75.8096 -1.61914
c5.51953 0 9.88965 -4.48047 10 -10.001c0.530273 -27 0.860352 -48.4004 0.860352 -72c0 -20.9404 -0.259766 -40.0605 -0.859375 -64.001c-18.0195 -0.849609 -34.7393 -1.19922 -50.6797 -1.19922c-23.7402 0 -61.9307 1.55957 -93.3203 3.19922
c-5.50977 0.290039 -10 4.48047 -10 10.001c-0.55957 26.1299 -0.869141 46.8096 -0.869141 69.6299z" />
    <glyph glyph-name="multiply" unicode="&#xd7;" horiz-adv-x="443" 
d="M83.3301 445.36l52.7676 50.8896c11.4697 -10.4404 52.1699 -50.3809 91.7002 -89.4404l101.49 97.0703c15.4902 -14.0898 32.0801 -30.0996 47.04 -45.0596l52.5205 -54.5c1.75977 -1.75977 2.62988 -4.05957 2.62988 -6.35938s-0.870117 -4.60938 -2.62988 -6.36914
l-90.6611 -94.9404l83.0205 -85.5098c1.73047 -1.73047 2.56055 -3.94043 2.56055 -6.19043c0 -2.30957 -0.879883 -4.65918 -2.55957 -6.53906c-5.51953 -6.17969 -22.5898 -23.5996 -40.5098 -41.5195l-51.4092 -50.4004c-9.57031 8.7002 -54.9902 53.1504 -91.8604 89.46
l-94.96 -90.7305c-15.4902 14.0898 -32.0801 30.0801 -47.0498 45.0498l-52.5098 54.5088c-1.74023 1.74023 -2.58984 3.98047 -2.58984 6.24023c0 2.30957 0.889648 4.63965 2.58984 6.47949l85.0801 89.1904l-82.54 86.1797
c-1.74023 1.74023 -2.58008 3.98047 -2.58008 6.24023c0 2.30957 0.879883 4.63965 2.58008 6.47949z" />
    <glyph glyph-name="Oslash" unicode="&#xd8;" 
d="M26 300.33c0 196.25 87.001 299.671 228.001 306.671c55.1797 0 101.89 -6.33984 140.409 -20.9795l43.4805 87.6504l54.2197 -25.3398l-47.3604 -89.7305c60.1797 -45.4902 89.25 -126.65 89.25 -258.271c0 -196.46 -89 -299.33 -230 -306.33
c-54.25 0 -100.17 6.09961 -138.11 20.1895l-43.7803 -87.8604l-54.2197 25.3398l47.3301 89.6797c-60.3701 45.1797 -89.2197 126.37 -89.2197 258.98zM234.991 300.331c0 -11.2998 0.168945 -21.6299 0.499023 -31.0996l29.4404 55.7695l44.5801 89.8604
c-8.19043 14.4199 -19.1201 17.1396 -31.5098 17.1396c-27 0 -43.0098 -12.8701 -43.0098 -131.67zM250.58 184.161c7.88965 -13.5303 18.3604 -16.1611 30.4199 -16.1611c27 0 44.0098 13.1797 44.0098 132.33c0 11.0303 -0.179688 21.1504 -0.509766 30.4307
l-15.7002 -29.7598z" />
    <glyph glyph-name="Ugrave" unicode="&#xd9;" horiz-adv-x="528" 
d="M118.75 775c25.29 1.21973 49.1299 1.73047 73.1104 1.73047c27.9492 0 56.0801 -0.69043 86.8896 -1.73047c5.51953 0 12.3701 -4.48047 15.29 -10l76.7002 -145c-55.2402 0 -103.311 1.05957 -161.061 4c-5.66016 0.290039 -12.3701 4.48047 -15.29 10
c-27.6494 50.25 -50.3193 90.7598 -75.6396 141zM27 296.33c0 99.6699 1.5 203.67 4 303.67c31.75 1.5 54.1299 2.25 87.3799 2.25c33.96 0 68.6699 -1.08008 102.62 -2.25c5.51953 0 10 -4.48047 10 -10c2 -94 4 -224 4 -324c0 -88.8203 13 -102 40 -102
s38 13.1797 38 102.33c0 99.6699 1.5 233.67 4 333.67c31.75 1.5 54.1299 2.25 87.3799 2.25c33.96 0 68.6699 -1.08008 102.62 -2.25c5.51953 0 10 -4.48047 10 -10c2 -94 4 -194 4 -293.67c0 -216.46 -82 -299.33 -223 -306.33c-180.06 0 -271 54.8203 -271 306.33z" />
    <glyph glyph-name="Uacute" unicode="&#xda;" horiz-adv-x="528" 
d="M182.8 630.25c0 4.80957 13.2402 24.1699 17.6602 31.25c24.1104 38.6299 46.96 72.0801 77.21 113.5c26.7998 1.21973 53.8301 1.73047 80.5605 1.73047c31.1592 0 61.9199 -0.69043 91.4395 -1.73047c3.37988 0 5.17969 -1.66992 5.17969 -4.24023
c0 -5.51953 -15.1494 -23.29 -20.2998 -29.7598c-32.2695 -40.4902 -69.1797 -76.29 -101.21 -119c-54.3398 0 -91.46 1.05957 -145.59 4c-3.26953 0.179688 -4.9502 1.73047 -4.9502 4.25zM27 296.33c0 99.6699 1.5 203.67 4 303.67c31.75 1.5 54.1299 2.25 87.3799 2.25
c33.96 0 68.6699 -1.08008 102.62 -2.25c5.51953 0 10 -4.48047 10 -10c2 -94 4 -224 4 -324c0 -88.8203 13 -102 40 -102s38 13.1797 38 102.33c0 99.6699 1.5 233.67 4 333.67c31.75 1.5 54.1299 2.25 87.3799 2.25c33.96 0 68.6699 -1.08008 102.62 -2.25
c5.51953 0 10 -4.48047 10 -10c2 -94 4 -194 4 -293.67c0 -216.46 -82 -299.33 -223 -306.33c-180.06 0 -271 54.8203 -271 306.33z" />
    <glyph glyph-name="Ucircumflex" unicode="&#xdb;" horiz-adv-x="528" 
d="M58.75 620.65c25.3203 49.2393 58.9902 96.75 92.6396 143c3.66992 5.0498 9.62988 8.70996 15.29 9c50.46 2.56934 93.3203 3.34961 141.32 3.34961c22 0 44.6699 -0.0302734 69.3398 -0.349609c32.1406 -36.1201 62.8203 -75.9102 94.3506 -117.98
c4.87988 -6.50977 20.2197 -24.5 20.2197 -29.71c0 -2.58008 -1.86035 -4.30957 -5.24023 -4.30957c-29.5195 -1.04004 -54.4902 -1.73047 -80.2998 -1.73047c-22.1396 0 -44.9004 0.5 -71.7002 1.73047c-27.29 37.3594 -43.5703 68.7998 -60.9697 102.71l-49.6602 -95.71
c-2.99023 -5.48047 -9.77051 -10 -15.29 -10c-30.8096 -1.04004 -56.0498 -1.73047 -81.3203 -1.73047c-21.6797 0 -43.3896 0.5 -68.6797 1.73047zM27 296.33c0 99.6699 1.5 203.67 4 303.67c31.75 1.5 54.1299 2.25 87.3799 2.25c33.96 0 68.6699 -1.08008 102.62 -2.25
c5.51953 0 10 -4.48047 10 -10c2 -94 4 -224 4 -324c0 -88.8203 13 -102 40 -102s38 13.1797 38 102.33c0 99.6699 1.5 233.67 4 333.67c31.75 1.5 54.1299 2.25 87.3799 2.25c33.96 0 68.6699 -1.08008 102.62 -2.25c5.51953 0 10 -4.48047 10 -10c2 -94 4 -194 4 -293.67
c0 -216.46 -82 -299.33 -223 -306.33c-180.06 0 -271 54.8203 -271 306.33z" />
    <glyph glyph-name="Udieresis" unicode="&#xdc;" horiz-adv-x="528" 
d="M27 296.33c0 99.6699 1.5 203.67 4 303.67c31.75 1.5 54.1299 2.25 87.3799 2.25c33.96 0 68.6699 -1.08008 102.62 -2.25c5.51953 0 10 -4.48047 10 -10c2 -94 4 -224 4 -324c0 -88.8203 13 -102 40 -102s38 13.1797 38 102.33c0 99.6699 1.5 233.67 4 333.67
c31.75 1.5 54.1299 2.25 87.3799 2.25c33.96 0 68.6699 -1.08008 102.62 -2.25c5.51953 0 10 -4.48047 10 -10c2 -94 4 -194 4 -293.67c0 -216.46 -82 -299.33 -223 -306.33c-180.06 0 -271 54.8203 -271 306.33zM307.13 707.63c0 21.0703 0.268555 40.251 0.868164 64.3711
c24.7305 1.16992 45.0303 1.62012 66.1904 1.62012c26.8896 0 51.9395 -0.729492 77.8096 -1.61914c5.51953 0 9.88965 -4.48047 10 -10.001c0.530273 -27 0.860352 -48.4004 0.860352 -72c0 -20.9404 -0.259766 -40.0605 -0.859375 -64.001
c-18.0195 -0.849609 -34.7393 -1.19922 -50.6797 -1.19922c-23.7402 0 -61.9307 1.55957 -93.3203 3.19922c-5.50977 0.290039 -10 4.48047 -10 10c-0.55957 26.1299 -0.869141 46.8096 -0.869141 69.6299zM85.1289 707.631c0 21.0703 0.268555 40.25 0.868164 64.3701
c24.7305 1.16992 47.0303 1.62012 68.1904 1.62012c26.8896 0 49.9395 -0.729492 75.8096 -1.61914c5.51953 0 9.88965 -4.48047 10 -10.001c0.530273 -27 0.860352 -48.4004 0.860352 -72c0 -20.9404 -0.259766 -40.0605 -0.859375 -64.001
c-18.0195 -0.849609 -34.7393 -1.19922 -50.6797 -1.19922c-23.7402 0 -61.9307 1.55957 -93.3203 3.19922c-5.50977 0.290039 -10 4.48047 -10 10.001c-0.55957 26.1299 -0.869141 46.8096 -0.869141 69.6299z" />
    <glyph glyph-name="Yacute" unicode="&#xdd;" horiz-adv-x="525" 
d="M182.8 630.25c0 4.80957 13.2402 24.1699 17.6602 31.25c24.1104 38.6299 46.96 72.0801 77.21 113.5c26.7998 1.21973 53.8301 1.73047 80.5605 1.73047c31.1592 0 61.9199 -0.69043 91.4395 -1.73047c3.37988 0 5.17969 -1.66992 5.17969 -4.24023
c0 -5.51953 -15.1494 -23.29 -20.2998 -29.7598c-32.2695 -40.4902 -69.1797 -76.29 -101.21 -119c-54.3398 0 -91.46 1.05957 -145.59 4c-3.26953 0.179688 -4.9502 1.73047 -4.9502 4.25zM8 596.41c33.5195 3.91992 68.9297 5.58984 104.66 5.58984
c26.8096 0 53.8096 -0.94043 80.3398 -2.58984c5.62988 -0.350586 13.3301 -4.04004 15.29 -10c22.1201 -67.1299 45.4102 -150.351 64.0498 -218.03c18.6406 67.6797 41.9404 150.9 64.0605 218.03c1.95996 5.95996 9.65918 9.64941 15.29 10
c26.5293 1.64941 53.5293 2.58984 80.3398 2.58984c35.7393 0 71.1396 -1.66992 104.66 -5.58984c-17.6904 -75.7998 -44.0703 -177.7 -83.3408 -255c-22.8398 -39.0205 -51.04 -69.6299 -80.79 -94.1006c0.930664 -82.4395 2.03027 -164.869 2.44043 -247.31
c-31.75 -1.5 -56.1299 -2.25 -89.3799 -2.25c-33.96 0 -70.6699 1.08008 -104.62 2.25c-5.51953 0 -10 4.48047 -10 10c0 77.3203 0.669922 156 1.46973 237.14c-29.7793 24.5303 -58.1094 54.9707 -81.1201 94.2705c-39.2695 77.2998 -65.6592 179.2 -83.3496 255z" />
    <glyph glyph-name="Thorn" unicode="&#xde;" horiz-adv-x="510" 
d="M246 300c0 -12.6797 0.0585938 -25.3613 0.158203 -38.041l9.65039 -0.00976562c27.1797 0 51.2002 6.24023 51.2002 55.3906c0 52.1396 -4.41992 59.04 -44.2002 59.04c-4.71973 -0.00976562 -10.2393 0 -16.2988 -0.00976562
c-0.30957 -25.21 -0.509766 -50.6602 -0.509766 -76.3701zM45.999 299.998c0 100 1.49902 199.998 3.99902 299.998c31.75 1.5 54.1299 2.25 87.3799 2.25c33.96 0 68.6699 -1.08008 102.62 -2.25c5.51953 0 10 -4.23047 10 -10
c0 -11.29 -0.349609 -30.6396 -0.580078 -43.0293c162.76 -0.939453 260.58 -25.7393 260.58 -226.64c0 -177.22 -97.8799 -220.979 -261.22 -222.3c0.580078 -32.6797 1.06055 -65.3496 1.2207 -98.0293c-31.75 -1.5 -54.1299 -2.25 -87.3799 -2.25
c-33.96 0 -68.6699 1.08008 -102.62 2.25c-5.51953 0 -10 4.48047 -10 10c-2 94 -4 190 -4 290z" />
    <glyph glyph-name="germandbls" unicode="&#xdf;" horiz-adv-x="571" 
d="M38 305c0 249.68 100.999 301.999 268.999 301.999c72.0498 0 149.109 -5.62988 217.999 -18c-17.8096 -80.25 -43.5791 -179.38 -61.1592 -245.18c58.2598 -29.0098 111.16 -78.2002 111.16 -166.49c0 -142.2 -92.5 -183.641 -207.92 -183.641
c-29.8896 0 -61.3193 2.78027 -93.0791 7.31055l21.5996 159.42c18.1504 -4.33008 39.1504 -8.46973 50.21 -8.46973c15.7197 0 26.2002 9.36035 26.2002 23.3906c0 22.1201 -44.6797 33.6006 -83.0898 42.5703c7.30957 66.0303 22.2695 172.84 30.0791 219.12h-24.8096
c-28.1797 0 -51.1895 -13.3604 -51.1895 -132.03c0 -100 -2.5 -205 -5 -305c-31.75 -1.5 -52.1299 -2.25 -85.3799 -2.25c-33.96 0 -66.6699 1.08008 -100.62 2.25c-5.51953 0 -10 4.48047 -10 10c-2 94 -4 195 -4 295z" />
    <glyph glyph-name="agrave" unicode="&#xe0;" horiz-adv-x="520" 
d="M114.75 775c25.29 1.21973 49.1299 1.73047 73.1104 1.73047c27.9492 0 56.0801 -0.69043 86.8896 -1.73047c5.51953 0 12.3701 -4.48047 15.29 -10l76.7002 -145c-55.2402 0 -103.311 1.05957 -161.061 4c-5.66016 0.290039 -12.3701 4.48047 -15.29 10
c-27.6494 50.25 -50.3193 90.7598 -75.6396 141zM9.70996 8.25c0 2.32031 3.2002 21.1797 4.83984 31.29c29.6201 182.85 72.2598 376.24 109.351 560.46c44.6191 2.08984 90.6699 2.25 137.479 2.25c48.6104 0 95.1504 -0.620117 142.72 -2.25
c5.52051 0 10.79 -4.48047 11.7607 -10c37.8301 -191.47 84.6592 -395.83 114.04 -590c-31.4902 -1.5 -53.7305 -2.25 -86.9805 -2.25c-33.96 0 -63.8604 0.0800781 -98.0195 2.25c-5.51074 0.349609 -10.6699 4.5 -11.7607 10
c-6.51953 32.9697 -12.5098 66.3496 -18.1094 100h-92.8701c-5.50977 -36.96 -11.75 -73.6797 -19.0605 -110c-32.0098 -1.5 -49.5195 -2.25 -82.7695 -2.25c-33.96 0 -68.4902 1.08008 -102.23 2.25c-4.91992 0 -8.38965 3.55957 -8.38965 8.25zM239.08 240h56.0498
l-30.7998 224.34c-9.11035 -74.0596 -16.5605 -149.29 -25.25 -224.34z" />
    <glyph glyph-name="aacute" unicode="&#xe1;" horiz-adv-x="520" 
d="M178.8 630.25c0 4.80957 13.2402 24.1699 17.6602 31.25c24.1104 38.6299 46.96 72.0801 77.21 113.5c26.7998 1.21973 53.8301 1.73047 80.5605 1.73047c31.1592 0 61.9199 -0.69043 91.4395 -1.73047c3.37988 0 5.17969 -1.66992 5.17969 -4.24023
c0 -5.51953 -15.1494 -23.29 -20.2998 -29.7598c-32.2695 -40.4902 -69.1797 -76.29 -101.21 -119c-54.3398 0 -91.46 1.05957 -145.59 4c-3.26953 0.179688 -4.9502 1.73047 -4.9502 4.25zM9.70996 8.25c0 2.32031 3.2002 21.1797 4.83984 31.29
c29.6201 182.85 72.2598 376.24 109.351 560.46c44.6191 2.08984 90.6699 2.25 137.479 2.25c48.6104 0 95.1504 -0.620117 142.72 -2.25c5.52051 0 10.79 -4.48047 11.7607 -10c37.8301 -191.47 84.6592 -395.83 114.04 -590c-31.4902 -1.5 -53.7305 -2.25 -86.9805 -2.25
c-33.96 0 -63.8604 0.0800781 -98.0195 2.25c-5.51074 0.349609 -10.6699 4.5 -11.7607 10c-6.51953 32.9697 -12.5098 66.3496 -18.1094 100h-92.8701c-5.50977 -36.96 -11.75 -73.6797 -19.0605 -110c-32.0098 -1.5 -49.5195 -2.25 -82.7695 -2.25
c-33.96 0 -68.4902 1.08008 -102.23 2.25c-4.91992 0 -8.38965 3.55957 -8.38965 8.25zM239.08 240h56.0498l-30.7998 224.34c-9.11035 -74.0596 -16.5605 -149.29 -25.25 -224.34z" />
    <glyph glyph-name="acircumflex" unicode="&#xe2;" horiz-adv-x="520" 
d="M54.75 620.65c25.3203 49.2393 58.9902 96.75 92.6396 143c3.66992 5.0498 9.62988 8.70996 15.29 9c50.46 2.56934 93.3203 3.34961 141.32 3.34961c22 0 44.6699 -0.0302734 69.3398 -0.349609c32.1406 -36.1201 62.8203 -75.9102 94.3506 -117.98
c4.87988 -6.50977 20.2197 -24.5 20.2197 -29.71c0 -2.58008 -1.86035 -4.30957 -5.24023 -4.30957c-29.5195 -1.04004 -54.4902 -1.73047 -80.2998 -1.73047c-22.1396 0 -44.9004 0.5 -71.7002 1.73047c-27.29 37.3594 -43.5703 68.7998 -60.9697 102.71l-49.6602 -95.71
c-2.99023 -5.48047 -9.77051 -10 -15.29 -10c-30.8096 -1.04004 -56.0498 -1.73047 -81.3203 -1.73047c-21.6797 0 -43.3896 0.5 -68.6797 1.73047zM9.70996 8.25c0 2.32031 3.2002 21.1797 4.83984 31.29c29.6201 182.85 72.2598 376.24 109.351 560.46
c44.6191 2.08984 90.6699 2.25 137.479 2.25c48.6104 0 95.1504 -0.620117 142.72 -2.25c5.52051 0 10.79 -4.48047 11.7607 -10c37.8301 -191.47 84.6592 -395.83 114.04 -590c-31.4902 -1.5 -53.7305 -2.25 -86.9805 -2.25c-33.96 0 -63.8604 0.0800781 -98.0195 2.25
c-5.51074 0.349609 -10.6699 4.5 -11.7607 10c-6.51953 32.9697 -12.5098 66.3496 -18.1094 100h-92.8701c-5.50977 -36.96 -11.75 -73.6797 -19.0605 -110c-32.0098 -1.5 -49.5195 -2.25 -82.7695 -2.25c-33.96 0 -68.4902 1.08008 -102.23 2.25
c-4.91992 0 -8.38965 3.55957 -8.38965 8.25zM239.08 240h56.0498l-30.7998 224.34c-9.11035 -74.0596 -16.5605 -149.29 -25.25 -224.34z" />
    <glyph glyph-name="atilde" unicode="&#xe3;" horiz-adv-x="520" 
d="M72.0195 728.79c0 3.45996 1.79004 6.83008 5 8.67969c55.3906 34.5801 85.9805 44.5303 115.98 45.5303c45.2305 0 83 -26 126 -26c24 0 52.3799 9.41016 90.7598 29.21c19.6807 -32.1904 33 -55.8203 42.4707 -73c7.09961 -12.8896 16.8193 -28.5703 16.8193 -32.9404
c0 -3.42969 -1.84961 -6.7793 -4.9502 -8.89941c-51.5801 -35.3203 -92.0996 -49.3701 -122.1 -49.3701c-43 0 -73.7402 22 -116 22c-24 0 -52.0801 -8.46973 -90.6396 -28.3701l-40.9199 70.0801c-10.0801 18.0801 -22.4209 38.2197 -22.4209 43.0801zM9.70996 8.25
c0 2.32031 3.2002 21.1797 4.83984 31.29c29.6201 182.85 72.2598 376.24 109.351 560.46c44.6191 2.08984 90.6699 2.25 137.479 2.25c48.6104 0 95.1504 -0.620117 142.72 -2.25c5.52051 0 10.79 -4.48047 11.7607 -10c37.8301 -191.47 84.6592 -395.83 114.04 -590
c-31.4902 -1.5 -53.7305 -2.25 -86.9805 -2.25c-33.96 0 -63.8604 0.0800781 -98.0195 2.25c-5.51074 0.349609 -10.6699 4.5 -11.7607 10c-6.51953 32.9697 -12.5098 66.3496 -18.1094 100h-92.8701c-5.50977 -36.96 -11.75 -73.6797 -19.0605 -110
c-32.0098 -1.5 -49.5195 -2.25 -82.7695 -2.25c-33.96 0 -68.4902 1.08008 -102.23 2.25c-4.91992 0 -8.38965 3.55957 -8.38965 8.25zM239.08 240h56.0498l-30.7998 224.34c-9.11035 -74.0596 -16.5605 -149.29 -25.25 -224.34z" />
    <glyph glyph-name="adieresis" unicode="&#xe4;" horiz-adv-x="520" 
d="M9.87012 10c29.6895 191.47 74.9395 395.83 114.03 590c44.6191 2.08984 90.6699 2.25 137.479 2.25c48.6104 0 95.1504 -0.620117 142.72 -2.25c5.52051 0 10.79 -4.48047 11.7607 -10c37.8301 -191.47 84.6592 -395.83 114.04 -590
c-31.4902 -1.5 -53.7305 -2.25 -86.9805 -2.25c-33.96 0 -63.8604 0.0800781 -98.0195 2.25c-5.51074 0.349609 -10.6699 4.5 -11.7607 10c-6.51953 32.9697 -12.5098 66.3496 -18.1094 100h-92.8701c-5.50977 -36.96 -11.75 -73.6797 -19.0605 -110
c-32.0098 -1.5 -49.5195 -2.25 -82.7695 -2.25c-33.96 0 -68.4902 1.08008 -102.23 2.25c-5.51953 0 -9.19922 4.48047 -8.22949 10zM239.08 240h56.0498l-30.7998 224.34c-9.11035 -74.0596 -16.5605 -149.29 -25.25 -224.34zM303.13 707.63
c0 21.0703 0.270508 40.25 0.870117 64.3701c24.7305 1.16992 45.0303 1.62012 66.1904 1.62012c26.8896 0 51.9395 -0.730469 77.8096 -1.62012c5.51953 0 9.88965 -4.48047 10 -10c0.530273 -27 0.860352 -48.4004 0.860352 -72
c0 -20.9404 -0.260742 -40.0596 -0.860352 -64c-18.0195 -0.849609 -34.7402 -1.2002 -50.6797 -1.2002c-23.7402 0 -61.9307 1.56055 -93.3203 3.2002c-5.50977 0.290039 -10 4.48047 -10 10c-0.55957 26.1299 -0.870117 46.8096 -0.870117 69.6299zM81.1299 707.63
c0 21.0703 0.270508 40.25 0.870117 64.3701c24.7305 1.16992 47.0303 1.62012 68.1904 1.62012c26.8896 0 49.9395 -0.730469 75.8096 -1.62012c5.51953 0 9.88965 -4.48047 10 -10c0.530273 -27 0.860352 -48.4004 0.860352 -72
c0 -20.9404 -0.260742 -40.0596 -0.860352 -64c-18.0195 -0.849609 -34.7402 -1.2002 -50.6797 -1.2002c-23.7402 0 -61.9307 1.56055 -93.3203 3.2002c-5.50977 0.290039 -10 4.48047 -10 10c-0.55957 26.1299 -0.870117 46.8096 -0.870117 69.6299z" />
    <glyph glyph-name="aring" unicode="&#xe5;" horiz-adv-x="520" 
d="M9.70996 8.25c0 2.32031 3.2002 21.1797 4.83984 31.29c29.6201 182.85 72.2598 376.24 109.351 560.46c35.4893 1.62012 69.8301 2.07031 105.72 2.2002c-44.8604 10.8994 -62.7705 39.0693 -62.7705 87.04c0 55.21 36.6904 90.0098 92.7803 92.79
c83.8896 0 113.521 -29.4902 113.521 -92.79c0 -44.46 -22.8506 -75.4805 -61.21 -87.2402c30.8496 -0.30957 61.2793 -0.94043 92.1592 -2c5.52051 0 10.79 -4.48047 11.7607 -10c37.8301 -191.47 84.6592 -395.83 114.04 -590
c-31.4902 -1.5 -53.7305 -2.25 -86.9805 -2.25c-33.96 0 -63.8604 0.0800781 -98.0195 2.25c-5.51074 0.349609 -10.6699 4.5 -11.7607 10c-6.51953 32.9697 -12.5098 66.3496 -18.1094 100h-92.8701c-5.50977 -36.96 -11.75 -73.6797 -19.0605 -110
c-32.0098 -1.5 -48.5195 -2.25 -82.7695 -2.25c-33.96 0 -68.4902 1.08008 -102.23 2.25c-4.91992 0 -8.38965 3.55957 -8.38965 8.25zM249.99 689.14c0 -18.6094 6.08008 -22.29 20.0098 -22.29c12.7695 0 20.0098 3.07031 20.0098 22.29
c0 19.2305 -8.0293 22.29 -22.1797 22.29c-10.5098 0 -17.8398 -3.67969 -17.8398 -22.29zM239.08 240h56.0498l-30.7998 224.34c-9.11035 -74.0596 -16.5605 -149.29 -25.25 -224.34z" />
    <glyph glyph-name="ae" unicode="&#xe6;" horiz-adv-x="724" 
d="M9.70996 8.25c0 2.32031 3.2002 21.1797 4.83984 31.29c29.6201 182.85 72.2598 376.24 109.351 560.46c102.81 3.0498 143.229 3.33008 290.649 3.33008c118.771 0 178.7 -0.580078 287.45 -3.33008c5.51953 -0.139648 9.90039 -4.48047 10 -10
c0.540039 -30.4297 0.910156 -58.3398 0.910156 -86.4404c0 -23.8193 -0.259766 -47.7793 -0.910156 -73.5596c-31.75 -1.5 -126 -2 -159 -2c-6.32031 0 -19.9199 0.0898438 -38.1104 0.259766c-0.199219 -17.1699 -0.389648 -34.5498 -0.540039 -52.4102
c39.8701 -0.290039 94.1602 -0.969727 119.65 -1.84961c5.51953 0 9.88965 -4.48047 10 -10c0.530273 -27.2197 0.860352 -51.0996 0.860352 -75.1699c0 -21.2998 -0.260742 -42.7598 -0.860352 -66.8301h-129.65c0.150391 -17.5801 0.350586 -34.8096 0.540039 -52h12.1104
c34 0 143.05 -0.830078 177 -2c5.51953 0 9.90039 -4.48047 10 -10c0.540039 -30.4297 0.910156 -58.3301 0.910156 -86.4297c0 -23.8203 -0.259766 -47.79 -0.910156 -73.5703c-31.75 -1.5 -138.13 -2.25 -171.38 -2.25c-33.96 0 -178.67 3.08008 -212.62 4.25
c-5.51953 0 -10 4.48047 -10 10c-1.4502 68.0303 -2.88965 137.11 -3.58008 208h-79.9297c-8.77051 -73.4004 -18.9902 -146.48 -33.3906 -218c-32.0098 -1.5 -49.5195 -2.25 -82.7695 -2.25c-33.96 0 -68.4902 1.08008 -102.23 2.25
c-4.91992 0 -8.38965 3.55957 -8.38965 8.25zM252.91 365h63.2998c0.139648 21.8701 0.330078 49.7402 0.599609 71.6104c-22.46 0.319336 -42.1191 0.629883 -56.4092 0.90918c-3.58008 -22.0996 -6.05078 -50.2891 -7.49023 -72.5195z" />
    <glyph glyph-name="ccedilla" unicode="&#xe7;" horiz-adv-x="415" 
d="M26 300.33c0 235.15 106 306.67 275 306.67c41.1504 0 73.7402 -7.2998 114 -17l-21.3799 -156.75l-92.4297 6.12988c-36.4707 2.41992 -66.2002 -20.25 -66.2002 -139.05c0 -119.15 25.7793 -142.061 66.2002 -139.38l92.4297 6.12988l20.3799 -158.08
c-39.1504 -7.26953 -71.1797 -10.7402 -110.41 -10.9902c53.4697 -21.9502 80.5898 -55.7793 80.5898 -99.8398c0 -56.5996 -52.3594 -98.2695 -159.149 -98.2695c-41.3506 0 -45.3301 3.44922 -78 9l13 100l23.8193 -3.05078
c54.0508 -6.91992 57.2002 43.25 2.68066 47.0508l6.63965 55.2695c-105.08 24.5498 -167.17 99.9004 -167.17 292.16z" />
    <glyph glyph-name="egrave" unicode="&#xe8;" horiz-adv-x="454" 
d="M87.75 775c25.29 1.21973 49.1299 1.73047 73.1104 1.73047c27.9492 0 56.0801 -0.69043 86.8896 -1.73047c5.51953 0 12.3701 -4.48047 15.29 -10l76.7002 -145c-55.2402 0 -103.311 1.05957 -161.061 4c-5.66016 0.290039 -12.3701 4.48047 -15.29 10
c-27.6494 50.25 -50.3193 90.7598 -75.6396 141zM46 300c0 100 1.5 200 4 300c31.75 1.5 174.13 2.25 207.38 2.25c33.96 0 140.67 -1.08008 174.62 -2.25c5.51953 0 9.90039 -4.48047 10 -10c0.540039 -30.4297 0.910156 -58.3398 0.910156 -86.4404
c0 -23.8193 -0.270508 -47.7793 -0.910156 -73.5596c-31.75 -1.5 -126 -2 -159 -2c-7.58008 0 -21.1797 0.139648 -38.1104 0.370117c-0.199219 -17.21 -0.389648 -34.6201 -0.540039 -52.5205c39.8701 -0.290039 94.1602 -0.969727 119.65 -1.84961
c5.51953 0 9.88965 -4.48047 10 -10c0.530273 -27.2197 0.860352 -51.0996 0.860352 -75.1699c0 -21.2998 -0.260742 -42.7598 -0.860352 -66.8301h-129.65c0.150391 -17.5801 0.350586 -34.8096 0.540039 -52h12.1104c34 0 143.05 -0.830078 177 -2
c5.51953 0 9.90039 -4.48047 10 -10c0.540039 -30.4297 0.910156 -58.3301 0.910156 -86.4297c0 -23.8203 -0.270508 -47.79 -0.910156 -73.5703c-31.75 -1.5 -138.13 -2.25 -171.38 -2.25c-33.96 0 -178.67 3.08008 -212.62 4.25c-5.51953 0 -10 4.48047 -10 10
c-2 94 -4 190 -4 290z" />
    <glyph glyph-name="eacute" unicode="&#xe9;" horiz-adv-x="454" 
d="M151.8 630.25c0 4.80957 13.2402 24.1699 17.6602 31.25c24.1104 38.6299 46.96 72.0801 77.21 113.5c26.7998 1.21973 53.8301 1.73047 80.5605 1.73047c31.1592 0 61.9199 -0.69043 91.4395 -1.73047c3.37988 0 5.17969 -1.66992 5.17969 -4.24023
c0 -5.51953 -15.1494 -23.29 -20.2998 -29.7598c-32.2695 -40.4902 -69.1797 -76.29 -101.21 -119c-54.3398 0 -91.46 1.05957 -145.59 4c-3.26953 0.179688 -4.9502 1.73047 -4.9502 4.25zM46 300c0 100 1.5 200 4 300c31.75 1.5 174.13 2.25 207.38 2.25
c33.96 0 140.67 -1.08008 174.62 -2.25c5.51953 0 9.90039 -4.48047 10 -10c0.540039 -30.4297 0.910156 -58.3398 0.910156 -86.4404c0 -23.8193 -0.270508 -47.7793 -0.910156 -73.5596c-31.75 -1.5 -126 -2 -159 -2c-7.58008 0 -21.1797 0.139648 -38.1104 0.370117
c-0.199219 -17.21 -0.389648 -34.6201 -0.540039 -52.5205c39.8701 -0.290039 94.1602 -0.969727 119.65 -1.84961c5.51953 0 9.88965 -4.48047 10 -10c0.530273 -27.2197 0.860352 -51.0996 0.860352 -75.1699c0 -21.2998 -0.260742 -42.7598 -0.860352 -66.8301h-129.65
c0.150391 -17.5801 0.350586 -34.8096 0.540039 -52h12.1104c34 0 143.05 -0.830078 177 -2c5.51953 0 9.90039 -4.48047 10 -10c0.540039 -30.4297 0.910156 -58.3301 0.910156 -86.4297c0 -23.8203 -0.270508 -47.79 -0.910156 -73.5703
c-31.75 -1.5 -138.13 -2.25 -171.38 -2.25c-33.96 0 -178.67 3.08008 -212.62 4.25c-5.51953 0 -10 4.48047 -10 10c-2 94 -4 190 -4 290z" />
    <glyph glyph-name="ecircumflex" unicode="&#xea;" horiz-adv-x="454" 
d="M27.75 620.65c25.3203 49.2393 58.9902 96.75 92.6396 143c3.66992 5.0498 9.62988 8.70996 15.29 9c50.46 2.56934 93.3203 3.34961 141.32 3.34961c22 0 44.6699 -0.0302734 69.3398 -0.349609c32.1406 -36.1201 62.8203 -75.9102 94.3506 -117.98
c4.87988 -6.50977 20.2197 -24.5 20.2197 -29.71c0 -2.58008 -1.86035 -4.30957 -5.24023 -4.30957c-29.5195 -1.04004 -54.4902 -1.73047 -80.2998 -1.73047c-22.1396 0 -44.9004 0.5 -71.7002 1.73047c-27.29 37.3594 -43.5703 68.7998 -60.9697 102.71l-49.6602 -95.71
c-2.99023 -5.48047 -9.77051 -10 -15.29 -10c-30.8096 -1.04004 -56.0498 -1.73047 -81.3203 -1.73047c-21.6797 0 -43.3896 0.5 -68.6797 1.73047zM46 300c0 100 1.5 200 4 300c31.75 1.5 174.13 2.25 207.38 2.25c33.96 0 140.67 -1.08008 174.62 -2.25
c5.51953 0 9.90039 -4.48047 10 -10c0.540039 -30.4297 0.910156 -58.3398 0.910156 -86.4404c0 -23.8193 -0.270508 -47.7793 -0.910156 -73.5596c-31.75 -1.5 -126 -2 -159 -2c-7.58008 0 -21.1797 0.139648 -38.1104 0.370117
c-0.199219 -17.21 -0.389648 -34.6201 -0.540039 -52.5205c39.8701 -0.290039 94.1602 -0.969727 119.65 -1.84961c5.51953 0 9.88965 -4.48047 10 -10c0.530273 -27.2197 0.860352 -51.0996 0.860352 -75.1699c0 -21.2998 -0.260742 -42.7598 -0.860352 -66.8301h-129.65
c0.150391 -17.5801 0.350586 -34.8096 0.540039 -52h12.1104c34 0 143.05 -0.830078 177 -2c5.51953 0 9.90039 -4.48047 10 -10c0.540039 -30.4297 0.910156 -58.3301 0.910156 -86.4297c0 -23.8203 -0.270508 -47.79 -0.910156 -73.5703
c-31.75 -1.5 -138.13 -2.25 -171.38 -2.25c-33.96 0 -178.67 3.08008 -212.62 4.25c-5.51953 0 -10 4.48047 -10 10c-2 94 -4 190 -4 290z" />
    <glyph glyph-name="edieresis" unicode="&#xeb;" horiz-adv-x="454" 
d="M276.13 707.63c0 21.0703 0.270508 40.25 0.870117 64.3701c24.7305 1.16992 45.0303 1.62012 66.1904 1.62012c26.8896 0 51.9395 -0.730469 77.8096 -1.62012c5.51953 0 9.88965 -4.48047 10 -10c0.530273 -27 0.860352 -48.4004 0.860352 -72
c0 -20.9404 -0.260742 -40.0596 -0.860352 -64c-18.0195 -0.849609 -34.7402 -1.2002 -50.6797 -1.2002c-23.7402 0 -61.9307 1.56055 -93.3203 3.2002c-5.50977 0.290039 -10 4.48047 -10 10c-0.55957 26.1299 -0.870117 46.8096 -0.870117 69.6299zM54.1299 707.63
c0 21.0703 0.270508 40.25 0.870117 64.3701c24.7305 1.16992 47.0303 1.62012 68.1904 1.62012c26.8896 0 49.9395 -0.730469 75.8096 -1.62012c5.51953 0 9.88965 -4.48047 10 -10c0.530273 -27 0.860352 -48.4004 0.860352 -72
c0 -20.9404 -0.260742 -40.0596 -0.860352 -64c-18.0195 -0.849609 -34.7402 -1.2002 -50.6797 -1.2002c-23.7402 0 -61.9307 1.56055 -93.3203 3.2002c-5.50977 0.290039 -10 4.48047 -10 10c-0.55957 26.1299 -0.870117 46.8096 -0.870117 69.6299zM46 300
c0 100 1.5 200 4 300c31.75 1.5 174.13 2.25 207.38 2.25c33.96 0 140.67 -1.08008 174.62 -2.25c5.51953 0 9.90039 -4.48047 10 -10c0.540039 -30.4297 0.910156 -58.3398 0.910156 -86.4404c0 -23.8193 -0.270508 -47.7793 -0.910156 -73.5596
c-31.75 -1.5 -126 -2 -159 -2c-7.58008 0 -21.1797 0.139648 -38.1104 0.370117c-0.199219 -17.21 -0.389648 -34.6201 -0.540039 -52.5205c39.8701 -0.290039 94.1602 -0.969727 119.65 -1.84961c5.51953 0 9.88965 -4.48047 10 -10
c0.530273 -27.2197 0.860352 -51.0996 0.860352 -75.1699c0 -21.2998 -0.260742 -42.7598 -0.860352 -66.8301h-129.65c0.150391 -17.5801 0.350586 -34.8096 0.540039 -52h12.1104c34 0 143.05 -0.830078 177 -2c5.51953 0 9.90039 -4.48047 10 -10
c0.540039 -30.4297 0.910156 -58.3301 0.910156 -86.4297c0 -23.8203 -0.270508 -47.79 -0.910156 -73.5703c-31.75 -1.5 -138.13 -2.25 -171.38 -2.25c-33.96 0 -178.67 3.08008 -212.62 4.25c-5.51953 0 -10 4.48047 -10 10c-2 94 -4 190 -4 290z" />
    <glyph glyph-name="igrave" unicode="&#xec;" horiz-adv-x="280" 
d="M-10.25 775c25.29 1.21973 49.1299 1.73047 73.1104 1.73047c27.9492 0 56.0801 -0.69043 86.8896 -1.73047c5.51953 0 12.3701 -4.48047 15.29 -10l76.7002 -145c-55.2402 0 -103.311 1.05957 -161.061 4c-5.66016 0.290039 -12.3701 4.48047 -15.29 10
c-27.6494 50.25 -50.3193 90.7598 -75.6396 141zM46 300c0 100 1.5 200 4 300c31.75 1.5 54.1299 2.25 87.3799 2.25c33.96 0 68.6699 -1.08008 102.62 -2.25c5.51953 0 10 -4.48047 10 -10c2 -94 4 -190 4 -290s-1.5 -200 -4 -300
c-31.75 -1.5 -54.1299 -2.25 -87.3799 -2.25c-33.96 0 -68.6699 1.08008 -102.62 2.25c-5.51953 0 -10 4.48047 -10 10c-2 94 -4 190 -4 290z" />
    <glyph glyph-name="iacute" unicode="&#xed;" horiz-adv-x="280" 
d="M53.7998 630.25c0 4.80957 13.2402 24.1699 17.6602 31.25c24.1104 38.6299 46.96 72.0801 77.21 113.5c26.7998 1.21973 53.8301 1.73047 80.5605 1.73047c31.1592 0 61.9199 -0.69043 91.4395 -1.73047c3.37988 0 5.17969 -1.66992 5.17969 -4.24023
c0 -5.51953 -15.1494 -23.29 -20.2998 -29.7598c-32.2695 -40.4902 -69.1797 -76.29 -101.21 -119c-54.3398 0 -91.46 1.05957 -145.59 4c-3.26953 0.179688 -4.9502 1.73047 -4.9502 4.25zM46 300c0 100 1.5 200 4 300c31.75 1.5 54.1299 2.25 87.3799 2.25
c33.96 0 68.6699 -1.08008 102.62 -2.25c5.51953 0 10 -4.48047 10 -10c2 -94 4 -190 4 -290s-1.5 -200 -4 -300c-31.75 -1.5 -54.1299 -2.25 -87.3799 -2.25c-33.96 0 -68.6699 1.08008 -102.62 2.25c-5.51953 0 -10 4.48047 -10 10c-2 94 -4 190 -4 290z" />
    <glyph glyph-name="icircumflex" unicode="&#xee;" horiz-adv-x="280" 
d="M-70.25 620.65c25.3203 49.2393 58.9902 96.75 92.6396 143c3.66992 5.0498 9.62988 8.70996 15.29 9c50.46 2.56934 93.3203 3.34961 141.32 3.34961c22 0 44.6699 -0.0302734 69.3398 -0.349609c32.1406 -36.1201 62.8203 -75.9102 94.3506 -117.98
c4.87988 -6.50977 20.2197 -24.5 20.2197 -29.71c0 -2.58008 -1.86035 -4.30957 -5.24023 -4.30957c-29.5195 -1.04004 -54.4902 -1.73047 -80.2998 -1.73047c-22.1396 0 -44.9004 0.5 -71.7002 1.73047c-27.29 37.3594 -43.5703 68.7998 -60.9697 102.71l-49.6602 -95.71
c-2.99023 -5.48047 -9.77051 -10 -15.29 -10c-30.8096 -1.04004 -56.0498 -1.73047 -81.3203 -1.73047c-21.6797 0 -43.3896 0.5 -68.6797 1.73047zM46 300c0 100 1.5 200 4 300c31.75 1.5 54.1299 2.25 87.3799 2.25c33.96 0 68.6699 -1.08008 102.62 -2.25
c5.51953 0 10 -4.48047 10 -10c2 -94 4 -190 4 -290s-1.5 -200 -4 -300c-31.75 -1.5 -54.1299 -2.25 -87.3799 -2.25c-33.96 0 -68.6699 1.08008 -102.62 2.25c-5.51953 0 -10 4.48047 -10 10c-2 94 -4 190 -4 290z" />
    <glyph glyph-name="idieresis" unicode="&#xef;" horiz-adv-x="280" 
d="M178.13 707.63c0 21.0703 0.270508 40.25 0.870117 64.3701c24.7305 1.16992 45.0303 1.62012 66.1904 1.62012c26.8896 0 51.9395 -0.730469 77.8096 -1.62012c5.51953 0 9.88965 -4.48047 10 -10c0.530273 -27 0.860352 -48.4004 0.860352 -72
c0 -20.9404 -0.260742 -40.0596 -0.860352 -64c-18.0195 -0.849609 -34.7402 -1.2002 -50.6797 -1.2002c-23.7402 0 -61.9307 1.56055 -93.3203 3.2002c-5.50977 0.290039 -10 4.48047 -10 10c-0.55957 26.1299 -0.870117 46.8096 -0.870117 69.6299zM-43.8701 707.63
c0 21.0703 0.270508 40.25 0.870117 64.3701c24.7305 1.16992 47.0303 1.62012 68.1904 1.62012c26.8896 0 49.9395 -0.730469 75.8096 -1.62012c5.51953 0 9.88965 -4.48047 10 -10c0.530273 -27 0.860352 -48.4004 0.860352 -72
c0 -20.9404 -0.260742 -40.0596 -0.860352 -64c-18.0195 -0.849609 -34.7402 -1.2002 -50.6797 -1.2002c-23.7402 0 -61.9307 1.56055 -93.3203 3.2002c-5.50977 0.290039 -10 4.48047 -10 10c-0.55957 26.1299 -0.870117 46.8096 -0.870117 69.6299zM46 300
c0 100 1.5 200 4 300c31.75 1.5 54.1299 2.25 87.3799 2.25c33.96 0 68.6699 -1.08008 102.62 -2.25c5.51953 0 10 -4.48047 10 -10c2 -94 4 -190 4 -290s-1.5 -200 -4 -300c-31.75 -1.5 -54.1299 -2.25 -87.3799 -2.25c-33.96 0 -68.6699 1.08008 -102.62 2.25
c-5.51953 0 -10 4.48047 -10 10c-2 94 -4 190 -4 290z" />
    <glyph glyph-name="eth" unicode="&#xf0;" 
d="M10.8799 301.3c0 18.9805 0.310547 40.1504 1.12012 72.7002c10.3701 0.490234 22.9404 0.900391 36.3301 1.23047c0.570312 71.5498 1.66992 140.409 1.66992 214.77c66.8398 10.3301 153 17 209 17c169 0 261 -71.5195 261 -306.67
c0 -250.021 -91 -302.33 -259 -302.33c-55 0 -131.93 5.99023 -201 12c-5.51953 0 -10 4.48047 -10 10c0 66.9902 -1.01953 129.9 -1.59961 196.7c-8.36035 0.509766 -17.0303 0.979492 -26.4004 1.2998c-5.51953 0 -9.87012 4.48047 -10 10
c-0.620117 25.9102 -1.12012 48.9902 -1.12012 73.2998zM246.7 374.78c11.3994 -0.25 21.5195 -0.510742 29.2998 -0.780273c5.51953 0 9.82031 -4.48047 10 -10c0.75 -23.0801 1 -35 1 -85c0 -20 -0.459961 -41.3096 -1 -63
c-6.40039 -0.299805 -20.9697 -0.620117 -39.21 -0.919922c0.280273 -15.9697 0.610352 -31.5605 0.950195 -47.1299h27.0693c27.1807 0 50.2002 13.2295 50.2002 132.38c0 118.8 -23.0195 132.05 -50.2002 132.05h-26.8896
c-0.439453 -18.8496 -0.879883 -37.8701 -1.21973 -57.5996z" />
    <glyph glyph-name="ntilde" unicode="&#xf1;" horiz-adv-x="550" 
d="M90.0195 728.79c0 3.45996 1.79004 6.83008 5 8.67969c55.3906 34.5801 85.9805 44.5303 115.98 45.5303c45.2305 0 83 -26 126 -26c24 0 52.3799 9.41016 90.7598 29.21c19.6807 -32.1904 33 -55.8203 42.4707 -73c7.09961 -12.8896 16.8193 -28.5703 16.8193 -32.9404
c0 -3.42969 -1.84961 -6.7793 -4.9502 -8.89941c-51.5801 -35.3203 -92.0996 -49.3701 -122.1 -49.3701c-43 0 -73.7402 22 -116 22c-24 0 -52.0801 -8.46973 -90.6396 -28.3701l-40.9199 70.0801c-10.0801 18.0801 -22.4209 38.2197 -22.4209 43.0801zM46 300
c0 100 1.5 200 4 300c31.75 1.5 49.1299 2.25 82.3799 2.25c28.96 0 55.1201 -1 86.6201 -2.25c5.51953 -0.219727 8.9502 -4.92969 11 -10l103.54 -255.9l-3.54004 265.9c31.75 1.5 54.1299 2.25 87.3799 2.25c33.96 0 62.9502 -1 92.6201 -2.25
c5.51953 -0.230469 10 -4.48047 10 -10c2 -94 4 -190 4 -290s-1.5 -200 -4 -300c-27.75 -1.58008 -44.1299 -2.25 -77.3799 -2.25c-29.96 0 -59.2002 0.669922 -91.6201 2.25c-5.50977 0.269531 -9 4.5 -11 10l-103.54 255.9l3.54004 -265.9
c-31.75 -1.5 -49.1299 -2.25 -82.3799 -2.25c-33.96 0 -65.4502 1.08008 -97.6201 2.25c-5.51953 0.200195 -10 4.48047 -10 10c-2 94 -4 190 -4 290z" />
    <glyph glyph-name="ograve" unicode="&#xf2;" 
d="M128.75 775c25.29 1.21973 49.1299 1.73047 73.1104 1.73047c27.9492 0 56.0801 -0.69043 86.8896 -1.73047c5.51953 0 12.3701 -4.48047 15.29 -10l76.7002 -145c-55.2402 0 -103.311 1.05957 -161.061 4c-5.66016 0.290039 -12.3701 4.48047 -15.29 10
c-27.6494 50.25 -50.3193 90.7598 -75.6396 141zM26 300.33c0 196.25 87 299.67 228 306.67c190.38 0 280 -75.5498 280 -306.67c0 -196.46 -89 -299.33 -230 -306.33c-190.06 0 -278 74.8203 -278 306.33zM234.99 300.33c0 -119.15 19.0098 -132.33 46.0098 -132.33
s44.0098 13.1797 44.0098 132.33c0 118.8 -20.0098 131.67 -47.0098 131.67s-43.0098 -12.8701 -43.0098 -131.67z" />
    <glyph glyph-name="oacute" unicode="&#xf3;" 
d="M192.8 630.25c0 4.80957 13.2402 24.1699 17.6602 31.25c24.1104 38.6299 46.96 72.0801 77.21 113.5c26.7998 1.21973 53.8301 1.73047 80.5605 1.73047c31.1592 0 61.9199 -0.69043 91.4395 -1.73047c3.37988 0 5.17969 -1.66992 5.17969 -4.24023
c0 -5.51953 -15.1494 -23.29 -20.2998 -29.7598c-32.2695 -40.4902 -69.1797 -76.29 -101.21 -119c-54.3398 0 -91.46 1.05957 -145.59 4c-3.26953 0.179688 -4.9502 1.73047 -4.9502 4.25zM26 300.33c0 196.25 87 299.67 228 306.67c190.38 0 280 -75.5498 280 -306.67
c0 -196.46 -89 -299.33 -230 -306.33c-190.06 0 -278 74.8203 -278 306.33zM234.99 300.33c0 -119.15 19.0098 -132.33 46.0098 -132.33s44.0098 13.1797 44.0098 132.33c0 118.8 -20.0098 131.67 -47.0098 131.67s-43.0098 -12.8701 -43.0098 -131.67z" />
    <glyph glyph-name="ocircumflex" unicode="&#xf4;" 
d="M68.75 620.65c25.3203 49.2393 58.9902 96.75 92.6396 143c3.66992 5.0498 9.62988 8.70996 15.29 9c50.46 2.56934 93.3203 3.34961 141.32 3.34961c22 0 44.6699 -0.0302734 69.3398 -0.349609c32.1406 -36.1201 62.8203 -75.9102 94.3506 -117.98
c4.87988 -6.50977 20.2197 -24.5 20.2197 -29.71c0 -2.58008 -1.86035 -4.30957 -5.24023 -4.30957c-29.5195 -1.04004 -54.4902 -1.73047 -80.2998 -1.73047c-22.1396 0 -44.9004 0.5 -71.7002 1.73047c-27.29 37.3594 -43.5703 68.7998 -60.9697 102.71l-49.6602 -95.71
c-2.99023 -5.48047 -9.77051 -10 -15.29 -10c-30.8096 -1.04004 -56.0498 -1.73047 -81.3203 -1.73047c-21.6797 0 -43.3896 0.5 -68.6797 1.73047zM26 300.33c0 196.25 87 299.67 228 306.67c190.38 0 280 -75.5498 280 -306.67c0 -196.46 -89 -299.33 -230 -306.33
c-190.06 0 -278 74.8203 -278 306.33zM234.99 300.33c0 -119.15 19.0098 -132.33 46.0098 -132.33s44.0098 13.1797 44.0098 132.33c0 118.8 -20.0098 131.67 -47.0098 131.67s-43.0098 -12.8701 -43.0098 -131.67z" />
    <glyph glyph-name="otilde" unicode="&#xf5;" 
d="M86.0195 728.79c0 3.45996 1.79004 6.83008 5 8.67969c55.3906 34.5801 85.9805 44.5303 115.98 45.5303c45.2305 0 83 -26 126 -26c24 0 52.3799 9.41016 90.7598 29.21c19.6807 -32.1904 33 -55.8203 42.4707 -73c7.09961 -12.8896 16.8193 -28.5703 16.8193 -32.9404
c0 -3.42969 -1.84961 -6.7793 -4.9502 -8.89941c-51.5801 -35.3203 -92.0996 -49.3701 -122.1 -49.3701c-43 0 -73.7402 22 -116 22c-24 0 -52.0801 -8.46973 -90.6396 -28.3701l-40.9199 70.0801c-10.0801 18.0801 -22.4209 38.2197 -22.4209 43.0801zM26 300.33
c0 196.25 87 299.67 228 306.67c190.38 0 280 -75.5498 280 -306.67c0 -196.46 -89 -299.33 -230 -306.33c-190.06 0 -278 74.8203 -278 306.33zM234.99 300.33c0 -119.15 19.0098 -132.33 46.0098 -132.33s44.0098 13.1797 44.0098 132.33
c0 118.8 -20.0098 131.67 -47.0098 131.67s-43.0098 -12.8701 -43.0098 -131.67z" />
    <glyph glyph-name="odieresis" unicode="&#xf6;" 
d="M26 300.33c0 196.25 87 299.67 228 306.67c190.38 0 280 -75.5498 280 -306.67c0 -196.46 -89 -299.33 -230 -306.33c-190.06 0 -278 74.8203 -278 306.33zM234.99 300.33c0 -119.15 19.0098 -132.33 46.0098 -132.33s44.0098 13.1797 44.0098 132.33
c0 118.8 -20.0098 131.67 -47.0098 131.67s-43.0098 -12.8701 -43.0098 -131.67zM317.13 707.63c0 21.0703 0.270508 40.25 0.870117 64.3701c24.7305 1.16992 45.0303 1.62012 66.1904 1.62012c26.8896 0 51.9395 -0.730469 77.8096 -1.62012
c5.51953 0 9.88965 -4.48047 10 -10c0.530273 -27 0.860352 -48.4004 0.860352 -72c0 -20.9404 -0.260742 -40.0596 -0.860352 -64c-18.0195 -0.849609 -34.7402 -1.2002 -50.6797 -1.2002c-23.7402 0 -61.9307 1.56055 -93.3203 3.2002
c-5.50977 0.290039 -10 4.48047 -10 10c-0.55957 26.1299 -0.870117 46.8096 -0.870117 69.6299zM95.1299 707.63c0 21.0703 0.270508 40.25 0.870117 64.3701c24.7305 1.16992 47.0303 1.62012 68.1904 1.62012c26.8896 0 49.9395 -0.730469 75.8096 -1.62012
c5.51953 0 9.88965 -4.48047 10 -10c0.530273 -27 0.860352 -48.4004 0.860352 -72c0 -20.9404 -0.260742 -40.0596 -0.860352 -64c-18.0195 -0.849609 -34.7402 -1.2002 -50.6797 -1.2002c-23.7402 0 -61.9307 1.56055 -93.3203 3.2002
c-5.50977 0.290039 -10 4.48047 -10 10c-0.55957 26.1299 -0.870117 46.8096 -0.870117 69.6299z" />
    <glyph glyph-name="divide" unicode="&#xf7;" horiz-adv-x="498" 
d="M28.8799 301.3c0 18.9805 0.311523 40.1504 1.12109 72.7002c31.75 1.5 216.13 2.25 249.38 2.25c33.96 0 164.67 -1.08008 198.62 -2.25c5.51953 0 9.81934 -4.48047 9.99902 -10c0.75 -23.0801 1 -35 1 -85c0 -20 -0.459961 -41.3096 -1 -63
c-21.7598 -1.03027 -190.13 -2.25 -223.38 -2.25c-33.96 0 -190.67 3.08008 -224.62 4.25c-5.51953 0 -9.87012 4.48047 -10 10c-0.620117 25.9102 -1.12012 48.9902 -1.12012 73.2998zM172.131 100.28c0 22.2695 0.267578 44.5996 0.867188 68.7197
c25.9404 1.23047 50.0508 1.73047 74.0312 1.73047c27.9502 0 55.71 -0.69043 85.9697 -1.73047c5.51953 0 9.88965 -4.48047 10 -10c0.530273 -27 0.860352 -51.7998 0.860352 -76.7197c0 -22.1201 -0.259766 -44.3301 -0.859375 -68.2803
c-18.0996 -0.919922 -36.1299 -1.32031 -54.3203 -1.32031c-34.2197 0 -68.9795 1.40039 -105.68 3.32031c-5.50977 0.290039 -10 4.48047 -10 10c-0.55957 26.1299 -0.869141 50.1602 -0.869141 74.2803zM172.129 504.28c0 22.2695 0.267578 44.5996 0.867188 68.7197
c25.9404 1.23047 50.0508 1.73047 74.0312 1.73047c27.9502 0 55.71 -0.69043 85.9697 -1.73047c5.51953 0 9.88965 -4.48047 10 -10c0.530273 -27 0.860352 -51.7998 0.860352 -76.7197c0 -22.1201 -0.259766 -44.3301 -0.859375 -68.2803
c-18.0996 -0.919922 -36.1299 -1.32031 -54.3203 -1.32031c-34.2197 0 -68.9795 1.40039 -105.68 3.32031c-5.50977 0.290039 -10 4.48047 -10 10c-0.55957 26.1299 -0.869141 50.1602 -0.869141 74.2803z" />
    <glyph glyph-name="oslash" unicode="&#xf8;" 
d="M26 300.33c0 196.25 87 299.67 228 306.67c55.1797 0 101.89 -6.33984 140.41 -20.9805l43.4795 87.6504l54.2207 -25.3398l-47.3604 -89.7305c60.1797 -45.4893 89.25 -126.649 89.25 -258.27c0 -196.46 -89 -299.33 -230 -306.33
c-54.25 0 -100.17 6.09961 -138.11 20.1904l-43.7793 -87.8604l-54.2207 25.3398l47.3301 89.6797c-60.3701 45.1807 -89.2197 126.37 -89.2197 258.98zM234.99 300.33c0 -11.2998 0.169922 -21.6299 0.5 -31.0996l29.4395 55.7695l44.5801 89.8604
c-8.18945 14.4199 -19.1201 17.1396 -31.5098 17.1396c-27 0 -43.0098 -12.8701 -43.0098 -131.67zM250.58 184.16c7.88965 -13.5303 18.3604 -16.1602 30.4199 -16.1602c27 0 44.0098 13.1797 44.0098 132.33c0 11.0303 -0.179688 21.1504 -0.509766 30.4297
l-15.7002 -29.7598z" />
    <glyph glyph-name="ugrave" unicode="&#xf9;" horiz-adv-x="528" 
d="M118.75 775c25.29 1.21973 49.1299 1.73047 73.1104 1.73047c27.9492 0 56.0801 -0.69043 86.8896 -1.73047c5.51953 0 12.3701 -4.48047 15.29 -10l76.7002 -145c-55.2402 0 -103.311 1.05957 -161.061 4c-5.66016 0.290039 -12.3701 4.48047 -15.29 10
c-27.6494 50.25 -50.3193 90.7598 -75.6396 141zM27 296.33c0 99.6699 1.5 203.67 4 303.67c31.75 1.5 54.1299 2.25 87.3799 2.25c33.96 0 68.6699 -1.08008 102.62 -2.25c5.51953 0 10 -4.48047 10 -10c2 -94 4 -224 4 -324c0 -88.8203 13 -102 40 -102
s38 13.1797 38 102.33c0 99.6699 1.5 233.67 4 333.67c31.75 1.5 54.1299 2.25 87.3799 2.25c33.96 0 68.6699 -1.08008 102.62 -2.25c5.51953 0 10 -4.48047 10 -10c2 -94 4 -194 4 -293.67c0 -216.46 -82 -299.33 -223 -306.33c-180.06 0 -271 54.8203 -271 306.33z" />
    <glyph glyph-name="uacute" unicode="&#xfa;" horiz-adv-x="528" 
d="M182.8 630.25c0 4.80957 13.2402 24.1699 17.6602 31.25c24.1104 38.6299 46.96 72.0801 77.21 113.5c26.7998 1.21973 53.8301 1.73047 80.5605 1.73047c31.1592 0 61.9199 -0.69043 91.4395 -1.73047c3.37988 0 5.17969 -1.66992 5.17969 -4.24023
c0 -5.51953 -15.1494 -23.29 -20.2998 -29.7598c-32.2695 -40.4902 -69.1797 -76.29 -101.21 -119c-54.3398 0 -91.46 1.05957 -145.59 4c-3.26953 0.179688 -4.9502 1.73047 -4.9502 4.25zM27 296.33c0 99.6699 1.5 203.67 4 303.67c31.75 1.5 54.1299 2.25 87.3799 2.25
c33.96 0 68.6699 -1.08008 102.62 -2.25c5.51953 0 10 -4.48047 10 -10c2 -94 4 -224 4 -324c0 -88.8203 13 -102 40 -102s38 13.1797 38 102.33c0 99.6699 1.5 233.67 4 333.67c31.75 1.5 54.1299 2.25 87.3799 2.25c33.96 0 68.6699 -1.08008 102.62 -2.25
c5.51953 0 10 -4.48047 10 -10c2 -94 4 -194 4 -293.67c0 -216.46 -82 -299.33 -223 -306.33c-180.06 0 -271 54.8203 -271 306.33z" />
    <glyph glyph-name="ucircumflex" unicode="&#xfb;" horiz-adv-x="528" 
d="M58.75 620.65c25.3203 49.2393 58.9902 96.75 92.6396 143c3.66992 5.0498 9.62988 8.70996 15.29 9c50.46 2.56934 93.3203 3.34961 141.32 3.34961c22 0 44.6699 -0.0302734 69.3398 -0.349609c32.1406 -36.1201 62.8203 -75.9102 94.3506 -117.98
c4.87988 -6.50977 20.2197 -24.5 20.2197 -29.71c0 -2.58008 -1.86035 -4.30957 -5.24023 -4.30957c-29.5195 -1.04004 -54.4902 -1.73047 -80.2998 -1.73047c-22.1396 0 -44.9004 0.5 -71.7002 1.73047c-27.29 37.3594 -43.5703 68.7998 -60.9697 102.71l-49.6602 -95.71
c-2.99023 -5.48047 -9.77051 -10 -15.29 -10c-30.8096 -1.04004 -56.0498 -1.73047 -81.3203 -1.73047c-21.6797 0 -43.3896 0.5 -68.6797 1.73047zM27 296.33c0 99.6699 1.5 203.67 4 303.67c31.75 1.5 54.1299 2.25 87.3799 2.25c33.96 0 68.6699 -1.08008 102.62 -2.25
c5.51953 0 10 -4.48047 10 -10c2 -94 4 -224 4 -324c0 -88.8203 13 -102 40 -102s38 13.1797 38 102.33c0 99.6699 1.5 233.67 4 333.67c31.75 1.5 54.1299 2.25 87.3799 2.25c33.96 0 68.6699 -1.08008 102.62 -2.25c5.51953 0 10 -4.48047 10 -10c2 -94 4 -194 4 -293.67
c0 -216.46 -82 -299.33 -223 -306.33c-180.06 0 -271 54.8203 -271 306.33z" />
    <glyph glyph-name="udieresis" unicode="&#xfc;" horiz-adv-x="528" 
d="M27 296.33c0 99.6699 1.5 203.67 4 303.67c31.75 1.5 54.1299 2.25 87.3799 2.25c33.96 0 68.6699 -1.08008 102.62 -2.25c5.51953 0 10 -4.48047 10 -10c2 -94 4 -224 4 -324c0 -88.8203 13 -102 40 -102s38 13.1797 38 102.33c0 99.6699 1.5 233.67 4 333.67
c31.75 1.5 54.1299 2.25 87.3799 2.25c33.96 0 68.6699 -1.08008 102.62 -2.25c5.51953 0 10 -4.48047 10 -10c2 -94 4 -194 4 -293.67c0 -216.46 -82 -299.33 -223 -306.33c-180.06 0 -271 54.8203 -271 306.33zM307.13 707.63c0 21.0703 0.270508 40.25 0.870117 64.3701
c24.7305 1.16992 45.0303 1.62012 66.1904 1.62012c26.8896 0 51.9395 -0.730469 77.8096 -1.62012c5.51953 0 9.88965 -4.48047 10 -10c0.530273 -27 0.860352 -48.4004 0.860352 -72c0 -20.9404 -0.260742 -40.0596 -0.860352 -64
c-18.0195 -0.849609 -34.7402 -1.2002 -50.6797 -1.2002c-23.7402 0 -61.9307 1.56055 -93.3203 3.2002c-5.50977 0.290039 -10 4.48047 -10 10c-0.55957 26.1299 -0.870117 46.8096 -0.870117 69.6299zM85.1299 707.63c0 21.0703 0.270508 40.25 0.870117 64.3701
c24.7305 1.16992 47.0303 1.62012 68.1904 1.62012c26.8896 0 49.9395 -0.730469 75.8096 -1.62012c5.51953 0 9.88965 -4.48047 10 -10c0.530273 -27 0.860352 -48.4004 0.860352 -72c0 -20.9404 -0.260742 -40.0596 -0.860352 -64
c-18.0195 -0.849609 -34.7402 -1.2002 -50.6797 -1.2002c-23.7402 0 -61.9307 1.56055 -93.3203 3.2002c-5.50977 0.290039 -10 4.48047 -10 10c-0.55957 26.1299 -0.870117 46.8096 -0.870117 69.6299z" />
    <glyph glyph-name="yacute" unicode="&#xfd;" horiz-adv-x="525" 
d="M182.8 630.25c0 4.80957 13.2402 24.1699 17.6602 31.25c24.1104 38.6299 46.96 72.0801 77.21 113.5c26.7998 1.21973 53.8301 1.73047 80.5605 1.73047c31.1592 0 61.9199 -0.69043 91.4395 -1.73047c3.37988 0 5.17969 -1.66992 5.17969 -4.24023
c0 -5.51953 -15.1494 -23.29 -20.2998 -29.7598c-32.2695 -40.4902 -69.1797 -76.29 -101.21 -119c-54.3398 0 -91.46 1.05957 -145.59 4c-3.26953 0.179688 -4.9502 1.73047 -4.9502 4.25zM8 596.41c33.5195 3.91992 68.9297 5.58984 104.66 5.58984
c26.8096 0 53.8096 -0.94043 80.3398 -2.58984c5.62988 -0.350586 13.3301 -4.04004 15.29 -10c22.1201 -67.1299 45.4102 -150.351 64.0498 -218.03c18.6406 67.6797 41.9404 150.9 64.0605 218.03c1.95996 5.95996 9.65918 9.64941 15.29 10
c26.5293 1.64941 53.5293 2.58984 80.3398 2.58984c35.7393 0 71.1396 -1.66992 104.66 -5.58984c-17.6904 -75.7998 -44.0703 -177.7 -83.3408 -255c-22.8398 -39.0205 -51.04 -69.6299 -80.79 -94.1006c0.930664 -82.4395 2.03027 -164.869 2.44043 -247.31
c-31.75 -1.5 -56.1299 -2.25 -89.3799 -2.25c-33.96 0 -70.6699 1.08008 -104.62 2.25c-5.51953 0 -10 4.48047 -10 10c0 77.3203 0.669922 156 1.46973 237.14c-29.7793 24.5303 -58.1094 54.9707 -81.1201 94.2705c-39.2695 77.2998 -65.6592 179.2 -83.3496 255z" />
    <glyph glyph-name="thorn" unicode="&#xfe;" horiz-adv-x="510" 
d="M246 300c0 -12.6797 0.0595703 -25.3604 0.160156 -38.04l9.64941 -0.00976562c27.1807 0 51.2002 6.24023 51.2002 55.3896c0 52.1406 -4.41992 59.04 -44.2002 59.04c-4.71973 -0.00976562 -10.2393 0 -16.2998 -0.00976562
c-0.30957 -25.21 -0.509766 -50.6602 -0.509766 -76.3701zM46 300c0 100 1.5 200 4 300c31.75 1.5 54.1299 2.25 87.3799 2.25c33.96 0 68.6699 -1.08008 102.62 -2.25c5.51953 0 10 -4.23047 10 -10c0 -11.29 -0.349609 -30.6396 -0.580078 -43.0303
c162.76 -0.939453 260.58 -25.7393 260.58 -226.64c0 -177.22 -97.8799 -220.98 -261.22 -222.3c0.580078 -32.6807 1.05957 -65.3506 1.21973 -98.0303c-31.75 -1.5 -54.1299 -2.25 -87.3799 -2.25c-33.96 0 -68.6699 1.08008 -102.62 2.25c-5.51953 0 -10 4.48047 -10 10
c-2 94 -4 190 -4 290z" />
    <glyph glyph-name="ydieresis" unicode="&#xff;" horiz-adv-x="525" 
d="M305.13 707.63c0 21.0703 0.270508 40.25 0.870117 64.3701c24.7305 1.16992 45.0303 1.62012 66.1904 1.62012c26.8896 0 51.9395 -0.730469 77.8096 -1.62012c5.51953 0 9.88965 -4.48047 10 -10c0.530273 -27 0.860352 -48.4004 0.860352 -72
c0 -20.9404 -0.260742 -40.0596 -0.860352 -64c-18.0195 -0.849609 -34.7402 -1.2002 -50.6797 -1.2002c-23.7402 0 -61.9307 1.56055 -93.3203 3.2002c-5.50977 0.290039 -10 4.48047 -10 10c-0.55957 26.1299 -0.870117 46.8096 -0.870117 69.6299zM83.1299 707.63
c0 21.0703 0.270508 40.25 0.870117 64.3701c24.7305 1.16992 47.0303 1.62012 68.1904 1.62012c26.8896 0 49.9395 -0.730469 75.8096 -1.62012c5.51953 0 9.88965 -4.48047 10 -10c0.530273 -27 0.860352 -48.4004 0.860352 -72
c0 -20.9404 -0.260742 -40.0596 -0.860352 -64c-18.0195 -0.849609 -34.7402 -1.2002 -50.6797 -1.2002c-23.7402 0 -61.9307 1.56055 -93.3203 3.2002c-5.50977 0.290039 -10 4.48047 -10 10c-0.55957 26.1299 -0.870117 46.8096 -0.870117 69.6299zM8 596.41
c33.5195 3.91992 68.9297 5.58984 104.66 5.58984c26.8096 0 53.8096 -0.94043 80.3398 -2.58984c5.62988 -0.350586 13.3301 -4.04004 15.29 -10c22.1201 -67.1299 45.4102 -150.351 64.0498 -218.03c18.6406 67.6797 41.9404 150.9 64.0605 218.03
c1.95996 5.95996 9.65918 9.64941 15.29 10c26.5293 1.64941 53.5293 2.58984 80.3398 2.58984c35.7393 0 71.1396 -1.66992 104.66 -5.58984c-17.6904 -75.7998 -44.0703 -177.7 -83.3408 -255c-22.8398 -39.0205 -51.04 -69.6299 -80.79 -94.1006
c0.930664 -82.4395 2.03027 -164.869 2.44043 -247.31c-31.75 -1.5 -56.1299 -2.25 -89.3799 -2.25c-33.96 0 -70.6699 1.08008 -104.62 2.25c-5.51953 0 -10 4.48047 -10 10c0 77.3203 0.669922 156 1.46973 237.14c-29.7793 24.5303 -58.1094 54.9707 -81.1201 94.2705
c-39.2695 77.2998 -65.6592 179.2 -83.3496 255z" />
    <glyph glyph-name="Amacron" unicode="&#x100;" horiz-adv-x="520" 
d="M120.02 706.19c0 18.46 0.300781 37.7598 0.980469 64.8096c31.75 1.5 154.13 2.25 177.38 2.25c23.96 0 78.6699 -1.08008 112.62 -2.25c5.51953 0 9.82031 -4.48047 10 -10c0.370117 -11.2305 0.610352 -37.8701 0.610352 -65.8604
c0 -24.0098 -0.180664 -49.0098 -0.610352 -66.1396c-21.7598 -1.03027 -114.13 -2.25 -137.38 -2.25c-23.96 0 -118.67 3.08008 -152.62 4.25c-5.51953 0 -9.87012 4.48047 -10 10c-0.629883 26.4805 -0.980469 45.3496 -0.980469 65.1904zM9.70996 8.25
c0 2.32031 3.2002 21.1797 4.83984 31.29c29.6201 182.85 72.2598 376.24 109.351 560.46c44.6191 2.08984 90.6699 2.25 137.479 2.25c48.6104 0 95.1504 -0.620117 142.72 -2.25c5.52051 0 10.79 -4.48047 11.7607 -10c37.8301 -191.47 84.6592 -395.83 114.04 -590
c-31.4902 -1.5 -53.7305 -2.25 -86.9805 -2.25c-33.96 0 -63.8604 0.0800781 -98.0195 2.25c-5.51074 0.349609 -10.6699 4.5 -11.7607 10c-6.51953 32.9697 -12.5098 66.3496 -18.1094 100h-92.8701c-5.50977 -36.96 -11.75 -73.6797 -19.0605 -110
c-32.0098 -1.5 -49.5195 -2.25 -82.7695 -2.25c-33.96 0 -68.4902 1.08008 -102.23 2.25c-4.91992 0 -8.38965 3.55957 -8.38965 8.25zM239.08 240h56.0498l-30.7998 224.34c-9.11035 -74.0596 -16.5605 -149.29 -25.25 -224.34z" />
    <glyph glyph-name="amacron" unicode="&#x101;" horiz-adv-x="520" 
d="M120.02 706.19c0 18.46 0.300781 37.7598 0.980469 64.8096c31.75 1.5 154.13 2.25 177.38 2.25c23.96 0 78.6699 -1.08008 112.62 -2.25c5.51953 0 9.82031 -4.48047 10 -10c0.370117 -11.2305 0.610352 -37.8701 0.610352 -65.8604
c0 -24.0098 -0.180664 -49.0098 -0.610352 -66.1396c-21.7598 -1.03027 -114.13 -2.25 -137.38 -2.25c-23.96 0 -118.67 3.08008 -152.62 4.25c-5.51953 0 -9.87012 4.48047 -10 10c-0.629883 26.4805 -0.980469 45.3496 -0.980469 65.1904zM9.70996 8.25
c0 2.32031 3.2002 21.1797 4.83984 31.29c29.6201 182.85 72.2598 376.24 109.351 560.46c44.6191 2.08984 90.6699 2.25 137.479 2.25c48.6104 0 95.1504 -0.620117 142.72 -2.25c5.52051 0 10.79 -4.48047 11.7607 -10c37.8301 -191.47 84.6592 -395.83 114.04 -590
c-31.4902 -1.5 -53.7305 -2.25 -86.9805 -2.25c-33.96 0 -63.8604 0.0800781 -98.0195 2.25c-5.51074 0.349609 -10.6699 4.5 -11.7607 10c-6.51953 32.9697 -12.5098 66.3496 -18.1094 100h-92.8701c-5.50977 -36.96 -11.75 -73.6797 -19.0605 -110
c-32.0098 -1.5 -49.5195 -2.25 -82.7695 -2.25c-33.96 0 -68.4902 1.08008 -102.23 2.25c-4.91992 0 -8.38965 3.55957 -8.38965 8.25zM239.08 240h56.0498l-30.7998 224.34c-9.11035 -74.0596 -16.5605 -149.29 -25.25 -224.34z" />
    <glyph glyph-name="Abreve" unicode="&#x102;" horiz-adv-x="520" 
d="M54.75 775.76c25.29 1.2207 46.5801 1.73047 67.8096 1.73047c24.7305 0 49.3809 -0.69043 80.1904 -1.73047c5.51953 0 12.4404 -4.43945 15.29 -10c12.7598 -24.8594 33.2998 -36.5098 53.8398 -36.5098c23.5303 0 47.04 15.29 58.79 43.5098
c26.7998 1.2207 49.5605 1.73047 71.71 1.73047c25.7998 0 50.7705 -0.69043 80.29 -1.73047c3.19043 0 4.28027 -1.16992 4.28027 -3.41016c0 -8.90918 -11.8604 -36.3896 -19.3506 -49.0498c-38.5596 -65.2002 -117.159 -101.83 -197.42 -101.83
c-93.2393 0 -188.92 49.5 -215.43 157.29zM9.70996 8.25c0 2.32031 3.2002 21.1797 4.83984 31.29c29.6201 182.85 72.2598 376.24 109.351 560.46c44.6191 2.08984 90.6699 2.25 137.479 2.25c48.6104 0 95.1504 -0.620117 142.72 -2.25
c5.52051 0 10.79 -4.48047 11.7607 -10c37.8301 -191.47 84.6592 -395.83 114.04 -590c-31.4902 -1.5 -53.7305 -2.25 -86.9805 -2.25c-33.96 0 -63.8604 0.0800781 -98.0195 2.25c-5.51074 0.349609 -10.6699 4.5 -11.7607 10
c-6.51953 32.9697 -12.5098 66.3496 -18.1094 100h-92.8701c-5.50977 -36.96 -11.75 -73.6797 -19.0605 -110c-32.0098 -1.5 -49.5195 -2.25 -82.7695 -2.25c-33.96 0 -68.4902 1.08008 -102.23 2.25c-4.91992 0 -8.38965 3.55957 -8.38965 8.25zM239.08 240h56.0498
l-30.7998 224.34c-9.11035 -74.0596 -16.5605 -149.29 -25.25 -224.34z" />
    <glyph glyph-name="abreve" unicode="&#x103;" horiz-adv-x="520" 
d="M54.75 775.76c25.29 1.2207 46.5801 1.73047 67.8096 1.73047c24.7305 0 49.3809 -0.69043 80.1904 -1.73047c5.51953 0 12.4404 -4.43945 15.29 -10c12.7598 -24.8594 33.2998 -36.5098 53.8398 -36.5098c23.5303 0 47.04 15.29 58.79 43.5098
c26.7998 1.2207 49.5605 1.73047 71.71 1.73047c25.7998 0 50.7705 -0.69043 80.29 -1.73047c3.19043 0 4.28027 -1.16992 4.28027 -3.41016c0 -8.90918 -11.8604 -36.3896 -19.3506 -49.0498c-38.5596 -65.2002 -117.159 -101.83 -197.42 -101.83
c-93.2393 0 -188.92 49.5 -215.43 157.29zM9.70996 8.25c0 2.32031 3.2002 21.1797 4.83984 31.29c29.6201 182.85 72.2598 376.24 109.351 560.46c44.6191 2.08984 90.6699 2.25 137.479 2.25c48.6104 0 95.1504 -0.620117 142.72 -2.25
c5.52051 0 10.79 -4.48047 11.7607 -10c37.8301 -191.47 84.6592 -395.83 114.04 -590c-31.4902 -1.5 -53.7305 -2.25 -86.9805 -2.25c-33.96 0 -63.8604 0.0800781 -98.0195 2.25c-5.51074 0.349609 -10.6699 4.5 -11.7607 10
c-6.51953 32.9697 -12.5098 66.3496 -18.1094 100h-92.8701c-5.50977 -36.96 -11.75 -73.6797 -19.0605 -110c-32.0098 -1.5 -49.5195 -2.25 -82.7695 -2.25c-33.96 0 -68.4902 1.08008 -102.23 2.25c-4.91992 0 -8.38965 3.55957 -8.38965 8.25zM239.08 240h56.0498
l-30.7998 224.34c-9.11035 -74.0596 -16.5605 -149.29 -25.25 -224.34z" />
    <glyph glyph-name="Aogonek" unicode="&#x104;" horiz-adv-x="520" 
d="M9.70996 8.25c0 2.32031 3.2002 21.1807 4.83984 31.291c29.6201 182.85 72.2598 376.239 109.35 560.459c45.6201 2.08984 90.6699 2.25 137.479 2.25c48.6104 0 95.1504 -0.620117 142.721 -2.25c5.51953 0 10.7891 -4.48047 11.7588 -10
c37.8301 -191.47 84.6602 -395.83 114.04 -590c-15.0703 -0.719727 -28.0303 -1.26953 -41.0898 -1.63965c-31.2197 -1.7002 -45.8096 -16.3604 -45.8096 -29.3604c0 -14 15.8799 -27.75 45.1797 -24.0498l48.8203 6.0498l18 -140c-39.6699 -7.5498 -60.6504 -11 -98 -11
c-94.5596 0 -160.609 51.3203 -160.609 112.42c0 28.5303 14.4102 59.1904 47.04 87.7607c-4.94043 0.919922 -9.30078 4.80957 -10.291 9.81934c-6.51953 32.9697 -12.5098 66.3496 -18.1094 100h-92.8701c-5.50977 -36.96 -11.75 -73.6797 -19.0596 -110
c-32.0098 -1.5 -48.5195 -2.25 -82.7695 -2.25c-33.96 0 -68.4902 1.08008 -102.23 2.25c-4.91992 -0 -8.38965 3.55957 -8.38965 8.25zM239.08 240l56.0518 -0.000976562l-30.8008 224.341c-9.11035 -74.0596 -16.5605 -149.29 -25.251 -224.34z" />
    <glyph glyph-name="aogonek" unicode="&#x105;" horiz-adv-x="520" 
d="M9.70996 8.25c0 2.32031 3.2002 21.1797 4.83984 31.29c29.6201 182.85 72.2598 376.24 109.351 560.46c45.6191 2.08984 90.6699 2.25 137.479 2.25c48.6104 0 95.1504 -0.620117 142.72 -2.25c5.52051 0 10.79 -4.48047 11.7607 -10
c37.8301 -191.47 84.6592 -395.83 114.04 -590c-15.0703 -0.719727 -28.0303 -1.26953 -41.0908 -1.63965c-31.2197 -1.7002 -45.8096 -16.3604 -45.8096 -29.3604c0 -14 15.8799 -27.75 45.1797 -24.0498l48.8203 6.0498l18 -140c-39.6699 -7.5498 -60.6504 -11 -98 -11
c-94.5596 0 -160.61 51.3203 -160.61 112.42c0 28.5303 14.4102 59.1904 47.04 87.7598c-4.93945 0.919922 -9.2998 4.81055 -10.29 9.82031c-6.51953 32.9697 -12.5098 66.3496 -18.1094 100h-92.8701c-5.50977 -36.96 -11.75 -73.6797 -19.0605 -110
c-32.0098 -1.5 -48.5195 -2.25 -82.7695 -2.25c-33.96 0 -68.4902 1.08008 -102.23 2.25c-4.91992 0 -8.38965 3.55957 -8.38965 8.25zM239.08 240h56.0498l-30.7998 224.34c-9.11035 -74.0596 -16.5605 -149.29 -25.25 -224.34z" />
    <glyph glyph-name="Cacute" unicode="&#x106;" horiz-adv-x="415" 
d="M172.8 630.25c0 4.80957 13.2402 24.1699 17.6602 31.25c24.1104 38.6299 46.96 72.0801 77.21 113.5c26.7998 1.21973 53.8301 1.73047 80.5605 1.73047c31.1592 0 61.9199 -0.69043 91.4395 -1.73047c3.37988 0 5.17969 -1.66992 5.17969 -4.24023
c0 -5.51953 -15.1494 -23.29 -20.2998 -29.7598c-32.2695 -40.4902 -69.1797 -76.29 -101.21 -119c-54.3398 0 -91.46 1.05957 -145.59 4c-3.26953 0.179688 -4.9502 1.73047 -4.9502 4.25zM26 300.33c0 235.15 106 306.67 275 306.67c41.1504 0 73.7402 -7.2998 114 -17
l-21.3799 -156.75l-92.4297 6.12988c-36.4707 2.41992 -66.2002 -20.25 -66.2002 -139.05c0 -119.15 25.7793 -142.061 66.2002 -139.38l92.4297 6.12988l20.3799 -158.08c-40.6699 -7.5498 -73.6504 -11 -115 -11c-168 0 -273 52.3096 -273 302.33z" />
    <glyph glyph-name="cacute" unicode="&#x107;" horiz-adv-x="415" 
d="M172.8 630.25c0 4.80957 13.2402 24.1699 17.6602 31.25c24.1104 38.6299 46.96 72.0801 77.21 113.5c26.7998 1.21973 53.8301 1.73047 80.5605 1.73047c31.1592 0 61.9199 -0.69043 91.4395 -1.73047c3.37988 0 5.17969 -1.66992 5.17969 -4.24023
c0 -5.51953 -15.1494 -23.29 -20.2998 -29.7598c-32.2695 -40.4902 -69.1797 -76.29 -101.21 -119c-54.3398 0 -91.46 1.05957 -145.59 4c-3.26953 0.179688 -4.9502 1.73047 -4.9502 4.25zM26 300.33c0 235.15 106 306.67 275 306.67c41.1504 0 73.7402 -7.2998 114 -17
l-21.3799 -156.75l-92.4297 6.12988c-36.4707 2.41992 -66.2002 -20.25 -66.2002 -139.05c0 -119.15 25.7793 -142.061 66.2002 -139.38l92.4297 6.12988l20.3799 -158.08c-40.6699 -7.5498 -73.6504 -11 -115 -11c-168 0 -273 52.3096 -273 302.33z" />
    <glyph glyph-name="Ccircumflex" unicode="&#x108;" horiz-adv-x="415" 
d="M48.75 620.65c25.3203 49.2393 58.9902 96.75 92.6396 143c3.66992 5.0498 9.62988 8.70996 15.29 9c50.46 2.56934 93.3203 3.34961 141.32 3.34961c22 0 44.6699 -0.0302734 69.3398 -0.349609c32.1406 -36.1201 62.8203 -75.9102 94.3506 -117.98
c4.87988 -6.50977 20.2197 -24.5 20.2197 -29.71c0 -2.58008 -1.86035 -4.30957 -5.24023 -4.30957c-29.5195 -1.04004 -54.4902 -1.73047 -80.2998 -1.73047c-22.1396 0 -44.9004 0.5 -71.7002 1.73047c-27.29 37.3594 -43.5703 68.7998 -60.9697 102.71l-49.6602 -95.71
c-2.99023 -5.48047 -9.77051 -10 -15.29 -10c-30.8096 -1.04004 -56.0498 -1.73047 -81.3203 -1.73047c-21.6797 0 -43.3896 0.5 -68.6797 1.73047zM26 300.33c0 235.15 106 306.67 275 306.67c41.1504 0 73.7402 -7.2998 114 -17l-21.3799 -156.75l-92.4297 6.12988
c-36.4707 2.41992 -66.2002 -20.25 -66.2002 -139.05c0 -119.15 25.7793 -142.061 66.2002 -139.38l92.4297 6.12988l20.3799 -158.08c-40.6699 -7.5498 -73.6504 -11 -115 -11c-168 0 -273 52.3096 -273 302.33z" />
    <glyph glyph-name="ccircumflex" unicode="&#x109;" horiz-adv-x="415" 
d="M48.75 620.65c25.3203 49.2393 58.9902 96.75 92.6396 143c3.66992 5.0498 9.62988 8.70996 15.29 9c50.46 2.56934 93.3203 3.34961 141.32 3.34961c22 0 44.6699 -0.0302734 69.3398 -0.349609c32.1406 -36.1201 62.8203 -75.9102 94.3506 -117.98
c4.87988 -6.50977 20.2197 -24.5 20.2197 -29.71c0 -2.58008 -1.86035 -4.30957 -5.24023 -4.30957c-29.5195 -1.04004 -54.4902 -1.73047 -80.2998 -1.73047c-22.1396 0 -44.9004 0.5 -71.7002 1.73047c-27.29 37.3594 -43.5703 68.7998 -60.9697 102.71l-49.6602 -95.71
c-2.99023 -5.48047 -9.77051 -10 -15.29 -10c-30.8096 -1.04004 -56.0498 -1.73047 -81.3203 -1.73047c-21.6797 0 -43.3896 0.5 -68.6797 1.73047zM26 300.33c0 235.15 106 306.67 275 306.67c41.1504 0 73.7402 -7.2998 114 -17l-21.3799 -156.75l-92.4297 6.12988
c-36.4707 2.41992 -66.2002 -20.25 -66.2002 -139.05c0 -119.15 25.7793 -142.061 66.2002 -139.38l92.4297 6.12988l20.3799 -158.08c-40.6699 -7.5498 -73.6504 -11 -115 -11c-168 0 -273 52.3096 -273 302.33z" />
    <glyph glyph-name="Cdotaccent" unicode="&#x10a;" horiz-adv-x="415" 
d="M179.13 707.63c0 21.0703 0.270508 42.25 0.870117 66.3701c25.9404 1.21973 49.6201 1.73047 73.1396 1.73047c27.4102 0 54.6006 -0.69043 84.8604 -1.73047c5.51953 0 9.88965 -4.48047 10 -10c0.530273 -27 0.860352 -50.4004 0.860352 -74
c0 -20.9502 -0.260742 -42.0498 -0.860352 -66c-19.4902 -0.919922 -37.71 -1.32031 -55.5498 -1.32031c-33.5605 0 -65.75 1.40039 -102.45 3.32031c-5.50977 0.290039 -10 4.48047 -10 10c-0.55957 26.1299 -0.870117 48.8096 -0.870117 71.6299zM26 300.33
c0 235.15 106 306.67 275 306.67c41.1504 0 73.7402 -7.2998 114 -17l-21.3799 -156.75l-92.4297 6.12988c-36.4707 2.41992 -66.2002 -20.25 -66.2002 -139.05c0 -119.15 25.7793 -142.061 66.2002 -139.38l92.4297 6.12988l20.3799 -158.08
c-40.6699 -7.5498 -73.6504 -11 -115 -11c-168 0 -273 52.3096 -273 302.33z" />
    <glyph glyph-name="cdotaccent" unicode="&#x10b;" horiz-adv-x="415" 
d="M179.13 707.63c0 21.0703 0.270508 42.25 0.870117 66.3701c25.9404 1.21973 49.6201 1.73047 73.1396 1.73047c27.4102 0 54.6006 -0.69043 84.8604 -1.73047c5.51953 0 9.88965 -4.48047 10 -10c0.530273 -27 0.860352 -50.4004 0.860352 -74
c0 -20.9502 -0.260742 -42.0498 -0.860352 -66c-19.4902 -0.919922 -37.71 -1.32031 -55.5498 -1.32031c-33.5605 0 -65.75 1.40039 -102.45 3.32031c-5.50977 0.290039 -10 4.48047 -10 10c-0.55957 26.1299 -0.870117 48.8096 -0.870117 71.6299zM26 300.33
c0 235.15 106 306.67 275 306.67c41.1504 0 73.7402 -7.2998 114 -17l-21.3799 -156.75l-92.4297 6.12988c-36.4707 2.41992 -66.2002 -20.25 -66.2002 -139.05c0 -119.15 25.7793 -142.061 66.2002 -139.38l92.4297 6.12988l20.3799 -158.08
c-40.6699 -7.5498 -73.6504 -11 -115 -11c-168 0 -273 52.3096 -273 302.33z" />
    <glyph glyph-name="Ccaron" unicode="&#x10c;" horiz-adv-x="415" 
d="M48.75 771.35c25.29 1.23047 47 1.73047 68.6797 1.73047c25.2705 0 50.5107 -0.69043 81.3203 -1.73047c5.51953 0 12.3701 -4.47949 15.29 -10l49.5 -92.0098c17.46 34.0303 33.7598 65.54 61.1299 103.01c26.7998 1.23047 49.5605 1.73047 71.7002 1.73047
c25.8096 0 50.7803 -0.69043 80.2998 -1.73047c3.37988 0 5.24023 -1.72949 5.24023 -4.30957c0 -4.87988 -24.6504 -35.6299 -31.6299 -44.8701c-27.5605 -36.4795 -54.6904 -71.0703 -82.9404 -102.82h-87.5996c-55.2402 0 -75.3105 1.06055 -124.061 4
c-5.66016 0.34082 -11.5293 4.02051 -15.29 9c-32.6494 43.25 -66.3193 88.7607 -91.6396 138zM26 300.33c0 235.15 106 306.67 275 306.67c41.1504 0 73.7402 -7.2998 114 -17l-21.3799 -156.75l-92.4297 6.12988c-36.4707 2.41992 -66.2002 -20.25 -66.2002 -139.05
c0 -119.15 25.7793 -142.061 66.2002 -139.38l92.4297 6.12988l20.3799 -158.08c-40.6699 -7.5498 -73.6504 -11 -115 -11c-168 0 -273 52.3096 -273 302.33z" />
    <glyph glyph-name="ccaron" unicode="&#x10d;" horiz-adv-x="415" 
d="M48.75 771.35c25.29 1.23047 47 1.73047 68.6797 1.73047c25.2705 0 50.5107 -0.69043 81.3203 -1.73047c5.51953 0 12.3701 -4.47949 15.29 -10l49.5 -92.0098c17.46 34.0303 33.7598 65.54 61.1299 103.01c26.7998 1.23047 49.5605 1.73047 71.7002 1.73047
c25.8096 0 50.7803 -0.69043 80.2998 -1.73047c3.37988 0 5.24023 -1.72949 5.24023 -4.30957c0 -4.87988 -24.6504 -35.6299 -31.6299 -44.8701c-27.5605 -36.4795 -54.6904 -71.0703 -82.9404 -102.82h-87.5996c-55.2402 0 -75.3105 1.06055 -124.061 4
c-5.66016 0.34082 -11.5293 4.02051 -15.29 9c-32.6494 43.25 -66.3193 88.7607 -91.6396 138zM26 300.33c0 235.15 106 306.67 275 306.67c41.1504 0 73.7402 -7.2998 114 -17l-21.3799 -156.75l-92.4297 6.12988c-36.4707 2.41992 -66.2002 -20.25 -66.2002 -139.05
c0 -119.15 25.7793 -142.061 66.2002 -139.38l92.4297 6.12988l20.3799 -158.08c-40.6699 -7.5498 -73.6504 -11 -115 -11c-168 0 -273 52.3096 -273 302.33z" />
    <glyph glyph-name="Dcaron" unicode="&#x10e;" horiz-adv-x="526" 
d="M46.75 771.35c25.29 1.23047 47 1.73047 68.6797 1.73047c25.2705 0 50.5107 -0.69043 81.3203 -1.73047c5.51953 0 12.3701 -4.47949 15.29 -10l49.5 -92.0098c17.46 34.0303 33.7598 65.54 61.1299 103.01c26.7998 1.23047 49.5605 1.73047 71.7002 1.73047
c25.8096 0 50.7803 -0.69043 80.2998 -1.73047c3.37988 0 5.24023 -1.72949 5.24023 -4.30957c0 -4.87988 -24.6504 -35.6299 -31.6299 -44.8701c-27.5605 -36.4795 -54.6904 -71.0703 -82.9404 -102.82h-87.5996c-55.2402 0 -75.3105 1.06055 -124.061 4
c-5.66016 0.34082 -11.5293 4.02051 -15.29 9c-32.6494 43.25 -66.3193 88.7607 -91.6396 138zM246 300c0 -48.6504 0.830078 -90.4502 1.74023 -132.05h17.0693c27.1807 0 46.2002 13.2295 46.2002 132.38c0 118.8 -19.0195 132.05 -46.2002 132.05h-16.8896
c-0.969727 -41.4199 -1.91992 -83.71 -1.91992 -132.38zM48 300c0 100 2 190.03 2 290c66.8398 10.3301 139 17 195 17c169 0 275 -71.5195 275 -306.67c0 -250.021 -105 -302.33 -273 -302.33c-55 0 -117.93 5.99023 -187 12c-5.51953 0 -10 4.48047 -10 10
c0 94.0303 -2 180 -2 280z" />
    <glyph glyph-name="dcaron" unicode="&#x10f;" horiz-adv-x="526" 
d="M46.75 771.35c25.29 1.23047 47 1.73047 68.6797 1.73047c25.2705 0 50.5107 -0.69043 81.3203 -1.73047c5.51953 0 12.3701 -4.47949 15.29 -10l49.5 -92.0098c17.46 34.0303 33.7598 65.54 61.1299 103.01c26.7998 1.23047 49.5605 1.73047 71.7002 1.73047
c25.8096 0 50.7803 -0.69043 80.2998 -1.73047c3.37988 0 5.24023 -1.72949 5.24023 -4.30957c0 -4.87988 -24.6504 -35.6299 -31.6299 -44.8701c-27.5605 -36.4795 -54.6904 -71.0703 -82.9404 -102.82h-87.5996c-55.2402 0 -75.3105 1.06055 -124.061 4
c-5.66016 0.34082 -11.5293 4.02051 -15.29 9c-32.6494 43.25 -66.3193 88.7607 -91.6396 138zM246 300c0 -48.6504 0.830078 -90.4502 1.74023 -132.05h17.0693c27.1807 0 46.2002 13.2295 46.2002 132.38c0 118.8 -19.0195 132.05 -46.2002 132.05h-16.8896
c-0.969727 -41.4199 -1.91992 -83.71 -1.91992 -132.38zM48 300c0 100 2 190.03 2 290c66.8398 10.3301 139 17 195 17c169 0 275 -71.5195 275 -306.67c0 -250.021 -105 -302.33 -273 -302.33c-55 0 -117.93 5.99023 -187 12c-5.51953 0 -10 4.48047 -10 10
c0 94.0303 -2 180 -2 280z" />
    <glyph glyph-name="Dcroat" unicode="&#x110;" 
d="M10.8799 301.3c0 18.9805 0.310547 40.1504 1.12012 72.7002c10.3701 0.490234 22.9404 0.900391 36.3301 1.23047c0.570312 71.5498 1.66992 140.409 1.66992 214.77c66.8398 10.3301 153 17 209 17c169 0 261 -71.5195 261 -306.67
c0 -250.021 -91 -302.33 -259 -302.33c-55 0 -131.93 5.99023 -201 12c-5.51953 0 -10 4.48047 -10 10c0 66.9902 -1.01953 129.9 -1.59961 196.7c-8.36035 0.509766 -17.0303 0.979492 -26.4004 1.2998c-5.51953 0 -9.87012 4.48047 -10 10
c-0.620117 25.9102 -1.12012 48.9902 -1.12012 73.2998zM246.7 374.78c11.3994 -0.25 21.5195 -0.510742 29.2998 -0.780273c5.51953 0 9.82031 -4.48047 10 -10c0.75 -23.0801 1 -35 1 -85c0 -20 -0.459961 -41.3096 -1 -63
c-6.40039 -0.299805 -20.9697 -0.620117 -39.21 -0.919922c0.280273 -15.9697 0.610352 -31.5605 0.950195 -47.1299h27.0693c27.1807 0 50.2002 13.2295 50.2002 132.38c0 118.8 -23.0195 132.05 -50.2002 132.05h-26.8896
c-0.439453 -18.8496 -0.879883 -37.8701 -1.21973 -57.5996z" />
    <glyph glyph-name="dcroat" unicode="&#x111;" 
d="M10.8799 301.3c0 18.9805 0.310547 40.1504 1.12012 72.7002c10.3701 0.490234 22.9404 0.900391 36.3301 1.23047c0.570312 71.5498 1.66992 140.409 1.66992 214.77c66.8398 10.3301 153 17 209 17c169 0 261 -71.5195 261 -306.67
c0 -250.021 -91 -302.33 -259 -302.33c-55 0 -131.93 5.99023 -201 12c-5.51953 0 -10 4.48047 -10 10c0 66.9902 -1.01953 129.9 -1.59961 196.7c-8.36035 0.509766 -17.0303 0.979492 -26.4004 1.2998c-5.51953 0 -9.87012 4.48047 -10 10
c-0.620117 25.9102 -1.12012 48.9902 -1.12012 73.2998zM246.7 374.78c11.3994 -0.25 21.5195 -0.510742 29.2998 -0.780273c5.51953 0 9.82031 -4.48047 10 -10c0.75 -23.0801 1 -35 1 -85c0 -20 -0.459961 -41.3096 -1 -63
c-6.40039 -0.299805 -20.9697 -0.620117 -39.21 -0.919922c0.280273 -15.9697 0.610352 -31.5605 0.950195 -47.1299h27.0693c27.1807 0 50.2002 13.2295 50.2002 132.38c0 118.8 -23.0195 132.05 -50.2002 132.05h-26.8896
c-0.439453 -18.8496 -0.879883 -37.8701 -1.21973 -57.5996z" />
    <glyph glyph-name="Emacron" unicode="&#x112;" horiz-adv-x="454" 
d="M93.0195 706.19c0 18.46 0.300781 37.7598 0.980469 64.8096c31.75 1.5 154.13 2.25 177.38 2.25c23.96 0 78.6699 -1.08008 112.62 -2.25c5.51953 0 9.82031 -4.48047 10 -10c0.370117 -11.2305 0.610352 -37.8701 0.610352 -65.8604
c0 -24.0098 -0.180664 -49.0098 -0.610352 -66.1396c-21.7598 -1.03027 -114.13 -2.25 -137.38 -2.25c-23.96 0 -118.67 3.08008 -152.62 4.25c-5.51953 0 -9.87012 4.48047 -10 10c-0.629883 26.4805 -0.980469 45.3496 -0.980469 65.1904zM46 300c0 100 1.5 200 4 300
c31.75 1.5 174.13 2.25 207.38 2.25c33.96 0 140.67 -1.08008 174.62 -2.25c5.51953 0 9.90039 -4.48047 10 -10c0.540039 -30.4297 0.910156 -58.3398 0.910156 -86.4404c0 -23.8193 -0.270508 -47.7793 -0.910156 -73.5596c-31.75 -1.5 -126 -2 -159 -2
c-7.58008 0 -21.1797 0.139648 -38.1104 0.370117c-0.199219 -17.21 -0.389648 -34.6201 -0.540039 -52.5205c39.8701 -0.290039 94.1602 -0.969727 119.65 -1.84961c5.51953 0 9.88965 -4.48047 10 -10c0.530273 -27.2197 0.860352 -51.0996 0.860352 -75.1699
c0 -21.2998 -0.260742 -42.7598 -0.860352 -66.8301h-129.65c0.150391 -17.5801 0.350586 -34.8096 0.540039 -52h12.1104c34 0 143.05 -0.830078 177 -2c5.51953 0 9.90039 -4.48047 10 -10c0.540039 -30.4297 0.910156 -58.3301 0.910156 -86.4297
c0 -23.8203 -0.270508 -47.79 -0.910156 -73.5703c-31.75 -1.5 -138.13 -2.25 -171.38 -2.25c-33.96 0 -178.67 3.08008 -212.62 4.25c-5.51953 0 -10 4.48047 -10 10c-2 94 -4 190 -4 290z" />
    <glyph glyph-name="emacron" unicode="&#x113;" horiz-adv-x="454" 
d="M93.0195 706.19c0 18.46 0.300781 37.7598 0.980469 64.8096c31.75 1.5 154.13 2.25 177.38 2.25c23.96 0 78.6699 -1.08008 112.62 -2.25c5.51953 0 9.82031 -4.48047 10 -10c0.370117 -11.2305 0.610352 -37.8701 0.610352 -65.8604
c0 -24.0098 -0.180664 -49.0098 -0.610352 -66.1396c-21.7598 -1.03027 -114.13 -2.25 -137.38 -2.25c-23.96 0 -118.67 3.08008 -152.62 4.25c-5.51953 0 -9.87012 4.48047 -10 10c-0.629883 26.4805 -0.980469 45.3496 -0.980469 65.1904zM46 300c0 100 1.5 200 4 300
c31.75 1.5 174.13 2.25 207.38 2.25c33.96 0 140.67 -1.08008 174.62 -2.25c5.51953 0 9.90039 -4.48047 10 -10c0.540039 -30.4297 0.910156 -58.3398 0.910156 -86.4404c0 -23.8193 -0.270508 -47.7793 -0.910156 -73.5596c-31.75 -1.5 -126 -2 -159 -2
c-7.58008 0 -21.1797 0.139648 -38.1104 0.370117c-0.199219 -17.21 -0.389648 -34.6201 -0.540039 -52.5205c39.8701 -0.290039 94.1602 -0.969727 119.65 -1.84961c5.51953 0 9.88965 -4.48047 10 -10c0.530273 -27.2197 0.860352 -51.0996 0.860352 -75.1699
c0 -21.2998 -0.260742 -42.7598 -0.860352 -66.8301h-129.65c0.150391 -17.5801 0.350586 -34.8096 0.540039 -52h12.1104c34 0 143.05 -0.830078 177 -2c5.51953 0 9.90039 -4.48047 10 -10c0.540039 -30.4297 0.910156 -58.3301 0.910156 -86.4297
c0 -23.8203 -0.270508 -47.79 -0.910156 -73.5703c-31.75 -1.5 -138.13 -2.25 -171.38 -2.25c-33.96 0 -178.67 3.08008 -212.62 4.25c-5.51953 0 -10 4.48047 -10 10c-2 94 -4 190 -4 290z" />
    <glyph glyph-name="Ebreve" unicode="&#x114;" horiz-adv-x="454" 
d="M27.75 775.76c25.29 1.2207 46.5801 1.73047 67.8096 1.73047c24.7305 0 49.3809 -0.69043 80.1904 -1.73047c5.51953 0 12.4404 -4.43945 15.29 -10c12.7598 -24.8594 33.2998 -36.5098 53.8398 -36.5098c23.5303 0 47.04 15.29 58.79 43.5098
c26.7998 1.2207 49.5605 1.73047 71.71 1.73047c25.7998 0 50.7705 -0.69043 80.29 -1.73047c3.19043 0 4.28027 -1.16992 4.28027 -3.41016c0 -8.90918 -11.8604 -36.3896 -19.3506 -49.0498c-38.5596 -65.2002 -117.159 -101.83 -197.42 -101.83
c-93.2393 0 -188.92 49.5 -215.43 157.29zM46 300c0 100 1.5 200 4 300c31.75 1.5 174.13 2.25 207.38 2.25c33.96 0 140.67 -1.08008 174.62 -2.25c5.51953 0 9.90039 -4.48047 10 -10c0.540039 -30.4297 0.910156 -58.3398 0.910156 -86.4404
c0 -23.8193 -0.270508 -47.7793 -0.910156 -73.5596c-31.75 -1.5 -126 -2 -159 -2c-7.58008 0 -21.1797 0.139648 -38.1104 0.370117c-0.199219 -17.21 -0.389648 -34.6201 -0.540039 -52.5205c39.8701 -0.290039 94.1602 -0.969727 119.65 -1.84961
c5.51953 0 9.88965 -4.48047 10 -10c0.530273 -27.2197 0.860352 -51.0996 0.860352 -75.1699c0 -21.2998 -0.260742 -42.7598 -0.860352 -66.8301h-129.65c0.150391 -17.5801 0.350586 -34.8096 0.540039 -52h12.1104c34 0 143.05 -0.830078 177 -2
c5.51953 0 9.90039 -4.48047 10 -10c0.540039 -30.4297 0.910156 -58.3301 0.910156 -86.4297c0 -23.8203 -0.270508 -47.79 -0.910156 -73.5703c-31.75 -1.5 -138.13 -2.25 -171.38 -2.25c-33.96 0 -178.67 3.08008 -212.62 4.25c-5.51953 0 -10 4.48047 -10 10
c-2 94 -4 190 -4 290z" />
    <glyph glyph-name="ebreve" unicode="&#x115;" horiz-adv-x="454" 
d="M27.75 775.76c25.29 1.2207 46.5801 1.73047 67.8096 1.73047c24.7305 0 49.3809 -0.69043 80.1904 -1.73047c5.51953 0 12.4404 -4.43945 15.29 -10c12.7598 -24.8594 33.2998 -36.5098 53.8398 -36.5098c23.5303 0 47.04 15.29 58.79 43.5098
c26.7998 1.2207 49.5605 1.73047 71.71 1.73047c25.7998 0 50.7705 -0.69043 80.29 -1.73047c3.19043 0 4.28027 -1.16992 4.28027 -3.41016c0 -8.90918 -11.8604 -36.3896 -19.3506 -49.0498c-38.5596 -65.2002 -117.159 -101.83 -197.42 -101.83
c-93.2393 0 -188.92 49.5 -215.43 157.29zM46 300c0 100 1.5 200 4 300c31.75 1.5 174.13 2.25 207.38 2.25c33.96 0 140.67 -1.08008 174.62 -2.25c5.51953 0 9.90039 -4.48047 10 -10c0.540039 -30.4297 0.910156 -58.3398 0.910156 -86.4404
c0 -23.8193 -0.270508 -47.7793 -0.910156 -73.5596c-31.75 -1.5 -126 -2 -159 -2c-7.58008 0 -21.1797 0.139648 -38.1104 0.370117c-0.199219 -17.21 -0.389648 -34.6201 -0.540039 -52.5205c39.8701 -0.290039 94.1602 -0.969727 119.65 -1.84961
c5.51953 0 9.88965 -4.48047 10 -10c0.530273 -27.2197 0.860352 -51.0996 0.860352 -75.1699c0 -21.2998 -0.260742 -42.7598 -0.860352 -66.8301h-129.65c0.150391 -17.5801 0.350586 -34.8096 0.540039 -52h12.1104c34 0 143.05 -0.830078 177 -2
c5.51953 0 9.90039 -4.48047 10 -10c0.540039 -30.4297 0.910156 -58.3301 0.910156 -86.4297c0 -23.8203 -0.270508 -47.79 -0.910156 -73.5703c-31.75 -1.5 -138.13 -2.25 -171.38 -2.25c-33.96 0 -178.67 3.08008 -212.62 4.25c-5.51953 0 -10 4.48047 -10 10
c-2 94 -4 190 -4 290z" />
    <glyph glyph-name="Edotaccent" unicode="&#x116;" horiz-adv-x="454" 
d="M158.13 707.63c0 21.0703 0.270508 42.25 0.870117 66.3701c25.9404 1.21973 49.6201 1.73047 73.1396 1.73047c27.4102 0 54.6006 -0.69043 84.8604 -1.73047c5.51953 0 9.88965 -4.48047 10 -10c0.530273 -27 0.860352 -50.4004 0.860352 -74
c0 -20.9502 -0.260742 -42.0498 -0.860352 -66c-19.4902 -0.919922 -37.71 -1.32031 -55.5498 -1.32031c-33.5605 0 -65.75 1.40039 -102.45 3.32031c-5.50977 0.290039 -10 4.48047 -10 10c-0.55957 26.1299 -0.870117 48.8096 -0.870117 71.6299zM46 300
c0 100 1.5 200 4 300c31.75 1.5 174.13 2.25 207.38 2.25c33.96 0 140.67 -1.08008 174.62 -2.25c5.51953 0 9.90039 -4.48047 10 -10c0.540039 -30.4297 0.910156 -58.3398 0.910156 -86.4404c0 -23.8193 -0.270508 -47.7793 -0.910156 -73.5596
c-31.75 -1.5 -126 -2 -159 -2c-7.58008 0 -21.1797 0.139648 -38.1104 0.370117c-0.199219 -17.21 -0.389648 -34.6201 -0.540039 -52.5205c39.8701 -0.290039 94.1602 -0.969727 119.65 -1.84961c5.51953 0 9.88965 -4.48047 10 -10
c0.530273 -27.2197 0.860352 -51.0996 0.860352 -75.1699c0 -21.2998 -0.260742 -42.7598 -0.860352 -66.8301h-129.65c0.150391 -17.5801 0.350586 -34.8096 0.540039 -52h12.1104c34 0 143.05 -0.830078 177 -2c5.51953 0 9.90039 -4.48047 10 -10
c0.540039 -30.4297 0.910156 -58.3301 0.910156 -86.4297c0 -23.8203 -0.270508 -47.79 -0.910156 -73.5703c-31.75 -1.5 -138.13 -2.25 -171.38 -2.25c-33.96 0 -178.67 3.08008 -212.62 4.25c-5.51953 0 -10 4.48047 -10 10c-2 94 -4 190 -4 290z" />
    <glyph glyph-name="edotaccent" unicode="&#x117;" horiz-adv-x="454" 
d="M158.13 707.63c0 21.0703 0.270508 42.25 0.870117 66.3701c25.9404 1.21973 49.6201 1.73047 73.1396 1.73047c27.4102 0 54.6006 -0.69043 84.8604 -1.73047c5.51953 0 9.88965 -4.48047 10 -10c0.530273 -27 0.860352 -50.4004 0.860352 -74
c0 -20.9502 -0.260742 -42.0498 -0.860352 -66c-19.4902 -0.919922 -37.71 -1.32031 -55.5498 -1.32031c-33.5605 0 -65.75 1.40039 -102.45 3.32031c-5.50977 0.290039 -10 4.48047 -10 10c-0.55957 26.1299 -0.870117 48.8096 -0.870117 71.6299zM46 300
c0 100 1.5 200 4 300c31.75 1.5 174.13 2.25 207.38 2.25c33.96 0 140.67 -1.08008 174.62 -2.25c5.51953 0 9.90039 -4.48047 10 -10c0.540039 -30.4297 0.910156 -58.3398 0.910156 -86.4404c0 -23.8193 -0.270508 -47.7793 -0.910156 -73.5596
c-31.75 -1.5 -126 -2 -159 -2c-7.58008 0 -21.1797 0.139648 -38.1104 0.370117c-0.199219 -17.21 -0.389648 -34.6201 -0.540039 -52.5205c39.8701 -0.290039 94.1602 -0.969727 119.65 -1.84961c5.51953 0 9.88965 -4.48047 10 -10
c0.530273 -27.2197 0.860352 -51.0996 0.860352 -75.1699c0 -21.2998 -0.260742 -42.7598 -0.860352 -66.8301h-129.65c0.150391 -17.5801 0.350586 -34.8096 0.540039 -52h12.1104c34 0 143.05 -0.830078 177 -2c5.51953 0 9.90039 -4.48047 10 -10
c0.540039 -30.4297 0.910156 -58.3301 0.910156 -86.4297c0 -23.8203 -0.270508 -47.79 -0.910156 -73.5703c-31.75 -1.5 -138.13 -2.25 -171.38 -2.25c-33.96 0 -178.67 3.08008 -212.62 4.25c-5.51953 0 -10 4.48047 -10 10c-2 94 -4 190 -4 290z" />
    <glyph glyph-name="Eogonek" unicode="&#x118;" horiz-adv-x="454" 
d="M46 300c0 100 1.49512 200.002 3.99512 300.002c31.75 1.5 174.13 2.25 207.38 2.25c33.96 0 140.67 -1.08008 174.62 -2.25c5.51953 0 9.89941 -4.48047 9.99902 -10.001c0.540039 -30.4297 0.910156 -58.3398 0.910156 -86.4395
c0 -23.8203 -0.269531 -47.7803 -0.90918 -73.5605c-31.75 -1.5 -126 -2 -159 -2c-7.58008 0 -21.1797 0.139648 -38.1094 0.370117c-0.200195 -17.21 -0.390625 -34.6201 -0.541016 -52.5205c39.8701 -0.290039 94.1602 -0.969727 119.65 -1.84961
c5.51953 0 9.88965 -4.48047 10 -10c0.530273 -27.2197 0.860352 -51.0996 0.860352 -75.1699c0 -21.2998 -0.259766 -42.7598 -0.859375 -66.8301h-129.65c0.150391 -17.5801 0.350586 -34.8203 0.541016 -52.0107h12.1104c34 0 143.05 -0.820312 177 -1.99023
c5.51953 0 9.89941 -4.48047 9.99902 -10c0.540039 -30.4297 0.910156 -58.3301 0.910156 -86.4297c0 -23.8203 -0.269531 -47.79 -0.90918 -73.5703c-9.03027 -0.429688 -24.0898 -0.790039 -41.79 -1.09961c-29.96 -0.900391 -44.21 -15.9004 -44.21 -28.9004
c0 -14 16.1104 -26.7197 45.1807 -23.0498l48.8203 6.0498l18 -140c-40.6699 -7.5498 -59.6494 -11 -97.999 -11c-94.7598 0 -161.2 50.9004 -161.2 111.61c0 27.3496 13.4902 56.6992 43.9502 84.2793c-51.0996 0.610352 -165.119 3.09082 -194.749 4.11035
c-5.51953 0 -10 4.48047 -10 10c-2 94 -4 190 -4 290z" />
    <glyph glyph-name="eogonek" unicode="&#x119;" horiz-adv-x="454" 
d="M46 300c0 100 1.5 200 4 300c31.75 1.5 174.13 2.25 207.38 2.25c33.96 0 140.67 -1.08008 174.62 -2.25c5.51953 0 9.90039 -4.48047 10 -10c0.540039 -30.4297 0.910156 -58.3398 0.910156 -86.4404c0 -23.8193 -0.270508 -47.7793 -0.910156 -73.5596
c-31.75 -1.5 -126 -2 -159 -2c-7.58008 0 -21.1797 0.139648 -38.1104 0.370117c-0.199219 -17.21 -0.389648 -34.6201 -0.540039 -52.5205c39.8701 -0.290039 94.1602 -0.969727 119.65 -1.84961c5.51953 0 9.88965 -4.48047 10 -10
c0.530273 -27.2197 0.860352 -51.0996 0.860352 -75.1699c0 -21.2998 -0.260742 -42.7598 -0.860352 -66.8301h-129.65c0.150391 -17.5801 0.350586 -34.8203 0.540039 -52.0098h12.1104c34 0 143.05 -0.820312 177 -1.99023c5.51953 0 9.90039 -4.48047 10 -10
c0.540039 -30.4297 0.910156 -58.3301 0.910156 -86.4297c0 -23.8203 -0.270508 -47.79 -0.910156 -73.5703c-9.03027 -0.429688 -24.0898 -0.790039 -41.79 -1.09961c-29.96 -0.900391 -44.21 -15.9004 -44.21 -28.9004c0 -14 16.1104 -26.7197 45.1797 -23.0498
l48.8203 6.0498l18 -140c-40.6699 -7.5498 -59.6504 -11 -98 -11c-94.7598 0 -161.2 50.9004 -161.2 111.61c0 27.3496 13.4902 56.6992 43.9502 84.2793c-51.0996 0.610352 -165.12 3.09082 -194.75 4.11035c-5.51953 0 -10 4.48047 -10 10c-2 94 -4 190 -4 290z" />
    <glyph glyph-name="Ecaron" unicode="&#x11a;" horiz-adv-x="454" 
d="M27.75 771.35c25.29 1.23047 47 1.73047 68.6797 1.73047c25.2705 0 50.5107 -0.69043 81.3203 -1.73047c5.51953 0 12.3701 -4.47949 15.29 -10l49.5 -92.0098c17.46 34.0303 33.7598 65.54 61.1299 103.01c26.7998 1.23047 49.5605 1.73047 71.7002 1.73047
c25.8096 0 50.7803 -0.69043 80.2998 -1.73047c3.37988 0 5.24023 -1.72949 5.24023 -4.30957c0 -4.87988 -24.6504 -35.6299 -31.6299 -44.8701c-27.5605 -36.4795 -54.6904 -71.0703 -82.9404 -102.82h-87.5996c-55.2402 0 -75.3105 1.06055 -124.061 4
c-5.66016 0.34082 -11.5293 4.02051 -15.29 9c-32.6494 43.25 -66.3193 88.7607 -91.6396 138zM46 300c0 100 1.5 200 4 300c31.75 1.5 174.13 2.25 207.38 2.25c33.96 0 140.67 -1.08008 174.62 -2.25c5.51953 0 9.90039 -4.48047 10 -10
c0.540039 -30.4297 0.910156 -58.3398 0.910156 -86.4404c0 -23.8193 -0.270508 -47.7793 -0.910156 -73.5596c-31.75 -1.5 -126 -2 -159 -2c-7.58008 0 -21.1797 0.139648 -38.1104 0.370117c-0.199219 -17.21 -0.389648 -34.6201 -0.540039 -52.5205
c39.8701 -0.290039 94.1602 -0.969727 119.65 -1.84961c5.51953 0 9.88965 -4.48047 10 -10c0.530273 -27.2197 0.860352 -51.0996 0.860352 -75.1699c0 -21.2998 -0.260742 -42.7598 -0.860352 -66.8301h-129.65c0.150391 -17.5801 0.350586 -34.8096 0.540039 -52h12.1104
c34 0 143.05 -0.830078 177 -2c5.51953 0 9.90039 -4.48047 10 -10c0.540039 -30.4297 0.910156 -58.3301 0.910156 -86.4297c0 -23.8203 -0.270508 -47.79 -0.910156 -73.5703c-31.75 -1.5 -138.13 -2.25 -171.38 -2.25c-33.96 0 -178.67 3.08008 -212.62 4.25
c-5.51953 0 -10 4.48047 -10 10c-2 94 -4 190 -4 290z" />
    <glyph glyph-name="ecaron" unicode="&#x11b;" horiz-adv-x="454" 
d="M27.75 771.35c25.29 1.23047 47 1.73047 68.6797 1.73047c25.2705 0 50.5107 -0.69043 81.3203 -1.73047c5.51953 0 12.3701 -4.47949 15.29 -10l49.5 -92.0098c17.46 34.0303 33.7598 65.54 61.1299 103.01c26.7998 1.23047 49.5605 1.73047 71.7002 1.73047
c25.8096 0 50.7803 -0.69043 80.2998 -1.73047c3.37988 0 5.24023 -1.72949 5.24023 -4.30957c0 -4.87988 -24.6504 -35.6299 -31.6299 -44.8701c-27.5605 -36.4795 -54.6904 -71.0703 -82.9404 -102.82h-87.5996c-55.2402 0 -75.3105 1.06055 -124.061 4
c-5.66016 0.34082 -11.5293 4.02051 -15.29 9c-32.6494 43.25 -66.3193 88.7607 -91.6396 138zM46 300c0 100 1.5 200 4 300c31.75 1.5 174.13 2.25 207.38 2.25c33.96 0 140.67 -1.08008 174.62 -2.25c5.51953 0 9.90039 -4.48047 10 -10
c0.540039 -30.4297 0.910156 -58.3398 0.910156 -86.4404c0 -23.8193 -0.270508 -47.7793 -0.910156 -73.5596c-31.75 -1.5 -126 -2 -159 -2c-7.58008 0 -21.1797 0.139648 -38.1104 0.370117c-0.199219 -17.21 -0.389648 -34.6201 -0.540039 -52.5205
c39.8701 -0.290039 94.1602 -0.969727 119.65 -1.84961c5.51953 0 9.88965 -4.48047 10 -10c0.530273 -27.2197 0.860352 -51.0996 0.860352 -75.1699c0 -21.2998 -0.260742 -42.7598 -0.860352 -66.8301h-129.65c0.150391 -17.5801 0.350586 -34.8096 0.540039 -52h12.1104
c34 0 143.05 -0.830078 177 -2c5.51953 0 9.90039 -4.48047 10 -10c0.540039 -30.4297 0.910156 -58.3301 0.910156 -86.4297c0 -23.8203 -0.270508 -47.79 -0.910156 -73.5703c-31.75 -1.5 -138.13 -2.25 -171.38 -2.25c-33.96 0 -178.67 3.08008 -212.62 4.25
c-5.51953 0 -10 4.48047 -10 10c-2 94 -4 190 -4 290z" />
    <glyph glyph-name="Gcircumflex" unicode="&#x11c;" horiz-adv-x="502" 
d="M78.75 620.65c25.3203 49.2393 58.9902 96.75 92.6396 143c3.66992 5.0498 9.62988 8.70996 15.29 9c50.46 2.56934 93.3203 3.34961 141.32 3.34961c22 0 44.6699 -0.0302734 69.3398 -0.349609c32.1406 -36.1201 62.8203 -75.9102 94.3506 -117.98
c4.87988 -6.50977 20.2197 -24.5 20.2197 -29.71c0 -2.58008 -1.86035 -4.30957 -5.24023 -4.30957c-29.5195 -1.04004 -54.4902 -1.73047 -80.2998 -1.73047c-22.1396 0 -44.9004 0.5 -71.7002 1.73047c-27.29 37.3594 -43.5703 68.7998 -60.9697 102.71l-49.6602 -95.71
c-2.99023 -5.48047 -9.77051 -10 -15.29 -10c-30.8096 -1.04004 -56.0498 -1.73047 -81.3203 -1.73047c-21.6797 0 -43.3896 0.5 -68.6797 1.73047zM26 300.33c0 235.15 106 306.67 275 306.67c56 0 115.16 -6.66992 179 -17l-21 -158h-178
c-27 0 -46.0098 -12.8701 -46.0098 -131.67c0 -119.15 23.0098 -132.33 51.0098 -132.33h20c0 40 -2.01953 100.42 -4 152c27.5 1.2998 53.0996 1.90039 79.0801 1.90039c27.6299 0 55.6895 -0.680664 86.9199 -1.90039c5.51953 -0.219727 9.75977 -4.49023 10 -10
c2.0498 -46.21 4 -90.7998 4 -140c0 -46.7402 -1.83008 -113.25 -4 -153c-68.8896 -12.3701 -106.95 -19 -179 -19c-168 0 -273 52.3096 -273 302.33z" />
    <glyph glyph-name="gcircumflex" unicode="&#x11d;" horiz-adv-x="502" 
d="M78.75 620.65c25.3203 49.2393 58.9902 96.75 92.6396 143c3.66992 5.0498 9.62988 8.70996 15.29 9c50.46 2.56934 93.3203 3.34961 141.32 3.34961c22 0 44.6699 -0.0302734 69.3398 -0.349609c32.1406 -36.1201 62.8203 -75.9102 94.3506 -117.98
c4.87988 -6.50977 20.2197 -24.5 20.2197 -29.71c0 -2.58008 -1.86035 -4.30957 -5.24023 -4.30957c-29.5195 -1.04004 -54.4902 -1.73047 -80.2998 -1.73047c-22.1396 0 -44.9004 0.5 -71.7002 1.73047c-27.29 37.3594 -43.5703 68.7998 -60.9697 102.71l-49.6602 -95.71
c-2.99023 -5.48047 -9.77051 -10 -15.29 -10c-30.8096 -1.04004 -56.0498 -1.73047 -81.3203 -1.73047c-21.6797 0 -43.3896 0.5 -68.6797 1.73047zM26 300.33c0 235.15 106 306.67 275 306.67c56 0 115.16 -6.66992 179 -17l-21 -158h-178
c-27 0 -46.0098 -12.8701 -46.0098 -131.67c0 -119.15 23.0098 -132.33 51.0098 -132.33h20c0 40 -2.01953 100.42 -4 152c27.5 1.2998 53.0996 1.90039 79.0801 1.90039c27.6299 0 55.6895 -0.680664 86.9199 -1.90039c5.51953 -0.219727 9.75977 -4.49023 10 -10
c2.0498 -46.21 4 -90.7998 4 -140c0 -46.7402 -1.83008 -113.25 -4 -153c-68.8896 -12.3701 -106.95 -19 -179 -19c-168 0 -273 52.3096 -273 302.33z" />
    <glyph glyph-name="Gbreve" unicode="&#x11e;" horiz-adv-x="502" 
d="M78.75 775.76c25.29 1.2207 46.5801 1.73047 67.8096 1.73047c24.7305 0 49.3809 -0.69043 80.1904 -1.73047c5.51953 0 12.4404 -4.43945 15.29 -10c12.7598 -24.8594 33.2998 -36.5098 53.8398 -36.5098c23.5303 0 47.04 15.29 58.79 43.5098
c26.7998 1.2207 49.5605 1.73047 71.71 1.73047c25.7998 0 50.7705 -0.69043 80.29 -1.73047c3.19043 0 4.28027 -1.16992 4.28027 -3.41016c0 -8.90918 -11.8604 -36.3896 -19.3506 -49.0498c-38.5596 -65.2002 -117.159 -101.83 -197.42 -101.83
c-93.2393 0 -188.92 49.5 -215.43 157.29zM26 300.33c0 235.15 106 306.67 275 306.67c56 0 115.16 -6.66992 179 -17l-21 -158h-178c-27 0 -46.0098 -12.8701 -46.0098 -131.67c0 -119.15 23.0098 -132.33 51.0098 -132.33h20c0 40 -2.01953 100.42 -4 152
c27.5 1.2998 53.0996 1.90039 79.0801 1.90039c27.6299 0 55.6895 -0.680664 86.9199 -1.90039c5.51953 -0.219727 9.75977 -4.49023 10 -10c2.0498 -46.21 4 -90.7998 4 -140c0 -46.7402 -1.83008 -113.25 -4 -153c-68.8896 -12.3701 -106.95 -19 -179 -19
c-168 0 -273 52.3096 -273 302.33z" />
    <glyph glyph-name="gbreve" unicode="&#x11f;" horiz-adv-x="502" 
d="M78.75 775.76c25.29 1.2207 46.5801 1.73047 67.8096 1.73047c24.7305 0 49.3809 -0.69043 80.1904 -1.73047c5.51953 0 12.4404 -4.43945 15.29 -10c12.7598 -24.8594 33.2998 -36.5098 53.8398 -36.5098c23.5303 0 47.04 15.29 58.79 43.5098
c26.7998 1.2207 49.5605 1.73047 71.71 1.73047c25.7998 0 50.7705 -0.69043 80.29 -1.73047c3.19043 0 4.28027 -1.16992 4.28027 -3.41016c0 -8.90918 -11.8604 -36.3896 -19.3506 -49.0498c-38.5596 -65.2002 -117.159 -101.83 -197.42 -101.83
c-93.2393 0 -188.92 49.5 -215.43 157.29zM26 300.33c0 235.15 106 306.67 275 306.67c56 0 115.16 -6.66992 179 -17l-21 -158h-178c-27 0 -46.0098 -12.8701 -46.0098 -131.67c0 -119.15 23.0098 -132.33 51.0098 -132.33h20c0 40 -2.01953 100.42 -4 152
c27.5 1.2998 53.0996 1.90039 79.0801 1.90039c27.6299 0 55.6895 -0.680664 86.9199 -1.90039c5.51953 -0.219727 9.75977 -4.49023 10 -10c2.0498 -46.21 4 -90.7998 4 -140c0 -46.7402 -1.83008 -113.25 -4 -153c-68.8896 -12.3701 -106.95 -19 -179 -19
c-168 0 -273 52.3096 -273 302.33z" />
    <glyph glyph-name="Gdotaccent" unicode="&#x120;" horiz-adv-x="502" 
d="M209.13 707.63c0 21.0703 0.270508 42.25 0.870117 66.3701c25.9404 1.21973 49.6201 1.73047 73.1396 1.73047c27.4102 0 54.6006 -0.69043 84.8604 -1.73047c5.51953 0 9.88965 -4.48047 10 -10c0.530273 -27 0.860352 -50.4004 0.860352 -74
c0 -20.9502 -0.260742 -42.0498 -0.860352 -66c-19.4902 -0.919922 -37.71 -1.32031 -55.5498 -1.32031c-33.5605 0 -65.75 1.40039 -102.45 3.32031c-5.50977 0.290039 -10 4.48047 -10 10c-0.55957 26.1299 -0.870117 48.8096 -0.870117 71.6299zM26 300.33
c0 235.15 106 306.67 275 306.67c56 0 115.16 -6.66992 179 -17l-21 -158h-178c-27 0 -46.0098 -12.8701 -46.0098 -131.67c0 -119.15 23.0098 -132.33 51.0098 -132.33h20c0 40 -2.01953 100.42 -4 152c27.5 1.2998 53.0996 1.90039 79.0801 1.90039
c27.6299 0 55.6895 -0.680664 86.9199 -1.90039c5.51953 -0.219727 9.75977 -4.49023 10 -10c2.0498 -46.21 4 -90.7998 4 -140c0 -46.7402 -1.83008 -113.25 -4 -153c-68.8896 -12.3701 -106.95 -19 -179 -19c-168 0 -273 52.3096 -273 302.33z" />
    </font>
</defs>
</svg>
